<?xml version="1.0" encoding="UTF-8"?>
<svg xmlns="http://www.w3.org/2000/svg" viewBox="0 0 96 96">
  <defs>
    <style>
      .cls-1 {
        fill: #fff;
      }

      .cls-1, .cls-2 {
        stroke: #231f20;
        stroke-miterlimit: 10;
        stroke-width: .5px;
      }

      .cls-2 {
        fill: none;
      }
    </style>
  </defs>
  <g id="ClassicFit_LongSleeve_ClassicCollar_Depan" data-name="ClassicFit/LongSleeve/ClassicCollar/Depan">
    <circle class="cls-1" cx="48.38" cy="23.96" r=".47"/>
    <circle class="cls-1" cx="48.38" cy="33.31" r=".47"/>
    <circle class="cls-1" cx="48.38" cy="42.66" r=".47"/>
    <circle class="cls-1" cx="48.38" cy="51.91" r=".47"/>
    <circle class="cls-1" cx="48.38" cy="61.41" r=".47"/>
    <circle class="cls-1" cx="48.38" cy="70.66" r=".47"/>
  </g>
  <g id="Layer_12" data-name="Layer 12">
    <polyline class="cls-2" points="41.83 8.12 54.95 8.11 57.79 11.83 71.18 17.66 81.39 41.4 69.85 46.83 66.28 39.42"/>
    <polyline class="cls-2" points="41.83 8.02 38.7 11.81 25.22 17.7 14.9 41.44 26.86 46.45 30.27 38.9"/>
    <path class="cls-2" d="m71.18,17.81c-3.14,5.35-4.1,11.68-4.66,17.86-1.43,15.81-.64,31.82,2.33,47.42"/>
    <line class="cls-2" x1="27.4" y1="82.85" x2="69.1" y2="83.05"/>
    <path class="cls-2" d="m25.76,17.44c2.55,4.57,3.72,9.8,4.22,15.02.28,2.94.36,5.9.44,8.86.13,4.93.26,9.87.05,14.79-.24,5.58-.92,11.12-1.61,16.66-.42,3.42-.84,6.84-1.27,10.27"/>
    <path class="cls-2" d="m41.7,7.92c.38,1.31.85,2.59,1.41,3.84.31.69.65,1.38,1.14,1.96.54.63,1.25,1.11,2.01,1.46,1.75.82,3.98.92,5.5-.27.7-.55,1.2-1.33,1.6-2.12.79-1.57,1.3-3.28,1.47-5.03"/>
    <line class="cls-2" x1="47.01" y1="18.97" x2="46.69" y2="82.77"/>
    <line class="cls-2" x1="49.75" y1="19.16" x2="49.82" y2="82.71"/>
    <path class="cls-2" d="m42.28,16.48c.63.75,1.56,1.16,2.46,1.54,1.11.47,2.25.95,3.45,1.01.87.04,1.74-.14,2.59-.36.72-.18,1.46-.4,2.06-.84.61-.45,1.04-1.09,1.46-1.72"/>
    <path class="cls-2" d="m49.26,15.79c-.79-.02-1.67.29-1.97.94-.12.25-.14.53-.17.81-.04.44-.07.87-.11,1.31"/>
    <path class="cls-2" d="m58.02,12.01c.04,1.87,0,3.73-.12,5.6-1.76-1.13-3.82-1.76-5.9-2.01s-4.19-.12-6.26.2c-2.46.38-4.87,1.03-7.19,1.94.05-1.98.1-3.96.15-5.94"/>
    <line class="cls-2" x1="42.13" y1="9.23" x2="54.63" y2="9.2"/>
    <line class="cls-2" x1="43.27" y1="12.04" x2="53.72" y2="12.06"/>
  </g>
</svg>