<?xml version="1.0" encoding="UTF-8"?>
<svg id="ClassicCollar" xmlns="http://www.w3.org/2000/svg" viewBox="0 0 96 96">
  <defs>
    <style>
      .cls-1 {
        fill: none;
        stroke: #231f20;
        stroke-miterlimit: 10;
        stroke-width: .5px;
      }
    </style>
  </defs>
  <polyline class="cls-1" points="36.15 35.26 58.87 35.09 63.68 41.19 87.66 52.51"/>
  <polyline class="cls-1" points="36.48 35.34 31.62 40.7 7.09 51.87"/>
  <path class="cls-1" d="m36.56,35.7c.45,3.85,2.07,7.69,5.07,10.14,3.01,2.44,7.54,3.18,10.84,1.15,1.96-1.2,3.32-3.2,4.3-5.29s1.65-4.3,2.62-6.39"/>
  <path class="cls-1" d="m31.75,40.85c1.66,5.99,3.33,11.99,4.99,17.98,2.24-3.55,4.58-7.21,8.07-9.54.88-.58,1.84-1.08,2.89-1.2,2.55-.29,4.8,1.73,6.14,3.92,1.34,2.19,2.21,4.71,3.98,6.56,2.47-5.62,4.51-11.44,6.11-17.37"/>
  <path class="cls-1" d="m40.95,52.79c1.68.97,3.72,1.04,5.66,1.09,2.68.06,5.41.12,8-.58"/>
  <path class="cls-1" d="m48.01,48.17c-1.08.11-2.08.82-2.54,1.81-.34.72-.39,1.54-.43,2.33-.05.85-.06,1.03-.11,1.88"/>
  <line class="cls-1" x1="36.83" y1="36.93" x2="58.57" y2="36.91"/>
</svg>