<?xml version="1.0" encoding="UTF-8"?>
<svg id="Layer_12" data-name="Layer 12" xmlns="http://www.w3.org/2000/svg" viewBox="0 0 96 96">
  <defs>
    <style>
      .cls-1 {
        fill: none;
        stroke: #231f20;
        stroke-miterlimit: 10;
        stroke-width: .5px;
      }
    </style>
  </defs>
  <polyline class="cls-1" points="42.31 8.14 53.92 8.18 56.94 11.28 68.46 16.35 85.36 57.53 76.45 61.54 64.49 35.82"/>
  <polyline class="cls-1" points="39.82 11.04 28.4 16.22 11.33 57.43 20.07 61.3 32.32 35.9"/>
  <path class="cls-1" d="m68.33,16.49c-3.32,5.96-3.91,13.02-4.12,19.83-.4,12.85.31,25.72,2.11,38.45"/>
  <path class="cls-1" d="m28.52,16.24c4.19,9.36,4.24,19.98,3.86,30.23-.35,9.37-.99,18.74-1.94,28.07"/>
  <path class="cls-1" d="m66.39,74.46c-1.07.42-1.88,1.3-2.66,2.14-2.15,2.33-4.41,4.68-7.27,6.07-1.23.6-2.55,1.01-3.89,1.29-5.08,1.09-10.72.31-14.83-2.88-2.63-2.04-4.52-4.96-7.4-6.62-.05-.05,0-.14.06-.14"/>
  <line class="cls-1" x1="42.49" y1="8.08" x2="39.69" y2="11.13"/>
  <line class="cls-1" x1="39.71" y1="11.02" x2="56.89" y2="11.23"/>
  <line class="cls-1" x1="31.26" y1="24.92" x2="65.34" y2="24.9"/>
</svg>