<?xml version="1.0" encoding="UTF-8"?>
<svg id="OO" xmlns="http://www.w3.org/2000/svg" viewBox="0 0 96 96">
  <defs>
    <style>
      .cls-1 {
        fill: none;
        stroke: #010101;
        stroke-miterlimit: 10;
        stroke-width: .5px;
      }
    </style>
  </defs>
  <g id="Baju">
    <path id="Baju_Depan" data-name="Baju Depan" class="cls-1" d="m56.5,10.55l13.96,6.07c-3.65,7.08-4.73,14.88-4.87,22.65l2.12,42.06-2.42.03c-11,5.42-22.63,4.78-34.64.41l-3.07.04,2.19-42.86c.14-8.06-.55-15.31-4.5-22.24l13.18-6.29"/>
    <path id="Shilouete_Baju_Belakang" data-name="Shilouete Baju Belakang" class="cls-1" d="m28.38,66.07l-2.85,15.74h2.04c13.61,9.19,26.94,7.41,40.13-.48l1.57-.05-2.22-12.92"/>
  </g>
  <g id="Kancing_Baju" data-name="Kancing Baju">
    <rect class="cls-1" x="46.16" y="18.1" width="2.9" height="67.12"/>
    <circle class="cls-1" cx="47.52" cy="23.01" r=".63"/>
    <circle class="cls-1" cx="47.61" cy="32.17" r=".63"/>
    <circle class="cls-1" cx="47.61" cy="41.62" r=".63"/>
    <circle class="cls-1" cx="47.61" cy="50.58" r=".63"/>
    <circle class="cls-1" cx="47.61" cy="60.08" r=".63"/>
    <circle class="cls-1" cx="47.61" cy="69.59" r=".63"/>
  </g>
  <g id="Kerah">
    <path class="cls-1" d="m41.11,7.41s-.24,4.31,5.05,7.38l-3.16,4.02s-4-3.16-4.56-8.41l2.67-2.99Z"/>
    <path class="cls-1" d="m53.84,7.23s.52,4.12-4.78,7.62l3.22,3.96s4.76-4.6,4.22-8.26l-2.66-3.32Z"/>
    <line class="cls-1" x1="52.8" y1="11.35" x2="42.4" y2="11.35"/>
    <path class="cls-1" d="m51.23,17.53c-2.32.79-4.7.77-7.13-.12l2.06-2.62,2.9.05,2.18,2.68Z"/>
    <line class="cls-1" x1="41.29" y1="7.23" x2="53.9" y2="7.23"/>
  </g>
  <g id="Lengan">
    <path id="Kanan" class="cls-1" d="m65.6,38.5l13.67,28.61,10-4.41-18.81-46.07c-3.07,6.1-4.71,13.37-4.86,21.88Z"/>
    <path id="Kiri" class="cls-1" d="m29.63,39.49l-13.27,27.78-10-4.41L25.17,16.79c3.6,6.1,5.01,14.2,4.46,22.71Z"/>
  </g>
</svg>