<?xml version="1.0" encoding="UTF-8"?>
<svg id="ClassicFit_LongSleeve_CutAwayCollar_Depan" data-name="ClassicFit/LongSleeve/CutAwayCollar/Depan" xmlns="http://www.w3.org/2000/svg" viewBox="0 0 96 96">
  <defs>
    <style>
      .cls-1 {
        fill: none;
        stroke: #010101;
        stroke-miterlimit: 10;
        stroke-width: .5px;
      }
    </style>
  </defs>
  <g id="Lengan_Belakang_Kiri" data-name="Lengan Belakang Kiri">
    <path id="Lengan" class="cls-1" d="m69.74,16.48c-1.29,2.07-2.87,5.13-3.88,9.07-1.31,5.14-1.08,9.53-.72,12.28,6.49,13.3,12.82,26.69,19.31,39.99l7.87-3.97-22.59-57.36Z"/>
    <path class="cls-1" d="m93.51,79.66l-1.33.67c-1.5.76-3.33.16-4.09-1.34l-1.19-2.36,5.07-2.56,1.94,4.47c.18.42,0,.92-.41,1.12Z"/>
    <path class="cls-1" d="m84.28,78.34h5.37v2.54h-4.49c-.49,0-.88-.4-.88-.88v-1.65h0Z" transform="translate(51.88 192.17) rotate(-115.16)"/>
    <polygon class="cls-1" points="89.35 75.25 86.87 76.63 83.19 67.38 85.4 66.11 89.35 75.25"/>
    <polygon class="cls-1" points="85.4 66.09 83.16 67.38 82.39 65.6 83.08 64 84.77 64.6 85.4 66.09"/>
  </g>
  <g id="Lengan_Belakang_Kiri-2" data-name="Lengan Belakang Kiri">
    <path id="Lengan-2" data-name="Lengan" class="cls-1" d="m26.07,16.59c1.29,2.07,2.87,5.13,3.88,9.07,1.31,5.14,1.08,9.53.72,12.28-6.49,13.3-12.82,26.69-19.31,39.99l-7.87-3.97L26.07,16.59Z"/>
    <path class="cls-1" d="m2.3,79.77l1.33.67c1.5.76,3.33.16,4.09-1.34l1.19-2.36-5.07-2.56-1.94,4.47c-.18.42,0,.92.41,1.12Z"/>
    <path class="cls-1" d="m7.04,78.45h4.49v2.54h-5.37v-1.65c0-.49.4-.88.88-.88Z" transform="translate(-67.08 53.83) rotate(-64.84)"/>
    <polygon class="cls-1" points="6.46 75.35 8.94 76.74 12.62 67.49 10.4 66.22 6.46 75.35"/>
    <polygon class="cls-1" points="10.41 66.2 12.64 67.49 13.41 65.71 12.73 64.11 11.04 64.71 10.41 66.2"/>
  </g>
  <g id="Baju_Belakang" data-name="Baju Belakang">
    <path class="cls-1" d="m67.98,77.92c-13.37,8.09-26.69,8.13-39.98,0l2.66-39.99c.64-7.69-.38-14.94-4.59-21.34l13.68-5.56h16.77l13.23,5.45c-4.07,6.02-5.23,13.29-4.59,21.34l2.83,40.09Z"/>
    <path class="cls-1" d="m29.94,25.66c11.99-1.47,23.97-1.52,35.92-.11"/>
  </g>
  <polygon id="Kerah_Belakang" data-name="Kerah Belakang" class="cls-1" points="56.51 11.03 39.74 11.03 41.67 8 54.34 8 56.51 11.03"/>
</svg>