<?xml version="1.0" encoding="UTF-8"?>
<svg id="StandardFitKiri" xmlns="http://www.w3.org/2000/svg" viewBox="0 0 96 96">
  <defs>
    <style>
      .cls-1 {
        fill: #231f20;
        font-family: SFPro-Semibold, 'SF Pro';
        font-size: 4.49px;
        font-variation-settings: 'wdth' 100, 'opsz' 28, 'wght' 590;
        font-weight: 600;
      }

      .cls-2 {
        stroke: #ed1c24;
        stroke-dasharray: 0 1;
        stroke-width: .5px;
      }

      .cls-2, .cls-3 {
        fill: none;
        stroke-miterlimit: 10;
      }

      .cls-3 {
        stroke: #231f20;
        stroke-width: .25px;
      }
    </style>
  </defs>
  <g id="Kanan">
    <path class="cls-3" d="m30.51,29.83c4.13-1.38,6.67-4.03,6.72-8.68l.41-13,22.41-.47,5.43,16.07c-.85,7.04-1.81,14.86-2.82,23.08-1.36,8.88-2.09,18.9-2.47,29.57l-.42,9.88.06,2.05h-24.15l-.06-2.05-.42-9.88c-.16-9.8-.84-19.7-2.05-29.69l-2.65-16.88Z"/>
    <path class="cls-3" d="m31.52,30.53c4.05-1.14,6.48-4.03,6.65-9.33l.52-12.09,8.99-.18,11.67-.24,5.04,15.13-2.82,23.02-2.01,20.07-.81,19.4.04,2.02h-22.08l.07-2.01-.84-19.54c-.51-12.36-1.94-24.45-4.43-36.24Z"/>
    <line class="cls-3" x1="47.68" y1="8.92" x2="47.69" y2="88.32"/>
    <rect class="cls-3" x="36.79" y="86.31" width="22" height="2.01"/>
    <line class="cls-3" x1="35.49" y1="86.31" x2="36.29" y2="86.31"/>
    <line class="cls-3" x1="59.78" y1="86.27" x2="59.27" y2="86.31"/>
    <line class="cls-3" x1="35.95" y1="66.77" x2="36.42" y2="66.77"/>
    <line class="cls-3" x1="34.89" y1="66.81" x2="35.41" y2="66.77"/>
    <line class="cls-3" x1="59.56" y1="66.89" x2="59.08" y2="66.89"/>
    <line class="cls-3" x1="60.76" y1="66.89" x2="60.15" y2="66.89"/>
    <line class="cls-3" x1="65.49" y1="23.75" x2="65.01" y2="23.82"/>
    <line class="cls-3" x1="64.39" y1="23.81" x2="63.81" y2="23.82"/>
    <line class="cls-3" x1="37.24" y1="21.15" x2="37.65" y2="21.15"/>
    <line class="cls-3" x1="38.17" y1="21.19" x2="38.73" y2="21.19"/>
    <line class="cls-3" x1="47.69" y1="7.94" x2="47.69" y2="8.46"/>
    <line class="cls-3" x1="52.98" y1="7.88" x2="52.98" y2="8.32"/>
    <line class="cls-3" x1="53.62" y1="7.88" x2="53.62" y2="8.32"/>
    <polyline class="cls-3" points="52.98 8.87 53.51 17.23 53.62 8.92"/>
    <circle class="cls-3" cx="53.52" cy="17.09" r=".39"/>
    <circle class="cls-3" cx="53.68" cy="9.82" r=".23"/>
    <circle class="cls-3" cx="52.98" cy="9.82" r=".23"/>
    <rect class="cls-3" x="48.8" y="8.02" width="1.07" height="2.03"/>
    <line class="cls-3" x1="49.34" y1="8.02" x2="49.34" y2="8.46"/>
  </g>
  <g>
    <text class="cls-1" transform="translate(66.53 8.02)"><tspan x="0" y="0">A</tspan></text>
    <text class="cls-1" transform="translate(26.56 9.38)"><tspan x="0" y="0">B</tspan></text>
    <rect class="cls-2" x="30.56" y="7.51" width="34.98" height="80.44"/>
    <text class="cls-1" transform="translate(67.31 89.32)"><tspan x="0" y="0">C</tspan></text>
    <text class="cls-1" transform="translate(58.55 6.21)"><tspan x="0" y="0">E</tspan></text>
    <text class="cls-1" transform="translate(66.85 24.82)"><tspan x="0" y="0">I</tspan></text>
    <text class="cls-1" transform="translate(36.9 6.38)"><tspan x="0" y="0">F</tspan></text>
    <text class="cls-1" transform="translate(25.93 31.53)"><tspan x="0" y="0">J</tspan></text>
    <text class="cls-1" transform="translate(25.93 89.37)"><tspan x="0" y="0">D</tspan></text>
  </g>
</svg>