<?xml version="1.0" encoding="UTF-8"?>
<svg id="Layer_12" data-name="Layer 12" xmlns="http://www.w3.org/2000/svg" viewBox="0 0 96 96">
  <defs>
    <style>
      .cls-1 {
        fill: none;
        stroke: #231f20;
        stroke-miterlimit: 10;
        stroke-width: .5px;
      }
    </style>
  </defs>
  <polyline class="cls-1" points="54.09 8.15 56.49 11.38 68.58 16.64 84.92 57.9 76.52 60.95 64.52 36.95"/>
  <polyline class="cls-1" points="42.18 8.43 39.69 11.47 27.6 16.27 11.63 57.26 20.12 61.23 31.47 36.95"/>
  <path class="cls-1" d="m68.43,16.6c-2.26,3.84-3.1,8.34-3.61,12.76-1.54,13.39-.41,26.94.72,40.37.13,1.59.27,3.18.4,4.77"/>
  <path class="cls-1" d="m66.14,74.46c-2.57.97-3.99,3.64-5.91,5.6-3.11,3.18-7.7,4.55-12.15,4.62-1.68.03-3.38-.12-4.98-.65-5.09-1.7-8.21-6.96-13.06-9.27"/>
  <path class="cls-1" d="m27.61,16.29c2.34,2.99,3.56,6.73,4.08,10.49s.36,7.58.21,11.37c-.5,12.28-.99,24.56-1.49,36.84"/>
  <line class="cls-1" x1="41.99" y1="8.53" x2="54.29" y2="8.31"/>
  <line class="cls-1" x1="39.84" y1="11.45" x2="56.56" y2="11.33"/>
  <line class="cls-1" x1="31.28" y1="24.74" x2="65.34" y2="24.74"/>
</svg>