<?xml version="1.0" encoding="UTF-8"?>
<svg xmlns="http://www.w3.org/2000/svg" viewBox="0 0 96 96">
  <defs>
    <style>
      .cls-1 {
        fill: none;
        stroke: #020202;
        stroke-miterlimit: 10;
        stroke-width: .5px;
      }
    </style>
  </defs>
  <g id="Layer_12" data-name="Layer 12">
    <polyline class="cls-1" points="54.37 8.65 56.3 12.19 69.38 17.66 92.27 75.78 94.6 80.58 87.26 83.92 84.53 78.98 92.4 75.65"/>
    <line class="cls-1" x1="84.53" y1="78.91" x2="65.31" y2="38.21"/>
    <polyline class="cls-1" points="41.56 8.58 39.28 12.42 26.63 17.71 3.61 75.36 1.13 81.06 9.01 83.96 11.18 78.88 3.92 75.46"/>
  </g>
  <g id="Layer_13" data-name="Layer 13">
    <polyline class="cls-1" points="6.3 76.36 10.6 65.51 12.66 64.95 13.45 66.61 8.84 77.7"/>
    <polyline class="cls-1" points="87.17 77.58 82.7 67.3 82.7 67.26 83.18 65.02 85.61 66.09 89.89 76.53"/>
    <line class="cls-1" x1="83.29" y1="68.8" x2="86.13" y2="67.63"/>
    <line class="cls-1" x1="39.28" y1="12.3" x2="56.56" y2="12.32"/>
    <line class="cls-1" x1="41.29" y1="8.77" x2="54.64" y2="8.77"/>
    <line class="cls-1" x1="29.74" y1="26.52" x2="66.37" y2="26.32"/>
    <line class="cls-1" x1="28.46" y1="79.8" x2="67.02" y2="79.64"/>
    <path class="cls-1" d="m26.96,17.86c2.65,4.88,3.25,10.59,3.67,16.13,1.16,15.3,1.29,30.85-2.12,45.8"/>
    <line class="cls-1" x1="11.18" y1="78.68" x2="30.88" y2="37.65"/>
    <path class="cls-1" d="m69.35,17.86c-4.56,9.12-4.78,19.76-4.64,29.97.14,10.64.58,21.3,2.23,31.81"/>
    <line class="cls-1" x1="89.66" y1="82.82" x2="87.17" y2="77.58"/>
    <line class="cls-1" x1="10" y1="67.11" x2="12.83" y2="68.35"/>
    <line class="cls-1" x1="6.68" y1="83.04" x2="8.99" y2="77.34"/>
  </g>
</svg>