<?xml version="1.0" encoding="UTF-8"?>
<svg id="SlimFitKananDepan" xmlns="http://www.w3.org/2000/svg" viewBox="0 0 96 96">
  <defs>
    <style>
      .cls-1 {
        fill: #231f20;
        font-family: SFPro-Semibold, 'SF Pro';
        font-size: 4.49px;
        font-variation-settings: 'wdth' 100, 'opsz' 28, 'wght' 590;
        font-weight: 600;
      }

      .cls-2 {
        stroke: #ed1c24;
        stroke-dasharray: 0 1;
        stroke-width: .5px;
      }

      .cls-2, .cls-3 {
        fill: none;
        stroke-miterlimit: 10;
      }

      .cls-3 {
        stroke: #010101;
        stroke-width: .25px;
      }
    </style>
  </defs>
  <g id="Baju">
    <path class="cls-3" d="m41.18,12l16.09-5.57c1,4.85,3.19,7.98,7.59,7.91h5.43s-.04,75.25-.04,75.25l-44.54-.06,1.45-11.16,1.01.04,2.79-19.15c.92-3.77,1.06-7.4,0-10.81l-2.79-11.52c7.84-1.32,14.18-13.27,13-24.94Z"/>
    <path class="cls-3" d="m70.29,15.3h-5.03c-4.93.41-7.54-2.52-8.78-7.41l-14.31,4.62c1.01,11.94-5.26,22.96-12.53,25.33l2.68,10.93c.75,3.66.64,7.21-.16,10.67l-4.31,27.96h42.41"/>
    <rect class="cls-3" x="65" y="15.3" width="2.78" height="72.11"/>
    <rect class="cls-3" x="62.28" y="15.3" width="2.72" height="72.11"/>
    <line class="cls-3" x1="62.28" y1="88.48" x2="62.28" y2="89.59"/>
    <line class="cls-3" x1="63.33" y1="88.48" x2="63.33" y2="89.45"/>
    <line class="cls-3" x1="63.41" y1="86.76" x2="63.41" y2="87.4"/>
    <line class="cls-3" x1="65" y1="88.56" x2="65" y2="89.58"/>
    <line class="cls-3" x1="67.78" y1="88.56" x2="67.78" y2="89.45"/>
    <line class="cls-3" x1="63.46" y1="14.24" x2="63.46" y2="14.72"/>
    <line class="cls-3" x1="63.46" y1="15.3" x2="63.46" y2="15.7"/>
    <line class="cls-3" x1="65" y1="14.33" x2="65" y2="14.91"/>
    <circle class="cls-3" cx="63.41" cy="20.44" r=".38"/>
    <circle class="cls-3" cx="63.41" cy="29.95" r=".38"/>
    <circle class="cls-3" cx="63.39" cy="39.19" r=".38"/>
    <circle class="cls-3" cx="63.39" cy="48.53" r=".38"/>
    <circle class="cls-3" cx="63.39" cy="57.78" r=".38"/>
    <circle class="cls-3" cx="63.39" cy="67.14" r=".38"/>
    <circle class="cls-3" cx="63.39" cy="76.43" r=".38"/>
    <line class="cls-3" x1="35.83" y1="31.82" x2="36.12" y2="32.12"/>
    <line class="cls-3" x1="36.65" y1="32.47" x2="37.02" y2="32.86"/>
    <line class="cls-3" x1="31.63" y1="55.42" x2="32.16" y2="55.42"/>
    <line class="cls-3" x1="32.76" y1="55.42" x2="33.26" y2="55.42"/>
    <line class="cls-3" x1="29.22" y1="78.44" x2="29.89" y2="78.44"/>
  </g>
  <g>
    <polygon class="cls-2" points="27.83 37.02 41 37.02 41.18 6.64 28.04 6.64 27.83 37.02"/>
    <polyline class="cls-2" points="70.29 15.18 70.29 6.64 42.2 6.64"/>
    <text class="cls-1" transform="translate(23.38 8.84)"><tspan x="0" y="0">A</tspan></text>
    <text class="cls-1" transform="translate(70.2 8.13)"><tspan x="0" y="0">B</tspan></text>
    <text class="cls-1" transform="translate(21.24 89.97)"><tspan x="0" y="0">C</tspan></text>
    <text class="cls-1" transform="translate(71.74 90.98)"><tspan x="0" y="0">D</tspan></text>
    <text class="cls-1" transform="translate(55.23 5.67)"><tspan x="0" y="0">E</tspan></text>
    <text class="cls-1" transform="translate(43.85 38.44)"><tspan x="0" y="0">H</tspan></text>
    <text class="cls-1" transform="translate(23.73 38.92)"><tspan x="0" y="0">G</tspan></text>
    <text class="cls-1" transform="translate(41.01 4.97)"><tspan x="0" y="0">C</tspan></text>
    <text class="cls-1" transform="translate(37.18 13.46)"><tspan x="0" y="0">D</tspan></text>
  </g>
</svg>