<?xml version="1.0" encoding="UTF-8"?>
<svg xmlns="http://www.w3.org/2000/svg" viewBox="0 0 96 96">
  <defs>
    <style>
      .cls-1 {
        fill: #fff;
      }

      .cls-1, .cls-2 {
        stroke: #231f20;
        stroke-miterlimit: 10;
        stroke-width: .5px;
      }

      .cls-2 {
        fill: none;
      }
    </style>
  </defs>
  <g id="ClassicFit_LongSleeve_ClassicCollar_Depan" data-name="ClassicFit/LongSleeve/ClassicCollar/Depan">
    <circle class="cls-1" cx="48.2" cy="22.2" r=".47"/>
    <circle class="cls-1" cx="48.16" cy="30.5" r=".47"/>
    <circle class="cls-1" cx="48.2" cy="38.7" r=".47"/>
    <circle class="cls-1" cx="48.2" cy="46.77" r=".47"/>
    <circle class="cls-1" cx="48.2" cy="55.12" r=".47"/>
    <circle class="cls-1" cx="48.16" cy="63.28" r=".47"/>
  </g>
  <g id="Layer_12" data-name="Layer 12">
    <polyline class="cls-2" points="53.82 8.35 56.11 11.51 68.36 16.64 76.82 37.76 66.78 42.4 63.81 36.41"/>
    <line class="cls-2" x1="54.02" y1="8.39" x2="42.49" y2="8.3"/>
    <polyline class="cls-2" points="42.52 8.11 39.47 11.46 27.85 16.53 18.94 37.73 28.97 42.05 32.11 35.78"/>
    <path class="cls-2" d="m67.93,16.57c-3.25,5.19-3.81,11.58-4.04,17.69-.49,13.24.19,26.52,2.03,39.64"/>
    <path class="cls-2" d="m28.25,16.43c3.58,7.91,4.12,16.84,4.13,25.52,0,10.69-.72,21.38-2.18,31.97"/>
    <path class="cls-2" d="m65.9,73.9c-3.93-.94-7.73,1.67-11.65,2.68-2.75.72-5.65.64-8.49.5-1.95-.09-3.92-.21-5.78-.81-1.54-.49-2.97-1.31-4.52-1.77-1.66-.49-3.42-.57-5.15-.64"/>
    <path class="cls-2" d="m65.94,73.56c-3.36,2.3-5.69,5.94-9.19,8.02-4.18,2.48-9.42,2.37-14.15,1.27-1.7-.39-3.39-.91-4.85-1.86-1.04-.68-1.94-1.56-2.83-2.43-1.62-1.59-3.25-3.18-4.68-4.94"/>
    <path class="cls-2" d="m53.88,8.43c-.46,2.22-1.65,4.27-3.35,5.77-.72.63-1.6,1.19-2.55,1.13-.39-.02-.76-.15-1.12-.3-2.66-1.13-4.55-3.9-4.62-6.8"/>
    <path class="cls-2" d="m56.06,11.48c-.06,1.39-.55,2.74-1.27,3.93s-1.64,2.25-2.61,3.25c-.33-1.1-1.01-2.11-1.97-2.73s-2.23-.8-3.29-.37c-.93.38-1.62,1.18-2.28,1.95-.26.3-.52.61-.77.91-1.86-2.1-3.36-4.52-4.41-7.13"/>
    <path class="cls-2" d="m45.04,17.27c.63.35,1.38.4,2.1.44.26.02.53.03.79.03.79,0,1.58-.1,2.33-.32.37-.11.77-.27.92-.62"/>
    <path class="cls-2" d="m47.87,15.3c-.45.17-.81.57-.94,1.04-.06.23-.07.48-.08.72,0,.17-.01.34-.02.52"/>
    <line class="cls-2" x1="49.42" y1="17.7" x2="49.55" y2="77.23"/>
    <line class="cls-2" x1="46.98" y1="17.73" x2="46.81" y2="76.97"/>
    <line class="cls-2" x1="42.4" y1="9.47" x2="53.73" y2="9.49"/>
  </g>
</svg>