<?xml version="1.0" encoding="UTF-8"?>
<svg xmlns="http://www.w3.org/2000/svg" viewBox="0 0 96 96">
  <defs>
    <style>
      .cls-1 {
        fill: #fff;
      }

      .cls-1, .cls-2 {
        stroke: #231f20;
        stroke-miterlimit: 10;
        stroke-width: .5px;
      }

      .cls-2 {
        fill: none;
      }
    </style>
  </defs>
  <g id="ClassicFit_LongSleeve_ClassicCollar_Depan" data-name="ClassicFit/LongSleeve/ClassicCollar/Depan">
    <circle class="cls-1" cx="47.72" cy="23.48" r=".47"/>
    <circle class="cls-1" cx="47.95" cy="32.48" r=".47"/>
    <circle class="cls-1" cx="47.91" cy="41.63" r=".47"/>
    <circle class="cls-1" cx="47.91" cy="50.78" r=".47"/>
    <circle class="cls-1" cx="47.91" cy="59.73" r=".47"/>
    <circle class="cls-1" cx="47.91" cy="68.78" r=".47"/>
  </g>
  <g id="Layer_12" data-name="Layer 12">
    <path class="cls-2" d="m69.75,17.62c-1.55,3.22-2.76,6.6-3.6,10.08-1.63,6.76-1.86,13.78-1.76,20.73.16,10.98,1.14,21.94,2.91,32.77"/>
    <path class="cls-2" d="m25.62,17.14c4.55,7.69,5.34,17.03,5.42,25.99.11,12.76-1.02,25.53-3.35,38.07"/>
    <line class="cls-2" x1="27.46" y1="81.23" x2="67.56" y2="81.18"/>
    <polyline class="cls-2" points="41.4 8.1 54.13 8 56.83 11.42 70.26 17.77 88.3 62.17 78.49 66.58 64.66 37.56"/>
    <polyline class="cls-2" points="41.58 8.14 38.86 11.15 25.12 17.41 6.95 62.42 16.69 66.45 30.85 38.39"/>
    <path class="cls-2" d="m41.63,8.35c.25,2.16,1.16,4.31,2.84,5.68s4.22,1.78,6.07.65c1.1-.67,1.86-1.79,2.41-2.96s.93-2.41,1.47-3.58"/>
    <path class="cls-2" d="m38.93,11.23c.93,3.36,1.87,6.72,2.8,10.08,1.25-1.99,2.57-4.04,4.52-5.35.49-.33,1.03-.61,1.62-.67,1.43-.16,2.69.97,3.44,2.2s1.24,2.64,2.23,3.68c1.38-3.15,2.53-6.41,3.42-9.73"/>
    <path class="cls-2" d="m44.09,17.92c.94.55,2.08.58,3.17.61,1.5.03,3.03.07,4.48-.32"/>
    <line class="cls-2" x1="49.23" y1="18.63" x2="49.23" y2="81.09"/>
    <line class="cls-2" x1="46.31" y1="18.84" x2="46.59" y2="81.16"/>
    <path class="cls-2" d="m48.05,15.34c-.61.06-1.17.46-1.42,1.01-.19.4-.22.86-.24,1.31-.03.48-.06.96-.08,1.43"/>
    <line class="cls-2" x1="41.78" y1="9.04" x2="53.97" y2="9.02"/>
    <line class="cls-2" x1="42.66" y1="12.02" x2="52.77" y2="12"/>
  </g>
</svg>