<?xml version="1.0" encoding="UTF-8"?>
<svg id="Layer_12" data-name="Layer 12" xmlns="http://www.w3.org/2000/svg" viewBox="0 0 96 96">
  <defs>
    <style>
      .cls-1 {
        fill: none;
        stroke: #231f20;
        stroke-miterlimit: 10;
        stroke-width: .5px;
      }
    </style>
  </defs>
  <polyline class="cls-1" points="54 7.94 56 10.64 68.42 16.16 89.97 70.46 91.94 75.47 85.13 78.44 82.8 74.08 89.97 70.46"/>
  <line class="cls-1" x1="82.8" y1="74.05" x2="63.93" y2="34.45"/>
  <polyline class="cls-1" points="42.38 7.77 40.28 10.54 28.11 15.87 6.1 70.54 4.69 75.33 11.15 78.42 13.66 73.73 6.06 70.27"/>
  <line class="cls-1" x1="32.14" y1="35.09" x2="13.74" y2="73.59"/>
  <path class="cls-1" d="m68.09,15.92c-3.41,7.73-4.32,16.33-4.38,24.77-.08,11.11,1.24,22.17,2.56,33.2"/>
  <path class="cls-1" d="m27.98,16.1c2.49,4.4,3.36,9.52,3.83,14.55.72,7.74.59,15.54.09,23.3-.43,6.81-1.14,13.6-2.09,20.35"/>
  <line class="cls-1" x1="42.18" y1="7.89" x2="54.23" y2="7.95"/>
  <line class="cls-1" x1="39.46" y1="10.87" x2="56.64" y2="10.9"/>
  <line class="cls-1" x1="31.03" y1="24.35" x2="65.39" y2="24.17"/>
  <path class="cls-1" d="m66.49,73.59c-.57.11-1.03.53-1.45.94-1.71,1.67-3.3,3.46-5.09,5.03s-3.8,2.94-6.07,3.6c-1.72.5-3.52.56-5.3.59-3.9.04-8.06-.22-11.21-2.57-2.76-2.07-4.42-5.53-7.44-7.23l.02-.04"/>
  <polyline class="cls-1" points="85.17 72.88 80.78 62.45 81.37 60.77 83.08 61.53 87.33 71.69"/>
  <line class="cls-1" x1="81.35" y1="63.95" x2="83.76" y2="63.03"/>
  <path class="cls-1" d="m85.21,72.98c.21.73.47,1.45.79,2.14.3.65.66,1.31,1.24,1.73.25.18.54.31.84.29"/>
  <polyline class="cls-1" points="9.06 71.48 13.43 61.48 15.09 60.91 15.73 62.58 11.38 72.76"/>
  <line class="cls-1" x1="12.74" y1="63.21" x2="15.08" y2="64.07"/>
  <path class="cls-1" d="m11.38,72.7l-1.13,2.85c-.14.34-.28.7-.53.97-.43.48-1.18.63-1.77.37"/>
</svg>