<?xml version="1.0" encoding="UTF-8"?>
<svg id="Layer_12" data-name="Layer 12" xmlns="http://www.w3.org/2000/svg" viewBox="0 0 96 96">
  <defs>
    <style>
      .cls-1 {
        fill: #fff;
        stroke: #231f20;
        stroke-miterlimit: 10;
        stroke-width: .5px;
      }
    </style>
  </defs>
  <line class="cls-1" x1="41.17" y1="8.87" x2="54.56" y2="8.9"/>
  <line class="cls-1" x1="54.37" y1="8.96" x2="57.14" y2="12.79"/>
  <line class="cls-1" x1="56.84" y1="12.53" x2="70.73" y2="18.69"/>
  <line class="cls-1" x1="70.63" y1="18.64" x2="80.45" y2="42.29"/>
  <polyline class="cls-1" points="41.31 8.8 38.54 12.63 25.27 18.44"/>
  <path class="cls-1" d="m70.3,18.72c-3.26,6.55-4.43,13.94-4.97,21.24-.88,11.69-.27,23.48,1.8,35.02.51,2.82,1.1,5.66.86,8.51"/>
  <polyline class="cls-1" points="80.28 42.2 69.59 47.14 65.55 38.31"/>
  <path class="cls-1" d="m25.46,18.35c1.53,1.92,2.2,4.37,2.72,6.77,4.19,19.1,1.96,38.95-.38,58.36"/>
  <polyline class="cls-1" points="25.48 18.48 14.89 42.3 26.44 46.98"/>
  <line class="cls-1" x1="30.09" y1="36.94" x2="26.37" y2="47.14"/>
  <line class="cls-1" x1="38.5" y1="12.88" x2="56.62" y2="12.86"/>
  <line class="cls-1" x1="27.6" y1="83.32" x2="68.03" y2="83.32"/>
  <line class="cls-1" x1="28.65" y1="27.09" x2="67.08" y2="27.07"/>
</svg>