<?xml version="1.0" encoding="UTF-8"?>
<svg id="Layer_12" data-name="Layer 12" xmlns="http://www.w3.org/2000/svg" viewBox="0 0 96 96">
  <defs>
    <style>
      .cls-1 {
        fill: none;
        stroke: #231f20;
        stroke-miterlimit: 10;
        stroke-width: .5px;
      }
    </style>
  </defs>
  <polyline class="cls-1" points="40.99 8.46 54.02 8.49 56.17 11.65"/>
  <line class="cls-1" x1="56.04" y1="11.76" x2="70.14" y2="17.78"/>
  <polyline class="cls-1" points="69.97 17.73 80.46 41.67 68.9 46.62"/>
  <path class="cls-1" d="m70.3,18.09c-4.96,9.87-6.19,21.22-5.87,32.27s2.1,21.99,2.81,33.01"/>
  <line class="cls-1" x1="69.06" y1="46.62" x2="64.75" y2="39.38"/>
  <polyline class="cls-1" points="41.1 8.41 38.44 11.86 24.91 17.52"/>
  <polyline class="cls-1" points="25.08 17.44 14.55 41.78 25.88 46.67"/>
  <path class="cls-1" d="m25.22,17.68c4.59,9.3,4.86,20.06,5.04,30.43.08,4.7.16,9.42-.32,14.09-.29,2.77-.77,5.51-1.18,8.26-.64,4.23-1.12,8.49-1.45,12.75"/>
  <line class="cls-1" x1="27.45" y1="83.17" x2="67.26" y2="83.41"/>
  <line class="cls-1" x1="30" y1="38.34" x2="25.65" y2="46.74"/>
  <line class="cls-1" x1="38.52" y1="12.17" x2="56.31" y2="12.13"/>
  <line class="cls-1" x1="28.66" y1="27.18" x2="66.68" y2="27.56"/>
</svg>