<?xml version="1.0" encoding="UTF-8"?>
<svg xmlns="http://www.w3.org/2000/svg" viewBox="0 0 96 96">
  <defs>
    <style>
      .cls-1 {
        fill: #fff;
      }

      .cls-1, .cls-2 {
        stroke: #231f20;
        stroke-miterlimit: 10;
        stroke-width: .5px;
      }

      .cls-2 {
        fill: none;
      }
    </style>
  </defs>
  <g id="ClassicFit_LongSleeve_ClassicCollar_Depan" data-name="ClassicFit/LongSleeve/ClassicCollar/Depan">
    <circle class="cls-1" cx="48.32" cy="24.34" r=".47"/>
    <circle class="cls-1" cx="48.32" cy="33.84" r=".47"/>
    <circle class="cls-1" cx="48.32" cy="42.87" r=".47"/>
    <circle class="cls-1" cx="48.32" cy="52.24" r=".47"/>
    <circle class="cls-1" cx="48.32" cy="61.51" r=".47"/>
    <circle class="cls-1" cx="48.32" cy="70.71" r=".47"/>
    <line class="cls-1" x1="42.25" y1="9.84" x2="54.43" y2="9.81"/>
    <line class="cls-1" x1="42.85" y1="12.67" x2="53.37" y2="12.73"/>
  </g>
  <g id="Layer_12" data-name="Layer 12">
    <polyline class="cls-2" points="41.8 8.45 54.56 8.52 57.34 12.25 71.03 18.18 89.72 64.4 79.63 68.55 66.31 39.93"/>
    <polyline class="cls-2" points="42.07 8.46 38.97 11.89 25.28 17.99 5.99 64.64 16.39 68.85 30.14 39.64"/>
    <path class="cls-2" d="m70.83,18.28c-1.29,1.4-1.91,3.28-2.39,5.12-2.25,8.58-2.35,17.56-2.33,26.43.03,11.26.24,22.59,2.24,33.67"/>
    <path class="cls-2" d="m25.96,18.13c2.94,7.76,4.01,16.12,4.28,24.41.46,13.83-1.19,27.63-2.85,41.36"/>
    <line class="cls-2" x1="27.51" y1="83.69" x2="68.45" y2="83.52"/>
    <path class="cls-2" d="m44.51,18.69c2.3,1,5.01,1.04,7.34.11"/>
    <line class="cls-2" x1="49.66" y1="19.61" x2="49.87" y2="83.85"/>
    <line class="cls-2" x1="46.97" y1="19.49" x2="46.82" y2="83.6"/>
    <path class="cls-2" d="m46.95,19.42c-.08-.52-.13-1.04-.04-1.56s.34-1.02.77-1.31c.55-.38,1.31-.34,1.92-.06s1.1.76,1.55,1.25c.69.74,1.33,1.52,1.92,2.34,2.1-2.18,3.59-4.93,4.28-7.88"/>
    <path class="cls-2" d="m54.43,8.61c.29,1.41-.11,2.91-.89,4.12s-1.94,2.14-3.2,2.85c-.85.48-1.8.87-2.77.77-1.05-.11-1.95-.79-2.78-1.44-.55-.43-1.1-.86-1.5-1.43-.55-.79-.76-1.76-.93-2.71-.14-.74-.26-1.48-.37-2.23"/>
    <path class="cls-2" d="m38.9,12c.96,3.02,2.53,5.83,4.57,8.21,1.04-1.66,2.35-3.28,4.16-3.94.14-.05.34-.06.37.09"/>
  </g>
</svg>