<?xml version="1.0" encoding="UTF-8"?>
<svg id="Layer_12" data-name="Layer 12" xmlns="http://www.w3.org/2000/svg" viewBox="0 0 96 96">
  <defs>
    <style>
      .cls-1 {
        fill: #fff;
      }

      .cls-1, .cls-2 {
        stroke: #231f20;
        stroke-miterlimit: 10;
        stroke-width: .5px;
      }

      .cls-2 {
        fill: none;
      }
    </style>
  </defs>
  <circle class="cls-1" cx="48" cy="67.17" r=".47"/>
  <circle class="cls-1" cx="48" cy="23.45" r=".47"/>
  <circle class="cls-1" cx="48" cy="32.29" r=".47"/>
  <circle class="cls-1" cx="48" cy="41.09" r=".47"/>
  <circle class="cls-1" cx="48" cy="47.87" r=".47"/>
  <circle class="cls-1" cx="48" cy="58.35" r=".47"/>
  <path class="cls-2" d="m64.98,39.05l12.24,25.74,9.25-4-17.57-43.39-.25-.08-12.16-5.5s-2.75-2.83-2.73-2.75c-.09,2.95-2.1,5.76-4.87,6.79,1.11.4,1.92,1.36,2.59,2.33.76,1.12,1.41,2.31,1.92,3.57,1.07-3.33,2.07-6.68,3-10.05"/>
  <path class="cls-2" d="m38.28,12.41c1.44,2.96,2.9,5.94,3.89,9.08.24-.61.58-1.18.93-1.74.93-1.51,1.92-3.09,3.49-3.92-2.45-1.09-3.96-3.55-5.19-5.93-.05-.11-.11-.22-.1-.34s.13-.23.24-.2"/>
  <polyline class="cls-2" points="41.41 9.15 38.16 12.56 26.5 17.48 8.59 60.79 17.92 65.04 30.33 38.88"/>
  <path class="cls-2" d="m69.18,17.59c-4.94,9.13-4.47,20.12-3.86,30.49.45,7.71.9,15.43,1.35,23.14.14,2.41.29,4.86,1.08,7.15"/>
  <path class="cls-2" d="m26.41,17.57c1.22,1.38,1.9,3.15,2.45,4.92,1.09,3.52,1.73,7.18,1.89,10.86.12,2.63,0,5.27-.14,7.9-.68,12.5-1.88,24.97-3.6,37.37"/>
  <path class="cls-2" d="m67.92,78.22c-2.1.53-3.96,1.72-5.89,2.69-5.47,2.72-11.74,3.69-17.82,3.14-6.08-.56-11.98-2.61-17.3-5.61"/>
  <line class="cls-2" x1="29.1" y1="59.62" x2="28.53" y2="79.12"/>
  <line class="cls-2" x1="66.21" y1="64.46" x2="66.24" y2="78.8"/>
  <path class="cls-2" d="m66.25,79.11c-1.23-.2-2.45.3-3.6.73-5.34,1.99-11.29,2.7-17.13,2.4-5.83-.3-11.55-1.58-16.97-3.43"/>
  <line class="cls-2" x1="49.24" y1="18.72" x2="49.45" y2="82.22"/>
  <line class="cls-2" x1="46.52" y1="18.72" x2="46.45" y2="81.81"/>
  <line class="cls-2" x1="41.25" y1="9.29" x2="54.05" y2="9.01"/>
  <path class="cls-2" d="m44.33,18.2c2.24.87,4.85.72,6.98-.4"/>
  <path class="cls-2" d="m46.2,16.06c.7-.31,1.5-.44,2.27-.36.3.03.63.11.78.35"/>
  <path class="cls-2" d="m46.53,18.78c0-.72.09-1.44.26-2.14.08-.31.18-.62.39-.86"/>
  <line class="cls-2" x1="41.47" y1="10.29" x2="53.89" y2="10.23"/>
</svg>