<?xml version="1.0" encoding="UTF-8"?>
<svg id="Layer_21" data-name="Layer 21" xmlns="http://www.w3.org/2000/svg" viewBox="0 0 96 96">
  <defs>
    <style>
      .cls-1 {
        fill: none;
        stroke: #010101;
        stroke-miterlimit: 10;
        stroke-width: .5px;
      }
    </style>
  </defs>
  <g>
    <g id="Baju_Belakang" data-name="Baju Belakang">
      <path class="cls-1" d="m68.08,77.92c-13.37,8.09-26.69,8.13-39.98,0l2.66-39.99c.64-7.69-.38-14.94-4.59-21.34l13.68-5.56h16.77l13.23,5.45c-4.07,6.02-5.23,13.29-4.59,21.34l2.83,40.09Z"/>
      <path class="cls-1" d="m30.04,25.66c11.99-1.47,23.97-1.52,35.92-.11"/>
    </g>
    <polygon id="Kerah_Belakang" data-name="Kerah Belakang" class="cls-1" points="56.61 11.03 39.84 11.03 41.76 8 54.43 8 56.61 11.03"/>
  </g>
  <g id="Lengan">
    <path id="Kanan" class="cls-1" d="m69.84,16.48l17.57,42.89-9.62,4.09-12.54-25.63c-.62-8.42.67-15.68,4.59-21.34Z"/>
    <path id="Kiri" class="cls-1" d="m26.19,16.63L8.62,59.51l9.62,4.09,12.54-25.63c.62-8.42-.67-15.68-4.59-21.34Z"/>
  </g>
</svg>