<?xml version="1.0" encoding="UTF-8"?>
<svg id="ClassicFit_LongSleeve_ClassicCollar_Depan" data-name="ClassicFit/LongSleeve/ClassicCollar/Depan" xmlns="http://www.w3.org/2000/svg" viewBox="0 0 96 96">
  <defs>
    <style>
      .cls-1 {
        fill: none;
        stroke: #231f20;
        stroke-miterlimit: 10;
        stroke-width: .5px;
      }
    </style>
  </defs>
  <line class="cls-1" x1="83.46" y1="67.83" x2="85.81" y2="67.01"/>
  <polyline class="cls-1" points="89.45 81.34 87.96 78.71 88.78 76.55 87.24 77.22 82.64 66.06 83.46 64.52 85.18 65.19 89.74 75.78"/>
  <line class="cls-1" x1="10.01" y1="66.95" x2="12.37" y2="67.98"/>
  <path class="cls-1" d="m27.43,78.43c1-8.18,2-16.35,2.99-24.53"/>
  <path class="cls-1" d="m65.83,53.79c.65,8.21,1.6,16.39,2.79,24.53v-.08"/>
  <path class="cls-1" d="m26.71,16.41c4.06,9.69,4.68,20.5,4.22,31.01-.46,10.51-1.94,20.97-1.86,31.49"/>
  <line class="cls-1" x1="84.92" y1="78.16" x2="65.43" y2="37.63"/>
  <polyline class="cls-1" points="54.03 7.92 56.34 10.85 69.5 16.7 92.54 74.81 94.33 79.05 87.03 82.49 84.87 78.16 92.54 74.86"/>
  <line class="cls-1" x1="11.04" y1="78.52" x2="30.99" y2="37.5"/>
  <polyline class="cls-1" points="41.62 7.94 39.32 10.99 26.59 16.52 3.41 75.49 1.62 79.12 8.83 82.16 10.92 78.29 3.59 75.43"/>
  <path class="cls-1" d="m69.44,16.83c-2.41,4.56-3.56,9.71-3.99,14.86-.43,5.15-.16,10.32.11,15.48.55,10.59,1.11,21.18,1.66,31.78"/>
  <path class="cls-1" d="m29.64,25.77c2.09-.17,4.19-.34,6.28-.51,1.15-.09,2.3-.19,3.46-.26,8.93-.61,17.92-.37,26.81.7"/>
  <path class="cls-1" d="m39.27,11.09c2.96.08,5.92.17,8.89.25,1.19.03,2.38.07,3.58,0,1.6-.08,3.19-.34,4.79-.38"/>
  <path class="cls-1" d="m41.47,7.9c4.27-.05,8.54-.02,12.81.09"/>
  <path class="cls-1" d="m27.38,78.42c.97.05,1.8.65,2.61,1.19,3.42,2.31,7.28,3.98,11.31,4.89,1.58.36,3.18.6,4.8.63,2.46.04,4.91-.4,7.32-.93,5.31-1.16,10.67-2.76,15.04-6"/>
  <polyline class="cls-1" points="6.63 81.15 8.13 78.47 7.36 76.84 6.04 76.34 10.62 65.24 12.34 64.52 13.11 66.15 8.58 77.02"/>
</svg>