<?xml version="1.0" encoding="UTF-8"?>
<svg id="Layer_12" data-name="Layer 12" xmlns="http://www.w3.org/2000/svg" viewBox="0 0 96 96">
  <defs>
    <style>
      .cls-1, .cls-2 {
        fill: #fff;
      }

      .cls-1, .cls-2, .cls-3 {
        stroke-miterlimit: 10;
        stroke-width: .5px;
      }

      .cls-1, .cls-3 {
        stroke: #231f20;
      }

      .cls-2 {
        stroke: #000;
      }

      .cls-3 {
        fill: none;
      }
    </style>
  </defs>
  <circle class="cls-1" cx="48.65" cy="24.28" r=".47"/>
  <circle class="cls-1" cx="48.65" cy="33.78" r=".47"/>
  <circle class="cls-1" cx="48.65" cy="42.78" r=".47"/>
  <circle class="cls-1" cx="48.65" cy="52.53" r=".47"/>
  <circle class="cls-1" cx="48.65" cy="61.53" r=".47"/>
  <circle class="cls-1" cx="48.65" cy="71.03" r=".47"/>
  <line class="cls-1" x1="16.43" y1="68.71" x2="31.17" y2="39.56"/>
  <line class="cls-2" x1="31.23" y1="39.43" x2="16.3" y2="68.77"/>
  <path class="cls-3" d="m71.19,18.4c-4.71,9.28-5.3,20-5.19,30.36.12,11.63,1,23.26,2.65,34.79"/>
  <path class="cls-3" d="m25.53,17.7c2.91,2.86,3.96,7.02,4.58,11.01,2.84,18.13-.66,36.55-1.92,54.84"/>
  <line class="cls-3" x1="28.11" y1="83.47" x2="68.63" y2="83.38"/>
  <line class="cls-3" x1="80.06" y1="68.82" x2="66.26" y2="39.51"/>
  <path class="cls-3" d="m42.3,8.87c.41,1.39.89,2.78,1.64,4.01s1.8,2.32,3.11,2.91,2.89.62,4.13-.1c.73-.42,1.3-1.07,1.8-1.75,1.05-1.43,1.83-3.05,2.29-4.77"/>
  <line class="cls-3" x1="50.09" y1="18.58" x2="50.09" y2="83.68"/>
  <line class="cls-3" x1="47.2" y1="18.53" x2="47.08" y2="82.96"/>
  <line class="cls-3" x1="42.08" y1="8.97" x2="55.38" y2="9.05"/>
  <polyline class="cls-3" points="42.3 8.94 38.91 12.2 25.69 17.99 6.68 64.5 16.52 68.8"/>
  <polyline class="cls-3" points="55.23 8.94 58.58 12.38 71.85 18.61 90.35 64.42 80 68.57"/>
  <path class="cls-3" d="m58.63,12.38c.04,2.07,0,4.14-.14,6.2l-2.29-1.31c-1.08-.62-2.18-1.24-3.4-1.46-.64-.11-1.3-.11-1.95-.11-.77,0-1.53,0-2.3.01-.99,0-1.98.01-2.96.13-2.42.29-4.72,1.24-6.8,2.5.22-1.99.31-4,.29-6"/>
  <path class="cls-3" d="m47.21,18.46c.02-.54.08-1.08.2-1.61.09-.4.22-.81.53-1.07"/>
  <line class="cls-3" x1="42.5" y1="9.61" x2="55.04" y2="9.72"/>
  <line class="cls-3" x1="43.55" y1="12.18" x2="54.05" y2="12.32"/>
  <path class="cls-3" d="m54.78,16.65c-.72.77-1.68,1.28-2.69,1.59s-2.06.42-3.12.48c-.89.05-1.8.06-2.66-.17-1.08-.29-2.02-.95-2.94-1.59-.15-.11-.31-.22-.43-.36"/>
</svg>