<?xml version="1.0" encoding="UTF-8"?>
<svg id="ClassicFit_LongSleeve_CutAwayCollar_Depan" data-name="ClassicFit/LongSleeve/CutAwayCollar/Depan" xmlns="http://www.w3.org/2000/svg" viewBox="0 0 96 96">
  <defs>
    <style>
      .cls-1 {
        fill: none;
        stroke: #010101;
        stroke-miterlimit: 10;
        stroke-width: .5px;
      }
    </style>
  </defs>
  <g id="Awway_Group" data-name="Awway Group">
    <path class="cls-1" d="m41.85,7.85l-2.75,3.52v5.64c2.69-1.76,5.38-2.29,8.07-1.58-3.41-1.14-5.14-3.7-5.32-7.58Z"/>
    <path class="cls-1" d="m53.81,7.85l2.75,3.52v5.64c-2.69-1.76-5.38-2.29-8.07-1.58,3.41-1.14,5.14-3.7,5.32-7.58Z"/>
    <path class="cls-1" d="m53.91,15.74c-4.63,3.52-7.96,3.53-12.36.02"/>
    <path class="cls-1" d="m46.3,15.25c1.1.65,2.18.66,3.26,0"/>
    <line class="cls-1" x1="41.81" y1="8" x2="53.71" y2="8"/>
    <line class="cls-1" x1="52.89" y1="11.7" x2="42.79" y2="11.7"/>
  </g>
  <g id="Lengan_Depan_Kiri" data-name="Lengan Depan Kiri">
    <polygon id="Pergelangan_Tangen" data-name="Pergelangan Tangen" class="cls-1" points="94.02 79.55 86.69 82.56 84.53 78.29 91.97 74.55 94.02 79.55"/>
    <path id="Lengan" class="cls-1" d="m69.49,17.12c-1.29,2.07-2.87,5.13-3.88,9.07-1.31,5.14-1.08,9.53-.72,12.28,6.49,13.3,12.82,26.69,19.31,39.99l7.87-3.97-22.59-57.36Z"/>
  </g>
  <g id="Lengan_Depan_Kanan" data-name="Lengan Depan Kanan">
    <path id="Lengan-2" data-name="Lengan" class="cls-1" d="m26.64,16.8c1.28,2.08,2.85,5.14,3.84,9.09,1.29,5.14,1.04,9.54.66,12.28-1.75,3.53-14.68,30.16-19.49,39.9l-7.86-4L26.64,16.8Z"/>
    <polygon id="Pergelangan_Tangan" data-name="Pergelangan Tangan" class="cls-1" points="1.83 79.11 9.15 82.16 11.32 77.89 3.91 74.12 1.83 79.11"/>
  </g>
  <path id="Baju_Depan" data-name="Baju Depan" class="cls-1" d="m56.33,11.4l13.16,5.72c-4.11,6.14-5.23,13.41-4.59,21.34l2,39.64-2.28.03c-10.37,5.11-21.33,4.5-32.64.39l-2.89.03,2.06-40.4c.68-7.58-.26-14.82-4.5-21.36l12.68-5.53"/>
  <path id="Shilouete_Baju_Belakang" data-name="Shilouete Baju Belakang" class="cls-1" d="m29.91,63.73l-2.68,14.83h1.93c12.83,8.66,25.39,6.98,37.82-.45l1.48-.05-2.09-12.18"/>
  <g id="Kancing_Baju" data-name="Kancing Baju">
    <path class="cls-1" d="m49.36,15.34h0v66.4h-2.73V18.07c0-1.51,1.22-2.73,2.73-2.73Z"/>
    <circle class="cls-1" cx="47.91" cy="23.11" r=".59"/>
    <circle class="cls-1" cx="48" cy="31.74" r=".59"/>
    <circle class="cls-1" cx="48" cy="40.64" r=".59"/>
    <circle class="cls-1" cx="48" cy="49.08" r=".59"/>
    <circle class="cls-1" cx="48" cy="58.05" r=".59"/>
    <circle class="cls-1" cx="48" cy="67.01" r=".59"/>
  </g>
</svg>