<?xml version="1.0" encoding="UTF-8"?>
<svg id="LooseFitBelt" xmlns="http://www.w3.org/2000/svg" viewBox="0 0 96 96">
  <defs>
    <style>
      .cls-1 {
        fill: #231f20;
        font-family: SFPro-Semibold, 'SF Pro';
        font-size: 4.49px;
        font-variation-settings: 'wdth' 100, 'opsz' 28, 'wght' 590;
        font-weight: 600;
      }

      .cls-2 {
        fill: none;
        stroke: #231f20;
        stroke-miterlimit: 10;
        stroke-width: .25px;
      }
    </style>
  </defs>
  <g>
    <rect class="cls-2" x="42.09" y="11.25" width="11.82" height="73.86"/>
    <rect class="cls-2" x="43.2" y="12.58" width="9.68" height="71.38"/>
    <rect class="cls-2" x="49.77" y="13.71" width="1.22" height="1.98"/>
    <circle class="cls-2" cx="50.38" cy="21.67" r=".59"/>
    <line class="cls-2" x1="48" y1="11.25" x2="48" y2="12"/>
    <line class="cls-2" x1="53.91" y1="18.44" x2="53.4" y2="18.44"/>
    <line class="cls-2" x1="52.88" y1="18.44" x2="52.22" y2="18.44"/>
    <line class="cls-2" x1="42.09" y1="18.44" x2="42.68" y2="18.44"/>
    <line class="cls-2" x1="43.2" y1="18.44" x2="43.78" y2="18.44"/>
    <line class="cls-2" x1="48" y1="12.58" x2="48.04" y2="83.96"/>
    <line class="cls-2" x1="42.09" y1="82.8" x2="42.68" y2="82.8"/>
    <line class="cls-2" x1="53.91" y1="82.8" x2="53.47" y2="82.8"/>
    <line class="cls-2" x1="43.2" y1="82.8" x2="52.88" y2="82.8"/>
    <line class="cls-2" x1="42.09" y1="50.23" x2="42.58" y2="50.23"/>
    <line class="cls-2" x1="43.2" y1="50.23" x2="43.85" y2="50.23"/>
    <line class="cls-2" x1="52.88" y1="50.23" x2="52.26" y2="50.23"/>
    <line class="cls-2" x1="53.91" y1="50.23" x2="53.46" y2="50.23"/>
  </g>
  <text class="cls-1" transform="translate(38.01 12.58) scale(.81 1)"><tspan x="0" y="0">A</tspan></text>
  <text class="cls-1" transform="translate(55.21 12.58) scale(.81 1)"><tspan x="0" y="0">B</tspan></text>
  <text class="cls-1" transform="translate(38.06 86.32) scale(.81 1)"><tspan x="0" y="0">C</tspan></text>
  <text class="cls-1" transform="translate(55.25 86.32) scale(.81 1)"><tspan x="0" y="0">D</tspan></text>
</svg>