<?xml version="1.0" encoding="UTF-8"?>
<svg id="LooseFitKiri" xmlns="http://www.w3.org/2000/svg" viewBox="0 0 96 96">
  <defs>
    <style>
      .cls-1 {
        fill: #231f20;
        font-family: SFPro-Semibold, 'SF Pro';
        font-size: 4.49px;
        font-variation-settings: 'wdth' 100, 'opsz' 28, 'wght' 590;
        font-weight: 600;
      }

      .cls-2 {
        stroke: #ed1c24;
        stroke-dasharray: 0 1;
        stroke-width: .5px;
      }

      .cls-2, .cls-3, .cls-4 {
        stroke-miterlimit: 10;
      }

      .cls-2, .cls-4 {
        fill: none;
      }

      .cls-3 {
        fill: #fff;
      }

      .cls-3, .cls-4 {
        stroke: #00000b;
        stroke-width: .25px;
      }
    </style>
  </defs>
  <g id="Kiri">
    <path class="cls-4" d="m33.05,26.78c3.21-.8,5.36-2.92,5.91-6.99l.69-10.64h18.12l5.17,12.66c-1.67,19.21-1.96,42.54-1.65,67.65l-26.55.34c.12-24.67.13-48.76-1.7-63.01Z"/>
    <path class="cls-4" d="m33.89,27.33c3.49-.84,5.53-3.2,5.82-7.4l.57-9.84,16.81-.16,5,12.09c-1.69,17.51-1.92,41.6-1.76,67.46l-24.81.32c.13-24.94.44-50.95-1.62-62.46Z"/>
    <line class="cls-4" x1="47.99" y1="9.15" x2="47.99" y2="9.65"/>
    <line class="cls-3" x1="47.99" y1="10.01" x2="47.99" y2="89.63"/>
    <polygon class="cls-3" points="60.28 89.43 35.46 89.75 35.47 88.18 60.33 88.18 60.28 89.43"/>
    <line class="cls-4" x1="34.71" y1="88.18" x2="35.19" y2="88.18"/>
    <line class="cls-4" x1="61.33" y1="88.18" x2="60.79" y2="88.18"/>
    <polygon class="cls-4" points="49.58 10.9 48.74 10.9 48.74 9.15 49.16 9.15 49.58 9.15 49.58 10.9"/>
    <line class="cls-4" x1="49.16" y1="9.6" x2="49.16" y2="9.15"/>
    <line class="cls-4" x1="51.96" y1="9.15" x2="51.96" y2="9.46"/>
    <line class="cls-4" x1="52.42" y1="9.15" x2="52.42" y2="9.46"/>
    <polyline class="cls-4" points="51.96 9.97 52.42 16.92 52.42 10.01"/>
    <circle class="cls-4" cx="52.42" cy="10.6" r=".16"/>
    <circle class="cls-4" cx="51.99" cy="10.65" r=".16"/>
    <circle class="cls-4" cx="52.42" cy="16.8" r=".16"/>
  </g>
  <g>
    <text class="cls-1" transform="translate(64.47 9.57) scale(.9 1)"><tspan x="0" y="0">A</tspan></text>
    <text class="cls-1" transform="translate(28.56 10.93) scale(.9 1)"><tspan x="0" y="0">B</tspan></text>
    <rect class="cls-2" x="32.15" y="9.06" width="31.42" height="80.44"/>
    <text class="cls-1" transform="translate(65.17 90.87) scale(.9 1)"><tspan x="0" y="0">C</tspan></text>
    <text class="cls-1" transform="translate(57.3 7.77) scale(.9 1)"><tspan x="0" y="0">E</tspan></text>
    <text class="cls-1" transform="translate(64.52 24.21) scale(.9 1)"><tspan x="0" y="0">I</tspan></text>
    <text class="cls-1" transform="translate(37.85 7.93) scale(.9 1)"><tspan x="0" y="0">F</tspan></text>
    <text class="cls-1" transform="translate(28.81 28.55) scale(.9 1)"><tspan x="0" y="0">J</tspan></text>
    <text class="cls-1" transform="translate(27.99 90.92) scale(.9 1)"><tspan x="0" y="0">D</tspan></text>
  </g>
</svg>