<?xml version="1.0" encoding="UTF-8"?>
<svg xmlns="http://www.w3.org/2000/svg" viewBox="0 0 96 96">
  <defs>
    <style>
      .cls-1 {
        fill: #fff;
      }

      .cls-1, .cls-2 {
        stroke: #231f20;
        stroke-miterlimit: 10;
        stroke-width: .5px;
      }

      .cls-2 {
        fill: none;
      }
    </style>
  </defs>
  <g id="ClassicFit_LongSleeve_ClassicCollar_Depan" data-name="ClassicFit/LongSleeve/ClassicCollar/Depan">
    <circle class="cls-1" cx="47.79" cy="22.02" r=".47"/>
    <circle class="cls-1" cx="47.79" cy="38.67" r=".47"/>
    <circle class="cls-1" cx="47.72" cy="46.9" r=".47"/>
    <circle class="cls-1" cx="47.79" cy="63.55" r=".47"/>
    <circle class="cls-1" cx="47.72" cy="55.14" r=".47"/>
    <circle class="cls-1" cx="47.84" cy="30.43" r=".47"/>
  </g>
  <g id="Layer_12" data-name="Layer 12">
    <polyline class="cls-2" points="53.39 7.97 55.91 10.97 67.73 16.17 89.5 70.37 91.29 75.05 84.37 78.6 82.19 73.89 89.52 70.52"/>
    <line class="cls-2" x1="82.19" y1="73.89" x2="63.51" y2="34.89"/>
    <polyline class="cls-2" points="41.76 7.97 39.77 10.78 27.2 16.25 5.92 70.52 3.46 75.37 10.65 78.27 13.07 73.73 5.92 70.44"/>
    <line class="cls-2" x1="13.08" y1="73.59" x2="31.67" y2="35.34"/>
    <path class="cls-2" d="m67.65,16.44c-2.08,4.22-3.4,8.81-3.88,13.48-.33,3.17-.27,6.36-.22,9.54.2,11.68.41,23.41,2.32,34.94"/>
    <path class="cls-2" d="m65.92,74.19c-3.9-.4-7.6,1.51-11.36,2.63-5.66,1.69-11.84,1.59-17.45-.28-2.33-.78-4.6-1.86-7.05-2.02"/>
    <path class="cls-2" d="m65.68,74.19c-2.49,1-3.84,3.64-5.82,5.45-1.18,1.07-2.59,1.84-4.03,2.5-5.8,2.64-13.05,3.36-18.25-.34-2.98-2.12-4.96-5.45-8.01-7.46"/>
    <path class="cls-2" d="m27.2,16.25c1.41,1.2,2.01,3.23,2.43,5.15,1.77,8.16,1.7,16.66,1.42,25.04-.31,9.35-.87,18.68-1.62,28.01.02.06-.09.08-.12.02s.02-.13.06-.19"/>
    <line class="cls-2" x1="49.09" y1="17.7" x2="49.12" y2="77.85"/>
    <line class="cls-2" x1="46.46" y1="77.89" x2="46.52" y2="17.54"/>
    <polyline class="cls-2" points="41.58 8.1 53.56 8.05 53.58 8.05"/>
    <line class="cls-2" x1="42.21" y1="8.95" x2="53.14" y2="9.15"/>
    <line class="cls-2" x1="42.86" y1="11.36" x2="52.41" y2="11.61"/>
    <path class="cls-2" d="m41.88,7.94c-.1,1.3.43,2.59,1.21,3.63s1.81,1.87,2.86,2.65c.49.37,1.01.74,1.61.79.68.06,1.33-.28,1.92-.62.43-.24.85-.48,1.25-.77,1.64-1.2,2.62-3.26,2.51-5.29,0-.07,0-.15.06-.19s.15.06.09.09"/>
    <path class="cls-2" d="m42.3,20.04l1.93-2.86c.55-.82,1.15-1.67,2.04-2.09,1.17-.54,2.59-.16,3.63.61s1.75,1.87,2.45,2.96c.35.54.69,1.07,1.04,1.61"/>
    <path class="cls-2" d="m46.52,17.75c0-.52-.02-1.05.11-1.56s.42-.99.88-1.24c.08-.05.19-.08.27-.03"/>
    <path class="cls-2" d="m44.47,16.96c.67.33,1.43.39,2.17.45.74.06,1.49.12,2.24.04s1.49-.29,2.09-.73"/>
    <line class="cls-2" x1="56.05" y1="10.98" x2="53.2" y2="20.28"/>
    <line class="cls-2" x1="39.6" y1="11" x2="42.26" y2="20.28"/>
  </g>
</svg>