<?xml version="1.0" encoding="UTF-8"?>
<svg id="Layer_12" data-name="Layer 12" xmlns="http://www.w3.org/2000/svg" viewBox="0 0 96 96">
  <defs>
    <style>
      .cls-1 {
        fill: none;
        stroke: #231f20;
        stroke-miterlimit: 10;
        stroke-width: .5px;
      }
    </style>
  </defs>
  <polyline class="cls-1" points="53.23 8.2 55.38 10.89 67.63 16.55 89.24 70.19 91.12 75.31 84.19 78.13 82.1 73.69 89.17 70.46"/>
  <line class="cls-1" x1="82.04" y1="73.49" x2="63.34" y2="35.16"/>
  <polyline class="cls-1" points="42.07 8.1 39.8 11.01 27.79 16.27 6.12 70.58 4.48 75.4 11.31 78.06 13.59 73.56 6.38 70.65"/>
  <line class="cls-1" x1="13.59" y1="73.62" x2="31.9" y2="34.62"/>
  <path class="cls-1" d="m67.71,16.71c-1.63,3.13-3,6.42-3.67,9.89-.5,2.59-.6,5.23-.66,7.86-.25,11.62.39,23.25,1.89,34.77.21,1.61.44,3.24.25,4.85"/>
  <path class="cls-1" d="m27.81,16.25c1.3,2.71,2.28,5.57,2.91,8.51.5,2.32.78,4.67.98,7.03,1.2,14.24-.66,28.54-1.89,42.77"/>
  <path class="cls-1" d="m65.68,74.03c-2.82,1.09-4.37,4.06-6.62,6.08-2.67,2.4-6.33,3.44-9.91,3.69-1.76.13-3.55.08-5.28-.26-3.92-.77-7.47-3.08-10.01-6.16-.57-.69-1.09-1.42-1.75-2.01s-1.49-1.06-2.38-1.08"/>
  <line class="cls-1" x1="9.3" y1="77.24" x2="11.16" y2="72.57"/>
  <polyline class="cls-1" points="8.99 71.69 13.1 61.42 14.73 60.76 15.39 62.39 11.14 72.64"/>
  <line class="cls-1" x1="12.41" y1="63.22" x2="14.59" y2="64.16"/>
  <polyline class="cls-1" points="84.38 72.51 80.13 62.52 80.59 60.82 82.3 61.53 86.8 71.59"/>
  <line class="cls-1" x1="84.41" y1="72.64" x2="86.37" y2="77.31"/>
  <line class="cls-1" x1="80.79" y1="64.07" x2="83.01" y2="63.04"/>
  <path class="cls-1" d="m30.9,24.89c11.1-1.95,22.46-.23,33.73.01"/>
  <line class="cls-1" x1="41.9" y1="8.22" x2="53.4" y2="8.28"/>
  <line class="cls-1" x1="39.49" y1="11.1" x2="55.86" y2="11.11"/>
</svg>