<?xml version="1.0" encoding="UTF-8"?>
<svg id="Layer_12" data-name="Layer 12" xmlns="http://www.w3.org/2000/svg" viewBox="0 0 96 96">
  <defs>
    <style>
      .cls-1 {
        fill: none;
        stroke: #231f20;
        stroke-miterlimit: 10;
        stroke-width: .5px;
      }
    </style>
  </defs>
  <polyline class="cls-1" points="54.86 8.58 56.62 11.68 69.66 17.25 92.41 74.73 94.73 79.66 87.55 83.25 84.8 78.32 92.27 75.01"/>
  <line class="cls-1" x1="84.8" y1="78.32" x2="65.39" y2="37.32"/>
  <polyline class="cls-1" points="42.34 8.77 39.65 12.02 27.31 17.58 4.32 74.65 2.01 80.19 9.44 83.34 12.03 78.15 4.39 74.72"/>
  <line class="cls-1" x1="12.1" y1="78.29" x2="31.9" y2="37.29"/>
  <path class="cls-1" d="m69.5,17.52c-3.06,6.06-3.65,13.03-4.11,19.8-.6,8.82-1.05,17.72.16,26.48.32,2.34.77,4.65,1.07,6.99.32,2.45.49,4.92.65,7.39.01.15-.02.36-.17.38s-.04-.31.02-.17"/>
  <path class="cls-1" d="m27.24,18.03c1.37,1.44,1.89,3.47,2.35,5.41.56,2.33,1.11,4.66,1.52,7.02,2.76,15.97-1.27,32.26-1.41,48.47"/>
  <line class="cls-1" x1="42.11" y1="8.81" x2="54.97" y2="8.72"/>
  <line class="cls-1" x1="39.15" y1="12.22" x2="56.8" y2="11.75"/>
  <polyline class="cls-1" points="30.4 26.26 66.56 26.29 66.64 26.22"/>
  <polyline class="cls-1" points="6.88 75.82 11.26 65.57 13.5 64.44 13.89 66.83 9.65 76.9"/>
  <line class="cls-1" x1="10.84" y1="67.2" x2="13.16" y2="68.32"/>
  <path class="cls-1" d="m9.51,77.12c-.19.55-.37,1.1-.56,1.64-.24.7-.49,1.42-.94,2.01s-1.14,1.05-1.87,1.02h-.24"/>
  <polyline class="cls-1" points="87.41 77.34 82.98 66.85 83.48 64.57 85.78 66.1 90.07 75.93"/>
  <line class="cls-1" x1="83.63" y1="68.02" x2="86.06" y2="67.09"/>
  <path class="cls-1" d="m90.49,81.78c-.79-.48-1.35-1.25-1.8-2.05s-.81-1.65-1.31-2.42"/>
  <line class="cls-1" x1="29.64" y1="78.69" x2="67.17" y2="78.65"/>
</svg>