<?xml version="1.0" encoding="UTF-8"?>
<svg xmlns="http://www.w3.org/2000/svg" viewBox="0 0 96 96">
  <defs>
    <style>
      .cls-1 {
        fill: #231f20;
        font-family: SFPro-Semibold, 'SF Pro';
        font-size: 4.49px;
        font-variation-settings: 'wdth' 100, 'opsz' 28, 'wght' 590;
        font-weight: 600;
      }

      .cls-2 {
        stroke: #ed1c24;
        stroke-dasharray: 0 1;
        stroke-width: .5px;
      }

      .cls-2, .cls-3 {
        fill: none;
        stroke-miterlimit: 10;
      }

      .cls-3 {
        stroke: #010101;
        stroke-width: .25px;
      }
    </style>
  </defs>
  <g id="Classic_Fit_Lingkar_Leher" data-name="Classic Fit Lingkar Leher">
    <g>
      <rect class="cls-2" x="12.65" y="22.91" width="70.6" height="18.79"/>
      <text class="cls-1" transform="translate(8.71 22.91)"><tspan x="0" y="0">A</tspan></text>
      <text class="cls-1" transform="translate(83.83 22.59)"><tspan x="0" y="0">B</tspan></text>
      <text class="cls-1" transform="translate(8.77 45.09)"><tspan x="0" y="0">C</tspan></text>
      <text class="cls-1" transform="translate(83.89 44.78)"><tspan x="0" y="0">D</tspan></text>
    </g>
    <g>
      <rect class="cls-2" x="8.76" y="52.81" width="78.59" height="11.19"/>
      <text class="cls-1" transform="translate(6.51 52.08)"><tspan x="0" y="0">A</tspan></text>
      <text class="cls-1" transform="translate(88 52.99)"><tspan x="0" y="0">B</tspan></text>
      <text class="cls-1" transform="translate(4.36 65.63)"><tspan x="0" y="0">C</tspan></text>
      <text class="cls-1" transform="translate(88 67.07)"><tspan x="0" y="0">D</tspan></text>
    </g>
  </g>
  <g id="Short_Collar" data-name="Short Collar">
    <g>
      <path class="cls-3" d="m8.81,62.05c-.47-3.88.75-6.6,4.83-7.36,8.61-1.25,22.62-1.58,34.28-1.88,11.52-.04,22.9.58,34.12,1.96,3.27.1,5.29,2.14,5.32,7.28-4.45,1.96-6.27,1.76-12.14,1.46l-27.54-1.14c-7.64-.1-15.47.33-23.4,1.02-6.3.36-11.98.19-15.47-1.33Z"/>
      <path class="cls-3" d="m10.11,60.92c-.02-2.53.77-4.47,3.63-4.94,10.68-1.05,22.54-1.88,34.29-1.73,11.37-.09,24.04,1.19,34.25,1.79,2.46.59,3.62,2.26,3.6,4.89-4.12.81-7.89,1.28-10.91.97-.95.1-16.97-1.04-26.98-1.29-8.72.27-16.84.65-23.62,1.29-4.85.46-9.6.1-14.27-.97Z"/>
      <g>
        <line class="cls-3" x1="13.74" y1="55.97" x2="12.6" y2="61.41"/>
        <line class="cls-3" x1="12.6" y1="58.4" x2="14.23" y2="58.96"/>
      </g>
      <line class="cls-3" x1="15.22" y1="60.96" x2="15.09" y2="61.77"/>
      <line class="cls-3" x1="14.84" y1="62.48" x2="14.74" y2="63.37"/>
      <line class="cls-3" x1="12.47" y1="62.03" x2="12.27" y2="63.01"/>
      <line class="cls-3" x1="13.64" y1="54.69" x2="13.64" y2="55.4"/>
      <line class="cls-3" x1="25.07" y1="53.63" x2="25.07" y2="54.41"/>
      <line class="cls-3" x1="25.07" y1="55" x2="25.07" y2="55.97"/>
      <line class="cls-3" x1="41.22" y1="52.99" x2="41.22" y2="62.39"/>
      <line class="cls-3" x1="35.06" y1="60.19" x2="35.06" y2="61.12"/>
      <line class="cls-3" x1="35.06" y1="61.88" x2="35.06" y2="62.62"/>
      <line class="cls-3" x1="60.76" y1="60.2" x2="60.76" y2="61.14"/>
      <line class="cls-3" x1="60.76" y1="61.87" x2="60.76" y2="62.9"/>
      <line class="cls-3" x1="70.89" y1="53.65" x2="70.89" y2="54.41"/>
      <line class="cls-3" x1="70.89" y1="55.24" x2="70.89" y2="55.93"/>
      <line class="cls-3" x1="82.29" y1="54.78" x2="82.29" y2="55.38"/>
      <line class="cls-3" x1="80.61" y1="60.81" x2="80.71" y2="61.67"/>
      <line class="cls-3" x1="80.87" y1="62.67" x2="81.09" y2="63.8"/>
      <line class="cls-3" x1="83.64" y1="63.34" x2="83.47" y2="62.34"/>
      <g>
        <line class="cls-3" x1="82.32" y1="56.23" x2="83.47" y2="61.67"/>
        <line class="cls-3" x1="83.47" y1="58.66" x2="81.83" y2="59.22"/>
      </g>
    </g>
    <g>
      <path class="cls-3" d="m12.78,22.91c12.5,2.79,27.47,4.56,35.16,4.48,9.25.13,22.93-1.74,35.28-4.17.27,6.12-.99,12.29-3.21,18.49-7.67-4.28-19.31-4.74-32-4.19-13.17-.11-25.63-.38-31.84,4.19-2.74-6.08-3.92-12.34-3.38-18.79Z"/>
      <path class="cls-3" d="m13.96,24.56c12.1,2.48,23.66,4.11,34.04,3.81,9.99.11,21.57-1.33,33.92-3.53.2,4.71-.91,9.84-2.85,15.25-6.42-3.9-18.2-3.89-31.07-3.78-13.23-.07-25.38-.14-31.31,3.78-1.71-5.26-2.67-10.45-2.73-15.53Z"/>
      <line class="cls-3" x1="48" y1="28.37" x2="48" y2="36.31"/>
      <line class="cls-3" x1="25.38" y1="25.27" x2="25.38" y2="26.01"/>
      <line class="cls-3" x1="25.38" y1="26.64" x2="25.38" y2="27.4"/>
      <line class="cls-3" x1="70.78" y1="25.39" x2="70.78" y2="26.01"/>
      <line class="cls-3" x1="70.78" y1="26.63" x2="70.78" y2="27.36"/>
      <line class="cls-3" x1="48" y1="27.39" x2="48" y2="28"/>
      <line class="cls-3" x1="48" y1="37.52" x2="48" y2="36.86"/>
    </g>
  </g>
</svg>