<?xml version="1.0" encoding="UTF-8"?>
<svg id="RelaxedFitBelt" xmlns="http://www.w3.org/2000/svg" viewBox="0 0 96 96">
  <defs>
    <style>
      .cls-1 {
        fill: #231f20;
        font-family: SFPro-Semibold, 'SF Pro';
        font-size: 4.49px;
        font-variation-settings: 'wdth' 100, 'opsz' 28, 'wght' 590;
        font-weight: 600;
      }

      .cls-2 {
        fill: none;
        stroke: #00000b;
        stroke-miterlimit: 10;
        stroke-width: .25px;
      }
    </style>
  </defs>
  <g>
    <polygon class="cls-2" points="6.75 40.02 6.73 46.73 89.22 46.76 89.27 39.74 6.75 40.02"/>
    <polygon class="cls-2" points="7.43 40.62 7.42 46.22 88.5 45.94 88.6 40.54 7.43 40.62"/>
    <line class="cls-2" x1="27.61" y1="40.44" x2="27.66" y2="46.24"/>
    <line class="cls-2" x1="14.87" y1="40.33" x2="14.87" y2="40"/>
    <line class="cls-2" x1="14.92" y1="40.76" x2="14.92" y2="41.01"/>
    <line class="cls-2" x1="14.87" y1="46.68" x2="14.88" y2="46.45"/>
    <line class="cls-2" x1="14.87" y1="46.08" x2="14.87" y2="45.74"/>
    <line class="cls-2" x1="47.96" y1="40.58" x2="47.99" y2="46.08"/>
    <line class="cls-2" x1="48.01" y1="46.75" x2="48" y2="46.37"/>
    <line class="cls-2" x1="47.98" y1="39.88" x2="47.97" y2="40.25"/>
    <line class="cls-2" x1="58.02" y1="39.85" x2="58.02" y2="40.18"/>
    <line class="cls-2" x1="58.05" y1="40.65" x2="58.07" y2="40.99"/>
    <line class="cls-2" x1="58.07" y1="46.75" x2="58.06" y2="46.4"/>
    <line class="cls-2" x1="58.09" y1="46.05" x2="58.09" y2="45.66"/>
    <line class="cls-2" x1="68.34" y1="40.56" x2="68.37" y2="46.01"/>
    <line class="cls-2" x1="68.34" y1="39.81" x2="68.34" y2="40.23"/>
    <line class="cls-2" x1="68.37" y1="46.36" x2="68.38" y2="46.75"/>
    <line class="cls-2" x1="81.1" y1="39.77" x2="81.09" y2="40.19"/>
    <line class="cls-2" x1="81.11" y1="40.55" x2="81.11" y2="40.91"/>
    <line class="cls-2" x1="81.12" y1="46.76" x2="81.14" y2="46.33"/>
    <line class="cls-2" x1="81.11" y1="45.97" x2="81.11" y2="45.52"/>
    <line class="cls-2" x1="27.62" y1="39.91" x2="27.63" y2="40.27"/>
    <line class="cls-2" x1="27.71" y1="46.74" x2="27.68" y2="46.42"/>
  </g>
  <text class="cls-1" transform="translate(5.03 37.97) scale(.81 1)"><tspan x="0" y="0">A</tspan></text>
  <text class="cls-1" transform="translate(88 38.91) scale(.81 1)"><tspan x="0" y="0">B</tspan></text>
  <text class="cls-1" transform="translate(5.08 50.71) scale(.81 1)"><tspan x="0" y="0">C</tspan></text>
  <text class="cls-1" transform="translate(88.05 51.66) scale(.81 1)"><tspan x="0" y="0">D</tspan></text>
  <text class="cls-1" transform="translate(26.83 38.91) scale(.81 1)"><tspan x="0" y="0">E</tspan></text>
  <text class="cls-1" transform="translate(46.94 38.91) scale(.81 1)"><tspan x="0" y="0">G</tspan></text>
  <text class="cls-1" transform="translate(67.1 38.97) scale(.81 1)"><tspan x="0" y="0">I</tspan></text>
  <text class="cls-1" transform="translate(26.26 51.69) scale(.81 1)"><tspan x="0" y="0">G</tspan></text>
  <text class="cls-1" transform="translate(46.37 51.69) scale(.81 1)"><tspan x="0" y="0">H</tspan></text>
  <text class="cls-1" transform="translate(67.32 51.74) scale(.81 1)"><tspan x="0" y="0">J</tspan></text>
</svg>