<?xml version="1.0" encoding="UTF-8"?>
<svg xmlns="http://www.w3.org/2000/svg" viewBox="0 0 96 96">
  <defs>
    <style>
      .cls-1 {
        fill: #fff;
      }

      .cls-1, .cls-2 {
        stroke: #231f20;
        stroke-miterlimit: 10;
        stroke-width: .5px;
      }

      .cls-2 {
        fill: none;
      }
    </style>
  </defs>
  <g id="ClassicFit_LongSleeve_ClassicCollar_Depan" data-name="ClassicFit/LongSleeve/ClassicCollar/Depan">
    <circle class="cls-1" cx="48.05" cy="46.83" r=".47"/>
    <circle class="cls-1" cx="48" cy="55.08" r=".47"/>
    <circle class="cls-1" cx="48" cy="21.93" r=".47"/>
    <circle class="cls-1" cx="48" cy="21.93" r=".47"/>
    <circle class="cls-1" cx="48" cy="30.33" r=".47"/>
    <circle class="cls-1" cx="48.05" cy="38.58" r=".47"/>
    <circle class="cls-1" cx="48.1" cy="63.28" r=".47"/>
    <circle class="cls-1" cx="48.1" cy="63.28" r=".47"/>
  </g>
  <g id="Layer_12" data-name="Layer 12">
    <polyline class="cls-2" points="53.62 8.1 56.42 11.19 68.27 16.56 89.74 70.51 91.72 75.3 84.66 78.4 82.35 73.77 89.78 70.51"/>
    <line class="cls-2" x1="82.31" y1="73.73" x2="64.06" y2="35.84"/>
    <polyline class="cls-2" points="42.08 8.1 39.46 11.33 27.82 16.24 6.56 70 4.26 75 11.04 78.14 13.45 73.43 6.57 70.19"/>
    <line class="cls-2" x1="13.49" y1="73.35" x2="31.97" y2="35.53"/>
    <path class="cls-2" d="m27.99,16.22c3.71,8.26,4.17,17.59,4.09,26.65-.09,10.45-.82,20.89-2.18,31.25"/>
    <path class="cls-2" d="m68.05,16.48c-3.72,9.04-4.56,19.02-4.28,28.79.28,9.77,1.65,19.48,2.16,29.25"/>
    <path class="cls-2" d="m65.92,74.33c-2.8-.43-5.55.82-8.25,1.69-6.38,2.06-13.4,2.07-19.78.02-1.11-.36-2.21-.77-3.33-1.09-1.6-.46-3.26-.71-4.92-.76"/>
    <path class="cls-2" d="m65.99,74.24c-2.65.78-4.34,3.27-6.33,5.17-3.57,3.42-8.65,5.18-13.58,4.77-4.93-.42-9.62-2.99-12.67-6.88-.95-1.21-1.9-2.64-3.41-2.94"/>
    <line class="cls-2" x1="41.87" y1="8.17" x2="53.77" y2="8.18"/>
    <line class="cls-2" x1="49.26" y1="17.63" x2="49.35" y2="77.39"/>
    <line class="cls-2" x1="46.83" y1="17.63" x2="46.84" y2="77.28"/>
    <line class="cls-2" x1="56.37" y1="11.09" x2="56.69" y2="16.58"/>
    <path class="cls-2" d="m42.41,8.39c-.08,1.73,1.03,3.28,2.16,4.59.64.74,1.35,1.48,2.27,1.81.99.35,2.13.17,3.06-.33s1.67-1.3,2.27-2.16c.89-1.28,1.52-2.75,1.83-4.29"/>
    <line class="cls-2" x1="42.49" y1="9.07" x2="53.78" y2="9.09"/>
    <line class="cls-2" x1="43.58" y1="11.55" x2="52.66" y2="11.56"/>
    <path class="cls-2" d="m56.74,16.46c-1.26-.63-2.57-1.15-3.92-1.56-.8-.25-1.62-.46-2.46-.44-.83.01-1.64.24-2.47.3-.88.06-1.75-.07-2.63-.08-2.05-.03-4.1.59-5.79,1.76"/>
    <path class="cls-2" d="m53.69,15.3c-1.54,1.41-3.61,2.21-5.69,2.2s-4.15-.82-5.68-2.23"/>
    <path class="cls-2" d="m46.8,17.49c.03-.72.15-1.44.33-2.14.06-.23.17-.49.4-.53"/>
    <path class="cls-2" d="m39.73,11.1c.02,1.84-.06,3.68-.24,5.52"/>
  </g>
</svg>