<?xml version="1.0" encoding="UTF-8"?>
<svg id="RelaxedFit02" xmlns="http://www.w3.org/2000/svg" viewBox="0 0 96 96">
  <defs>
    <style>
      .cls-1 {
        stroke: #ed1c24;
        stroke-dasharray: 0 1;
      }

      .cls-1, .cls-2, .cls-3 {
        fill: none;
        stroke-miterlimit: 10;
      }

      .cls-1, .cls-3 {
        stroke-width: .5px;
      }

      .cls-4 {
        fill: #231f20;
        font-family: SFPro-Semibold, 'SF Pro';
        font-size: 4.44px;
        font-variation-settings: 'wdth' 100, 'opsz' 28, 'wght' 590;
        font-weight: 600;
      }

      .cls-2 {
        stroke-width: .25px;
      }

      .cls-2, .cls-3 {
        stroke: #00000b;
      }
    </style>
  </defs>
  <rect class="cls-2" x="39.27" y="87.23" width="17.25" height="1.26"/>
  <path class="cls-2" d="m56.52,88.49h-17.25c-.37-16.46-.73-33.8-1.2-40.49l-3.87-24.03c-.65-5.31-1.07-10.32-1.03-14.77l25.65.28v6.52c.11,1.58-.92,2.04-2.31,2.15.28,3.61,1.95,6,5.04,7.16-2.43,10.28-3.96,20.47-4.28,30.53l-.76,32.65Z"/>
  <path class="cls-2" d="m57.34,88.49h-18.92c-.37-16.46-1.16-34.67-1.63-41.36l-3.61-24.08c-.75-5.34-.97-10.22-.79-14.62l27.41.31v6.52c.01,2.03-.03,3.18-2.18,3.7.28,3.61,1.85,4.69,4.94,5.85-2.43,10.28-3.99,20.52-4.31,30.58l-.9,33.1Z"/>
  <line class="cls-3" x1="38.38" y1="87.23" x2="38.83" y2="87.23"/>
  <line class="cls-3" x1="57.37" y1="87.31" x2="56.98" y2="87.31"/>
  <line class="cls-2" x1="48" y1="8.61" x2="47.9" y2="88.49"/>
  <line class="cls-2" x1="56.43" y1="8.7" x2="56.52" y2="18.15"/>
  <circle class="cls-2" cx="56.52" cy="17.1" r=".37"/>
  <g>
    <text class="cls-4" transform="translate(27.87 10.03) scale(.89 1)"><tspan x="0" y="0">A</tspan></text>
    <text class="cls-4" transform="translate(62.93 10.2) scale(.89 1)"><tspan x="0" y="0">B</tspan></text>
    <rect class="cls-1" x="31.54" y="8.95" width="30.75" height="79.54"/>
    <text class="cls-4" transform="translate(55.33 6.91) scale(.89 1)"><tspan x="0" y="0">E</tspan></text>
    <text class="cls-4" transform="translate(56.9 93.25) scale(.89 1)"><tspan x="0" y="0">I</tspan></text>
    <text class="cls-4" transform="translate(52.72 20.16) scale(.89 1)"><tspan x="0" y="0">F</tspan></text>
    <text class="cls-4" transform="translate(63.24 26.56) scale(.89 1)"><tspan x="0" y="0">Cn</tspan></text>
    <text class="cls-4" transform="translate(62.28 92.66) scale(.89 1)"><tspan x="0" y="0">D</tspan></text>
    <text class="cls-4" transform="translate(25.07 90.6) scale(.89 1)"><tspan x="0" y="0">Ch</tspan></text>
  </g>
</svg>