<?xml version="1.0" encoding="UTF-8"?>
<svg id="CutAwayCollar-2" data-name="CutAwayCollar" xmlns="http://www.w3.org/2000/svg" viewBox="0 0 96 96">
  <defs>
    <style>
      .cls-1 {
        fill: #231f20;
        font-family: SFPro-Semibold, 'SF Pro';
        font-size: 4.49px;
        font-variation-settings: 'wdth' 100, 'opsz' 28, 'wght' 590;
        font-weight: 600;
      }

      .cls-2 {
        stroke: #ed1c24;
        stroke-dasharray: 0 1;
      }

      .cls-2, .cls-3, .cls-4 {
        fill: none;
        stroke-miterlimit: 10;
      }

      .cls-2, .cls-4 {
        stroke-width: .5px;
      }

      .cls-3 {
        stroke-width: .25px;
      }

      .cls-3, .cls-4 {
        stroke: #010101;
      }
    </style>
  </defs>
  <path class="cls-4" d="m8,30.83c13.51,2.81,26.59,5.23,36.71,4.88h8.26c7.98.21,21.22-2.27,35.03-5.04-1.05,5.87-3.14,11.65-6.24,17.34-2.05-1.15-5.97-1.64-9.9-1.74H25.32c-3.55-.13-7.32.39-11.24,1.34-2.97-5.12-4.97-10.72-6.08-16.78Z"/>
  <path class="cls-4" d="m9.64,32.37c12.24,2.64,24.27,4.88,35.06,4.75h8.27c11.62-.73,22.69-2.2,32.97-4.75-.66,4.2-2.43,8.83-4.79,13.71-2.71-.94-5.87-1.23-9.3-1.14l-46.67-.17c-4.52.19-7.45.45-10.73,1.31-2.1-4.66-3.74-9.23-4.82-13.71Z"/>
  <line class="cls-3" x1="48" y1="35.7" x2="48" y2="46.26"/>
  <line class="cls-3" x1="22.35" y1="33.61" x2="22.35" y2="34.33"/>
  <line class="cls-3" x1="22.35" y1="34.91" x2="22.35" y2="35.87"/>
  <line class="cls-3" x1="73.43" y1="33.45" x2="73.43" y2="34.17"/>
  <line class="cls-3" x1="73.43" y1="34.9" x2="73.43" y2="35.63"/>
  <g>
    <path class="cls-4" d="m8.19,68.58c-.32-4.14.98-6.95,4.87-7.63,23.41-2.77,46.86-2.72,70.35.12,3.33.73,4.81,3.33,4.73,7.51-13.62,3.26-16.08.97-27.07.43-5.82-.66-15.9-.35-26.18,0-9.51.17-18.8,2.32-26.7-.43Z"/>
    <path class="cls-4" d="m9.61,67.41c-.26-2.78.7-4.68,3.57-5.19,23.29-2.84,46.56-2.84,69.78.04,2.46.38,3.67,2.04,3.72,4.9-7.37,3.01-17.01-.06-28.09-.23h-23.31c-11.29.76-18.69,2.48-25.68.48Z"/>
    <line class="cls-4" x1="13.18" y1="62.22" x2="12.12" y2="67.97"/>
    <line class="cls-4" x1="11.77" y1="64.75" x2="13.58" y2="65.1"/>
    <line class="cls-4" x1="11.56" y1="69.46" x2="11.91" y2="68.47"/>
    <line class="cls-4" x1="13.58" y1="60.88" x2="13.35" y2="61.58"/>
    <line class="cls-4" x1="14.54" y1="68.25" x2="14.74" y2="67.17"/>
    <line class="cls-4" x1="14.24" y1="69.82" x2="14.54" y2="68.88"/>
    <line class="cls-4" x1="35.08" y1="69.08" x2="35.08" y2="68.3"/>
    <line class="cls-4" x1="35.08" y1="66.94" x2="35.08" y2="66.27"/>
    <line class="cls-4" x1="48.14" y1="58.9" x2="48.14" y2="68.47"/>
    <line class="cls-4" x1="61.21" y1="69.01" x2="61.21" y2="68.18"/>
    <line class="cls-4" x1="61.21" y1="67.02" x2="61.21" y2="66.26"/>
    <line class="cls-4" x1="81.75" y1="68.33" x2="81.75" y2="67.5"/>
    <line class="cls-4" x1="81.87" y1="69.82" x2="81.87" y2="69.07"/>
    <line class="cls-4" x1="84.57" y1="69.36" x2="84.57" y2="68.68"/>
    <line class="cls-4" x1="82.96" y1="62.26" x2="84.36" y2="67.9"/>
    <circle class="cls-4" cx="83.66" cy="64.98" r=".41"/>
    <line class="cls-4" x1="71.51" y1="59.86" x2="71.51" y2="60.43"/>
    <line class="cls-4" x1="71.51" y1="61.02" x2="71.51" y2="62.09"/>
    <line class="cls-4" x1="24.7" y1="59.8" x2="24.7" y2="60.36"/>
    <line class="cls-4" x1="24.7" y1="61.05" x2="24.7" y2="61.67"/>
  </g>
  <g>
    <rect class="cls-2" x="8.29" y="29.21" width="79.71" height="18.79"/>
    <text class="cls-1" transform="translate(4.41 29.76)"><tspan x="0" y="0">A</tspan></text>
    <text class="cls-1" transform="translate(88.97 28.89)"><tspan x="0" y="0">B</tspan></text>
    <text class="cls-1" transform="translate(4.35 49.74)"><tspan x="0" y="0">C</tspan></text>
    <text class="cls-1" transform="translate(88.63 49.74)"><tspan x="0" y="0">D</tspan></text>
  </g>
  <g>
    <rect class="cls-2" x="8.05" y="58.72" width="80.09" height="11.19"/>
    <text class="cls-1" transform="translate(4.52 58.34)"><tspan x="0" y="0">A</tspan></text>
    <text class="cls-1" transform="translate(88.14 58.34)"><tspan x="0" y="0">B</tspan></text>
    <text class="cls-1" transform="translate(3.82 71.29)"><tspan x="0" y="0">C</tspan></text>
    <text class="cls-1" transform="translate(88.91 71.54)"><tspan x="0" y="0">D</tspan></text>
  </g>
</svg>