<?xml version="1.0" encoding="UTF-8"?>
<svg id="Layer_12" data-name="Layer 12" xmlns="http://www.w3.org/2000/svg" viewBox="0 0 96 96">
  <defs>
    <style>
      .cls-1 {
        fill: none;
        stroke: #231f20;
        stroke-miterlimit: 10;
        stroke-width: .5px;
      }
    </style>
  </defs>
  <path class="cls-1" d="m4.63,82.15c.58.11,1.22.21,1.74-.09.49-.28.74-.83.95-1.35.47-1.12.94-2.23,1.41-3.35"/>
  <line class="cls-1" x1="9.78" y1="67.52" x2="12.39" y2="68.53"/>
  <polyline class="cls-1" points="6.02 76.15 10.02 66.3 12.18 64.97 12.67 67.34 8.73 77.13"/>
  <path class="cls-1" d="m90.58,82.54c-1.4-1.34-2.43-3.06-2.95-4.93"/>
  <line class="cls-1" x1="83.6" y1="68.59" x2="86.07" y2="67.56"/>
  <polyline class="cls-1" points="87.62 77.46 82.93 67.19 83.44 64.98 85.61 65.96 90.04 76.37"/>
  <line class="cls-1" x1="40.15" y1="11.28" x2="56.71" y2="11.2"/>
  <line class="cls-1" x1="41.21" y1="8.12" x2="54.76" y2="8.09"/>
  <line class="cls-1" x1="28.84" y1="25.9" x2="66.52" y2="25.72"/>
  <path class="cls-1" d="m26.21,16.84c3.41,10.05,4.57,20.77,4.52,31.4-.05,10.63-1.28,21.21-2.52,31.76"/>
  <path class="cls-1" d="m69.47,17.19c-2.77,5.18-3.66,11.16-4.19,17.04-1.38,15.26-.65,30.72,2.14,45.77l-38.97-.29"/>
  <line class="cls-1" x1="11.37" y1="79.02" x2="30.59" y2="38.84"/>
  <polyline class="cls-1" points="41.5 7.94 40.06 11.29 26.38 16.75 3.43 75.48 .94 80.36 8.5 84 11.27 78.54 3.62 75.1"/>
  <line class="cls-1" x1="85.12" y1="78.83" x2="65" y2="37.46"/>
  <polyline class="cls-1" points="54.54 8.18 56.52 11.12 69.46 16.94 92.68 75.2 95.17 80.07 87.51 84.19 85.31 78.83 92.49 75.29"/>
</svg>