<?xml version="1.0" encoding="UTF-8"?>
<svg id="Layer_12" data-name="Layer 12" xmlns="http://www.w3.org/2000/svg" viewBox="0 0 96 96">
  <defs>
    <style>
      .cls-1 {
        fill: #fff;
      }

      .cls-1, .cls-2 {
        stroke: #231f20;
        stroke-miterlimit: 10;
        stroke-width: .5px;
      }

      .cls-2 {
        fill: none;
      }
    </style>
  </defs>
  <circle class="cls-1" cx="47.9" cy="22.04" r=".47"/>
  <circle class="cls-1" cx="47.9" cy="30.34" r=".47"/>
  <circle class="cls-1" cx="47.9" cy="38.59" r=".47"/>
  <circle class="cls-1" cx="47.9" cy="46.84" r=".47"/>
  <circle class="cls-1" cx="47.79" cy="55.04" r=".47"/>
  <circle class="cls-1" cx="47.79" cy="63.09" r=".47"/>
  <polyline class="cls-2" points="53.44 8.4 55.95 11.69 67.68 16.84 84.32 57.33 75.68 61.07 63.82 36.44"/>
  <polyline class="cls-2" points="41.84 8.36 39.45 11.13 27.79 16.2 10.87 56.83 19.47 60.55 31.42 36.56"/>
  <path class="cls-2" d="m67.5,16.78c-3.48,6.5-3.85,14.17-3.9,21.55-.09,11.83.41,23.66,1.5,35.44"/>
  <path class="cls-2" d="m27.89,16.28c2.39,6.68,3.72,13.74,3.93,20.83.08,2.79,0,5.59-.1,8.38-.31,9.48-.62,18.99-2.04,28.37"/>
  <path class="cls-2" d="m65.07,73.57c-2.07-.29-4.08.7-6.03,1.47-8.03,3.19-17.34,2.98-25.22-.55-1.33-.59-2.87-1.28-4.15-.6"/>
  <path class="cls-2" d="m65.04,73.56c-2.54,1.38-4.18,3.95-6.36,5.85-3.94,3.43-9.53,4.47-14.71,3.88-1.57-.18-3.14-.5-4.6-1.08-2.27-.9-4.28-2.45-5.74-4.4-1.16-1.56-2.16-3.51-4.02-4.06"/>
  <line class="cls-2" x1="41.66" y1="8.46" x2="53.58" y2="8.37"/>
  <line class="cls-2" x1="49.09" y1="17.84" x2="49.09" y2="76.84"/>
  <line class="cls-2" x1="46.71" y1="15.44" x2="46.66" y2="76.99"/>
  <path class="cls-2" d="m51.08,17.16c-2.02.7-4.33.67-6.33-.07"/>
  <path class="cls-2" d="m42.07,8.42c.04,1.81,1.17,3.41,2.38,4.76.99,1.11,2.29,2.21,3.77,2.05.89-.1,1.66-.65,2.3-1.27,1.59-1.53,2.65-3.61,2.95-5.8"/>
  <path class="cls-2" d="m48.93,15.09c1.86,1.17,3.31,2.99,4.05,5.06,1.37-2.74,2.41-5.65,3.08-8.64"/>
  <path class="cls-2" d="m39.42,11.33c1.32,2.75,2.21,5.71,2.64,8.73,1.44-1.87,2.93-3.77,4.95-5"/>
  <line class="cls-2" x1="42.25" y1="9.42" x2="53.23" y2="9.28"/>
  <polyline class="cls-2" points="43.43 11.73 43.46 11.73 52.09 11.87"/>
</svg>