<?xml version="1.0" encoding="UTF-8"?>
<svg id="Layer_9" data-name="Layer 9" xmlns="http://www.w3.org/2000/svg" viewBox="0 0 96 96">
  <defs>
    <style>
      .cls-1, .cls-2 {
        fill: none;
      }

      .cls-2 {
        stroke: #231f20;
        stroke-miterlimit: 10;
        stroke-width: .5px;
      }
    </style>
  </defs>
  <line class="cls-2" x1="40.52" y1="25.64" x2="55.07" y2="30.87"/>
  <line class="cls-2" x1="40.15" y1="8.16" x2="40.12" y2="9.71"/>
  <line class="cls-2" x1="39.54" y1="8.22" x2="39.51" y2="9.84"/>
  <line class="cls-2" x1="56.89" y1="8.14" x2="56.91" y2="9.75"/>
  <line class="cls-2" x1="56.31" y1="8.18" x2="56.3" y2="9.79"/>
  <line class="cls-2" x1="47.4" y1="8.14" x2="47.41" y2="9.86"/>
  <line class="cls-2" x1="48.68" y1="8.24" x2="48.7" y2="9.73"/>
  <line class="cls-2" x1="40.85" y1="9.79" x2="40.34" y2="13.51"/>
  <line class="cls-2" x1="43.2" y1="9.79" x2="42.51" y2="16.15"/>
  <line class="cls-1" x1="40.9" y1="9.95" x2="40.24" y2="13.52"/>
  <path class="cls-2" d="m55.71,10s.3,3.42.29,3.42l.02.28"/>
  <line class="cls-2" x1="37.95" y1="9.79" x2="58.64" y2="9.81"/>
  <path class="cls-2" d="m32.22,87.26c4.87,2.04,10.5,2.22,15.49.51"/>
  <path class="cls-1" d="m38.08,8.85s0,.02-.02.13c.06-.19.16-.37.28-.53,0,.06-.08.11-.26.4Z"/>
  <path class="cls-2" d="m48.22,10l.95,78.31"/>
  <path class="cls-2" d="m48.35,28.06c-.64,2.98-.64,6.05-.63,9.1.04,16.94.08,33.88.11,50.82"/>
  <path class="cls-2" d="m63.87,87.59c-4.65,1.76-9.88,1.95-14.65.53"/>
  <line class="cls-2" x1="37.97" y1="8.08" x2="58.46" y2="8.05"/>
  <path class="cls-2" d="m58.21,7.86c2,8.95,2.45,18.15,2.88,27.3.84,17.48,1.68,34.97,2.52,52.45"/>
  <path class="cls-2" d="m38.14,7.97c-2.46,13.94-3.18,28.11-3.9,42.25-.63,12.42-1.26,24.83-1.89,37.25"/>
  <line class="cls-2" x1="53.35" y1="9.77" x2="53.93" y2="16.07"/>
</svg>