<?xml version="1.0" encoding="UTF-8"?>
<svg id="Layer_12" data-name="Layer 12" xmlns="http://www.w3.org/2000/svg" viewBox="0 0 96 96">
  <defs>
    <style>
      .cls-1 {
        fill: none;
        stroke: #231f20;
        stroke-miterlimit: 10;
        stroke-width: .5px;
      }
    </style>
  </defs>
  <polyline class="cls-1" points="54.15 7.92 56.36 11.07 69.11 16.42 86.5 59.64 77.69 63.5 64.62 37.44"/>
  <path class="cls-1" d="m69.1,16.46c-2.47,4.3-3.68,9.23-4.16,14.16s-.24,9.91.03,14.86c.57,10.54,1.29,21.07,2.16,31.59"/>
  <path class="cls-1" d="m67.25,76.85c-2.53,2.09-5.73,3.15-8.85,4.16-1.75.57-3.51,1.14-5.33,1.37-1.36.17-2.74.16-4.11.12-7.19-.23-14.69-1.42-20.48-5.7"/>
  <path class="cls-1" d="m26.9,17.07c5.07,8.9,4.63,19.8,4.04,30.03-.27,4.68-.54,9.35-.81,14.03-.31,5.32-.61,10.64-1.23,15.94"/>
  <polyline class="cls-1" points="54.32 8.14 42.33 8.01 38.8 11.29 26.74 17.04 9.64 59.64 18.67 63.68 31.35 37.04"/>
  <line class="cls-1" x1="38.87" y1="11.43" x2="56.36" y2="11.18"/>
  <line class="cls-1" x1="30.17" y1="25.53" x2="65.94" y2="25.23"/>
</svg>