<?xml version="1.0" encoding="UTF-8"?>
<svg id="Layer_12" data-name="Layer 12" xmlns="http://www.w3.org/2000/svg" viewBox="0 0 96 96">
  <defs>
    <style>
      .cls-1 {
        fill: none;
        stroke: #231f20;
        stroke-miterlimit: 10;
        stroke-width: .5px;
      }
    </style>
  </defs>
  <line class="cls-1" x1="41.73" y1="8.56" x2="53.64" y2="8.65"/>
  <polyline class="cls-1" points="53.47 8.65 55.88 11.3 68.2 16.69"/>
  <path class="cls-1" d="m68.06,16.8c-4.2,6.59-4.64,14.83-4.61,22.64.04,11.73.84,23.47,2.41,35.09"/>
  <polyline class="cls-1" points="41.89 8.44 39.67 11.34 27.61 16.69"/>
  <path class="cls-1" d="m27.54,16.71c5.24,8.42,5.28,18.98,4.8,28.89-.48,9.86-1.32,19.71-2.52,29.52"/>
  <line class="cls-1" x1="68.22" y1="16.62" x2="77.06" y2="38.04"/>
  <line class="cls-1" x1="76.95" y1="37.77" x2="67.11" y2="42.32"/>
  <line class="cls-1" x1="67.17" y1="42.22" x2="63.47" y2="35.87"/>
  <polyline class="cls-1" points="27.61 16.57 18.57 37.88 28.62 42.06"/>
  <line class="cls-1" x1="32.48" y1="35.71" x2="28.25" y2="42.06"/>
  <line class="cls-1" x1="39.35" y1="11.43" x2="55.85" y2="11.34"/>
  <line class="cls-1" x1="31.21" y1="25.04" x2="64.62" y2="25.08"/>
  <path class="cls-1" d="m65.47,74.38c-4.03,4.74-8.59,9.8-14.73,10.78-3.97.64-8.06-.59-11.5-2.66s-6.32-4.94-9.08-7.86"/>
</svg>