<?xml version="1.0" encoding="UTF-8"?>
<svg id="SlimFit" xmlns="http://www.w3.org/2000/svg" viewBox="0 0 96 96">
  <defs>
    <style>
      .cls-1 {
        fill: #231f20;
        font-family: SFPro-Semibold, 'SF Pro';
        font-size: 4.49px;
        font-variation-settings: 'wdth' 100, 'opsz' 28, 'wght' 590;
        font-weight: 600;
      }

      .cls-2 {
        stroke: #ef4136;
        stroke-dasharray: 0 1;
        stroke-width: .5px;
      }

      .cls-2, .cls-3 {
        fill: none;
        stroke-miterlimit: 10;
      }

      .cls-3 {
        stroke: #010101;
        stroke-width: .25px;
      }
    </style>
  </defs>
  <g id="Baju">
    <path class="cls-3" d="m9.14,30.74c10.64-.05,12.34-12.08,14.64-18.74,9.38-2.88,40.21-2.46,47.9,0,2.11,7.72,5.28,19.51,14.7,18.74l-3.12,12.71c-.82,3.75-.32,8.19.34,11.07l2.78,19.75h1.29l1.67,11.69H6.12l1.88-11.52h1.06l2.94-19.76c.59-4.17.75-8.05,0-11.31l-2.86-12.62Z"/>
    <path class="cls-3" d="m10.33,32c12.41-2.33,12.52-15.74,14.38-19.1,15.34-2.2,30.68-2.14,46,.2,2.21,8.56,5.81,18.27,14.38,18.9l-3.02,11.37c-.6,3.23-.49,6.97.45,11.31l4.12,29.32H8.76l4.35-29.67c.59-3.23.65-8.44.14-10.76l-2.93-11.57Z"/>
  </g>
  <line class="cls-3" x1="47.73" y1="9.99" x2="48" y2="85.96"/>
  <g id="Guide_Line" data-name="Guide Line">
    <line class="cls-3" x1="12.45" y1="50.23" x2="13.02" y2="50.23"/>
    <line class="cls-3" x1="13.54" y1="50.23" x2="14.26" y2="50.23"/>
    <line class="cls-3" x1="18.8" y1="25.22" x2="19.24" y2="25.54"/>
    <line class="cls-3" x1="19.4" y1="24.21" x2="19.79" y2="24.53"/>
    <line class="cls-3" x1="20.43" y1="24.88" x2="20.84" y2="25.22"/>
    <line class="cls-3" x1="19.79" y1="25.89" x2="20.21" y2="26.24"/>
    <line class="cls-3" x1="10.15" y1="74.54" x2="10.82" y2="74.54"/>
    <line class="cls-3" x1="85.34" y1="74.68" x2="84.68" y2="74.68"/>
    <line class="cls-3" x1="81.83" y1="50.33" x2="81.12" y2="50.33"/>
    <line class="cls-3" x1="82.95" y1="50.33" x2="82.3" y2="50.33"/>
    <line class="cls-3" x1="76.13" y1="24.27" x2="75.75" y2="24.66"/>
    <line class="cls-3" x1="76.73" y1="25.26" x2="76.27" y2="25.6"/>
    <line class="cls-3" x1="75.23" y1="25.07" x2="74.83" y2="25.43"/>
    <line class="cls-3" x1="75.86" y1="26.06" x2="75.49" y2="26.35"/>
  </g>
  <g>
    <polyline class="cls-2" points="48.22 11.18 48.22 9.7 9.47 9.82 9.17 30.66"/>
    <text class="cls-1" transform="translate(5.01 10)"><tspan x="0" y="0">A</tspan></text>
    <text class="cls-1" transform="translate(86.11 8.9)"><tspan x="0" y="0">B</tspan></text>
    <text class="cls-1" transform="translate(2.32 87.13)"><tspan x="0" y="0">C</tspan></text>
    <text class="cls-1" transform="translate(89.55 87.65)"><tspan x="0" y="0">D</tspan></text>
    <text class="cls-1" transform="translate(5.6 32.12)"><tspan x="0" y="0">E</tspan></text>
    <text class="cls-1" transform="translate(87.55 32.12)"><tspan x="0" y="0">F</tspan></text>
    <text class="cls-1" transform="translate(70.59 8.9)"><tspan x="0" y="0">H</tspan></text>
    <text class="cls-1" transform="translate(21.19 8.9)"><tspan x="0" y="0">G</tspan></text>
    <polyline class="cls-2" points="48.22 10.18 48.22 9.7 85.94 9.76 86.11 30.33"/>
  </g>
</svg>