<?xml version="1.0" encoding="UTF-8"?>
<svg xmlns="http://www.w3.org/2000/svg" viewBox="0 0 96 96">
  <defs>
    <style>
      .cls-1 {
        fill: #231f20;
        font-family: SFPro-Semibold, 'SF Pro';
        font-size: 4.49px;
        font-variation-settings: 'wdth' 100, 'opsz' 28, 'wght' 590;
        font-weight: 600;
      }

      .cls-2 {
        stroke: #ed1c24;
        stroke-dasharray: 0 1;
        stroke-width: .5px;
      }

      .cls-2, .cls-3 {
        fill: none;
        stroke-miterlimit: 10;
      }

      .cls-3 {
        stroke: #010101;
        stroke-width: .25px;
      }
    </style>
  </defs>
  <g id="CutAwayCollar-2" data-name="CutAwayCollar">
    <g>
      <rect class="cls-2" x="8.35" y="25.5" width="79.71" height="18.79"/>
      <text class="cls-1" transform="translate(4.47 26.05)"><tspan x="0" y="0">A</tspan></text>
      <text class="cls-1" transform="translate(89.03 25.19)"><tspan x="0" y="0">B</tspan></text>
      <text class="cls-1" transform="translate(4.41 46.03)"><tspan x="0" y="0">C</tspan></text>
      <text class="cls-1" transform="translate(88.69 46.03)"><tspan x="0" y="0">D</tspan></text>
    </g>
    <g>
      <rect class="cls-2" x="8.11" y="55.02" width="80.09" height="11.19"/>
      <text class="cls-1" transform="translate(4.58 54.64)"><tspan x="0" y="0">A</tspan></text>
      <text class="cls-1" transform="translate(88.2 54.64)"><tspan x="0" y="0">B</tspan></text>
      <text class="cls-1" transform="translate(3.88 67.58)"><tspan x="0" y="0">C</tspan></text>
      <text class="cls-1" transform="translate(88.97 67.84)"><tspan x="0" y="0">D</tspan></text>
    </g>
  </g>
  <g id="ClassicCollar-2" data-name="ClassicCollar">
    <g>
      <path class="cls-3" d="m7.65,43.72l4.15-17.27c11.22,2.62,22.75,4.8,35.86,4.77,11.26.03,23.51-1.76,36.41-4.77l3.94,17.27c-3.11-.74-3.54-1.98-13.2-2.07l-26.85.28-24.15-.11c-7.32,0-12.79,1-16.16,1.91Z"/>
      <path class="cls-3" d="m12.73,28.06l-3.62,14.35c3.63-.99,7.2-2,14.8-1.79l23.92.07,28.88-.04c3.35.06,6.65.59,9.89,1.75l-3.61-14.6c-11.33,3.36-23.14,4.5-35.17,4.66-11.41.04-23.16-1.74-35.09-4.41Z"/>
      <line class="cls-3" x1="47.91" y1="31.22" x2="47.95" y2="41.93"/>
      <line class="cls-3" x1="24.32" y1="29.07" x2="24.32" y2="29.71"/>
      <line class="cls-3" x1="24.32" y1="30.36" x2="24.32" y2="31.09"/>
      <line class="cls-3" x1="71.17" y1="29.07" x2="71.17" y2="29.61"/>
      <polyline class="cls-3" points="71.17 30.53 71.17 30.53 71.17 31.13"/>
    </g>
    <g>
      <path class="cls-3" d="m8,64.84c.07-4.29,1.25-7.29,5.07-7.54,23.52-2.5,46.76-2.48,69.71.14,3.95.15,4.93,3.41,5.22,7.4-8.61,3.51-23.97,0-40,.33-17.94-.56-33.6,3.18-40-.33Z"/>
      <path class="cls-3" d="m9.32,63.4c.58-2.39,1.39-4.51,3.66-4.91,23.46-2.6,46.79-2.61,70,0,2.68.77,3.72,2.48,3.45,4.91-8.57,3.01-24.62-.59-38.42,0-15.83-.58-30.47,3.01-38.68,0Z"/>
      <line class="cls-3" x1="13.07" y1="57.3" x2="13.07" y2="58.01"/>
      <line class="cls-3" x1="13.16" y1="58.46" x2="11.95" y2="64.11"/>
      <line class="cls-3" x1="11.73" y1="61.29" x2="13.55" y2="61.29"/>
      <line class="cls-3" x1="11.73" y1="66.01" x2="11.73" y2="65.17"/>
      <line class="cls-3" x1="14.59" y1="64.47" x2="14.59" y2="63.73"/>
      <line class="cls-3" x1="14.48" y1="66.29" x2="14.48" y2="65.59"/>
      <line class="cls-3" x1="24.62" y1="56.27" x2="24.62" y2="56.91"/>
      <line class="cls-3" x1="24.62" y1="57.4" x2="24.62" y2="58.15"/>
      <line class="cls-3" x1="34.88" y1="63.67" x2="34.88" y2="62.88"/>
      <line class="cls-3" x1="34.88" y1="65.38" x2="34.88" y2="64.77"/>
      <line class="cls-3" x1="48.07" y1="55.26" x2="48" y2="65.17"/>
      <line class="cls-3" x1="61.19" y1="63.79" x2="61.19" y2="62.88"/>
      <line class="cls-3" x1="61.19" y1="65.56" x2="61.19" y2="64.62"/>
      <line class="cls-3" x1="71.43" y1="56.36" x2="71.43" y2="56.87"/>
      <line class="cls-3" x1="71.43" y1="57.34" x2="71.43" y2="57.95"/>
      <line class="cls-3" x1="81.39" y1="64.42" x2="81.39" y2="63.71"/>
      <line class="cls-3" x1="81.39" y1="66.25" x2="81.39" y2="65.47"/>
      <line class="cls-3" x1="82.97" y1="58.48" x2="84.04" y2="63.83"/>
      <line class="cls-3" x1="82.97" y1="57.45" x2="82.97" y2="58.14"/>
      <line class="cls-3" x1="84.38" y1="65.86" x2="84.28" y2="64.77"/>
      <circle class="cls-3" cx="83.51" cy="61.26" r=".56"/>
    </g>
  </g>
</svg>