<?xml version="1.0" encoding="UTF-8"?>
<svg xmlns="http://www.w3.org/2000/svg" viewBox="0 0 96 96">
  <defs>
    <style>
      .cls-1 {
        fill: #fff;
      }

      .cls-1, .cls-2 {
        stroke: #231f20;
        stroke-miterlimit: 10;
        stroke-width: .5px;
      }

      .cls-2 {
        fill: none;
      }
    </style>
  </defs>
  <g id="ClassicFit_LongSleeve_ClassicCollar_Depan" data-name="ClassicFit/LongSleeve/ClassicCollar/Depan">
    <circle class="cls-1" cx="50.32" cy="24.17" r=".47"/>
    <circle class="cls-1" cx="50.32" cy="33.42" r=".47"/>
    <circle class="cls-1" cx="50.32" cy="42.67" r=".47"/>
    <circle class="cls-1" cx="50.15" cy="51.92" r=".47"/>
    <circle class="cls-1" cx="50.15" cy="61.17" r=".47"/>
    <circle class="cls-1" cx="50.15" cy="70.52" r=".47"/>
  </g>
  <g id="Layer_12" data-name="Layer 12">
    <line class="cls-2" x1="43.95" y1="8.23" x2="56.68" y2="8.15"/>
    <polyline class="cls-2" points="56.45 8.05 59.08 11.93 72.81 17.66 82.85 41.36 71.36 46.55 67.9 39.03"/>
    <path class="cls-2" d="m72.89,17.65c-2.15,2.96-3.09,6.62-3.72,10.23-1.23,7.04-1.45,14.2-1.66,21.34-.11,3.8-.23,7.61.08,11.4.6,7.39,2.81,14.66,2.62,22.07"/>
    <path class="cls-2" d="m27.67,17.81c4.34,8.26,4.73,17.97,4.77,27.3.03,9.32-.21,18.68-1.64,27.89-.5,3.26-1.16,6.55-.74,9.82"/>
    <polyline class="cls-2" points="44.11 8.12 41.25 11.72 27.4 17.67 17.03 41.41 28.72 46.4 32.55 39.34"/>
    <line class="cls-2" x1="29.81" y1="82.55" x2="70.34" y2="82.83"/>
    <line class="cls-2" x1="51.78" y1="18.97" x2="51.72" y2="82.37"/>
    <line class="cls-2" x1="48.58" y1="19.09" x2="48.52" y2="82.67"/>
    <path class="cls-2" d="m43.95,8.27c-.29,1.7.45,3.44,1.57,4.75s2.6,2.25,4.05,3.18"/>
    <path class="cls-2" d="m56.53,8.12c.09,3.41-2.14,6.76-5.33,8"/>
    <path class="cls-2" d="m44.11,22.1c.73-1.48,1.66-2.86,2.76-4.09.9-1.01,2.06-1.98,3.41-1.94,1.45.04,2.59,1.23,3.39,2.43s1.48,2.57,2.7,3.36c1.16-3.35,2.07-6.79,2.73-10.28"/>
    <path class="cls-2" d="m41.15,11.7c.65,3.56,1.32,7.18,3.04,10.36"/>
    <path class="cls-2" d="m53.48,18.32c-1.05.79-2.49.79-3.8.69-.54-.04-1.08-.09-1.6-.22-.46-.11-.92-.27-1.34-.49"/>
    <path class="cls-2" d="m50,16.02c-.55.18-.97.64-1.2,1.18s-.26,1.13-.21,1.7"/>
    <line class="cls-2" x1="44.03" y1="9.67" x2="56.36" y2="9.73"/>
    <line class="cls-2" x1="44.86" y1="12.36" x2="55.62" y2="12.45"/>
  </g>
</svg>