<?xml version="1.0" encoding="UTF-8"?>
<svg id="Layer_27" data-name="Layer 27" xmlns="http://www.w3.org/2000/svg" viewBox="0 0 96 96">
  <defs>
    <style>
      .cls-1 {
        fill: none;
        stroke: #010101;
        stroke-miterlimit: 10;
        stroke-width: .5px;
      }
    </style>
  </defs>
  <g id="Baju_Belakang" data-name="Baju Belakang">
    <path class="cls-1" d="m68.08,78.69c-13.37,8.09-26.69,8.13-39.98,0l2.66-39.99c.64-7.69-.38-14.94-4.59-21.34l13.68-5.56c5.44.69,11.03.67,16.77,0l13.23,5.45c-4.07,6.02-5.23,13.29-4.59,21.34l2.83,40.09Z"/>
    <path class="cls-1" d="m30.04,26.43c11.99-1.47,23.97-1.52,35.92-.11"/>
  </g>
  <path id="Kerah_Belakang" data-name="Kerah Belakang" class="cls-1" d="m56.61,11.8c-5.78.68-11.38.73-16.77,0l1.92-3.03c4.1.3,8.34.28,12.67,0l2.17,3.03Z"/>
  <path id="Lengan_Kiri" data-name="Lengan Kiri" class="cls-1" d="m26.16,17.36L9.77,59.82l8.84,3.61,12.15-24.72c1.01-7.13-.51-14.24-4.59-21.34Z"/>
  <path id="Lengan_Kanan" data-name="Lengan Kanan" class="cls-1" d="m69.84,17.25l16.39,42.46-8.84,3.61-12.15-24.72c-1.01-7.13.51-14.24,4.59-21.34Z"/>
</svg>