<?xml version="1.0" encoding="UTF-8"?>
<svg xmlns="http://www.w3.org/2000/svg" viewBox="0 0 96 96">
  <defs>
    <style>
      .cls-1 {
        fill: #fff;
      }

      .cls-1, .cls-2 {
        stroke: #231f20;
        stroke-miterlimit: 10;
        stroke-width: .5px;
      }

      .cls-2 {
        fill: none;
      }
    </style>
  </defs>
  <g id="ClassicFit_LongSleeve_ClassicCollar_Depan" data-name="ClassicFit/LongSleeve/ClassicCollar/Depan">
    <circle class="cls-1" cx="48.78" cy="22.57" r=".47"/>
    <circle class="cls-1" cx="48.78" cy="31.53" r=".47"/>
    <circle class="cls-1" cx="48.64" cy="40.03" r=".47"/>
    <circle class="cls-1" cx="48.7" cy="48.7" r=".47"/>
    <circle class="cls-1" cx="48.78" cy="57.7" r=".47"/>
    <circle class="cls-1" cx="48.58" cy="66.45" r=".47"/>
  </g>
  <g id="Layer_12" data-name="Layer 12">
    <polyline class="cls-2" points="55.04 7.78 57.41 11.23 69.86 16.78 79.35 38.99 68.73 43.79 65.66 37.27"/>
    <polyline class="cls-2" points="55.2 7.92 42.53 7.75 39.76 11.1 27.28 16.39 17.47 39.13 28.14 43.74 31.56 37.4"/>
    <path class="cls-2" d="m70.04,17.13c-4.47,8.01-4.68,17.6-4.34,26.74.42,11.22,1.5,22.42,3.25,33.51"/>
    <path class="cls-2" d="m27.22,16.49c4.47,7.01,4.59,15.87,4.29,24.18-.45,12.43-1.5,24.85-3.15,37.18"/>
    <line class="cls-2" x1="28.1" y1="77.79" x2="29.95" y2="78.26"/>
    <line class="cls-2" x1="68.99" y1="77.25" x2="67.56" y2="78.34"/>
    <line class="cls-2" x1="67.22" y1="64.52" x2="67.52" y2="78.27"/>
    <line class="cls-2" x1="30.13" y1="61.81" x2="29.87" y2="77.9"/>
    <path class="cls-2" d="m68.81,77.61c-5,2.58-10.27,4.76-15.82,5.71s-11.42.6-16.55-1.7c-2.73-1.22-5.26-2.99-8.18-3.67"/>
    <path class="cls-2" d="m67.79,77.92c-4.75.19-9.2,2.28-13.87,3.15-6.33,1.17-12.88.07-19.03-1.8-2.13-.65-4.25-1.39-6.47-1.57"/>
    <line class="cls-2" x1="50.14" y1="17.84" x2="50.14" y2="81.55"/>
    <line class="cls-2" x1="47.38" y1="18.04" x2="47.31" y2="81.42"/>
    <path class="cls-2" d="m42.53,7.75c.26,1.17.62,2.31,1.08,3.42.29.69.62,1.37,1.09,1.95,1.09,1.31,2.86,1.92,4.56,1.96.44.01.88-.01,1.29-.15.9-.29,1.56-1.06,2.1-1.84,1.07-1.55,1.85-3.31,2.29-5.14"/>
    <path class="cls-2" d="m40.02,10.96c.71,3.35,1.43,6.71,2.54,9.94.35-.96,1.03-1.76,1.71-2.53.77-.87,1.54-1.75,2.31-2.62.23-.26.48-.54.8-.68.32-.15.69-.15,1.05-.16.76,0,1.56,0,2.21.38.37.22.67.55.94.89.49.63.9,1.32,1.3,2.01.54.93,1.09,1.85,1.63,2.78.99-3.23,1.91-6.48,2.76-9.75"/>
    <path class="cls-2" d="m45.47,17.28c2.1.93,4.65.77,6.61-.42"/>
    <path class="cls-2" d="m49.22,14.94c-.41-.06-.88-.1-1.21.16-.25.2-.35.53-.42.84-.14.62-.22,1.26-.23,1.9,0-.06,0-.13.01-.19"/>
    <line class="cls-2" x1="42.79" y1="8.78" x2="54.73" y2="8.78"/>
    <line class="cls-2" x1="43.82" y1="11.56" x2="53.58" y2="11.69"/>
  </g>
</svg>