<?xml version="1.0" encoding="UTF-8"?>
<svg id="ClassicFit_LongSleeve_ClassicCollar_Depan" data-name="ClassicFit/LongSleeve/ClassicCollar/Depan" xmlns="http://www.w3.org/2000/svg" viewBox="0 0 96 96">
  <defs>
    <style>
      .cls-1 {
        fill: #fff;
        stroke: #231f20;
        stroke-miterlimit: 10;
        stroke-width: .5px;
      }
    </style>
  </defs>
  <path class="cls-1" d="m67.45,77.89c-4.51,2.33-9.12,4.69-14.13,5.52-1.76.29-3.54.39-5.32.43-2.22.05-4.45.02-6.63-.34-4.17-.69-8.05-2.53-11.86-4.36-.76-.37-1.54-.74-2.19-1.28"/>
  <polyline class="cls-1" points="38.73 11.07 26.35 16.59 3.14 73.86 11.48 77.51 30.22 38.21 28.73 78.06"/>
  <polyline class="cls-1" points="3.6 74.16 1.46 78.51 8.99 81.85 11.24 77.8"/>
  <line class="cls-1" x1="29.32" y1="61.22" x2="27.23" y2="77.8"/>
  <path class="cls-1" d="m27.11,77.82c2.22.22,4.42.64,6.56,1.25,1.3.37,2.57.82,3.87,1.17,4.74,1.29,9.72,1.37,14.62,1.08,1.19-.07,2.38-.17,3.55-.42,1.48-.33,2.9-.91,4.34-1.37,1.98-.62,4.03-1,6.07-1.38.61-.11,1.22-.23,1.83-.34"/>
  <polyline class="cls-1" points="53.85 7.82 56.45 11.05 69.2 16.97"/>
  <line class="cls-1" x1="69.21" y1="16.91" x2="92.02" y2="74.25"/>
  <path class="cls-1" d="m68.83,16.98c-4.07,9.41-4.48,19.98-3.92,30.22s2.03,20.46,1.49,30.69"/>
  <line class="cls-1" x1="66.16" y1="63.83" x2="68.09" y2="77.96"/>
  <line class="cls-1" x1="64.94" y1="37.88" x2="84.2" y2="77.64"/>
  <path class="cls-1" d="m83.99,77.75c2.75-1.21,5.5-2.42,8.23-3.68"/>
  <line class="cls-1" x1="84.37" y1="77.64" x2="86.1" y2="81.66"/>
  <line class="cls-1" x1="91.99" y1="74.32" x2="93.87" y2="78.48"/>
  <line class="cls-1" x1="85.82" y1="81.66" x2="93.77" y2="78.25"/>
  <path class="cls-1" d="m54,7.88c-4.07,0-8.14.06-12.21.19"/>
  <line class="cls-1" x1="41.91" y1="8" x2="38.6" y2="11.13"/>
  <path class="cls-1" d="m56.47,11.18c-.64,3.31-1.69,6.54-3.13,9.59"/>
  <path class="cls-1" d="m38.88,10.97c.83,3.37,1.92,6.68,3.25,9.88"/>
  <path class="cls-1" d="m53.87,7.98c.12,1.58-.33,3.21-1.27,4.5s-2.33,2.23-3.87,2.61"/>
  <path class="cls-1" d="m41.82,8.18c.07.92.26,1.83.55,2.71.15.45.33.9.6,1.29.23.34.52.63.82.91.89.83,1.9,1.58,3.04,2l.03.03"/>
  <line class="cls-1" x1="41.78" y1="9.1" x2="53.89" y2="8.98"/>
  <line class="cls-1" x1="42.56" y1="11.56" x2="53.2" y2="11.51"/>
  <line class="cls-1" x1="48.9" y1="81.4" x2="49.31" y2="17.88"/>
  <line class="cls-1" x1="46.56" y1="81.23" x2="46.64" y2="18.13"/>
  <path class="cls-1" d="m42.06,20.7c.71-1.55,1.75-2.92,2.85-4.22.29-.34.58-.68.92-.96.26-.22.55-.41.86-.56"/>
  <path class="cls-1" d="m53.38,20.57l-2.8-4.05c-.21-.31-.43-.62-.71-.88s-.63-.45-1.01-.47"/>
  <path class="cls-1" d="m51.25,17.55c-1.13.2-2.26.41-3.41.42s-2.32-.16-3.34-.69"/>
  <path class="cls-1" d="m47.26,15.21c-.27.22-.39.57-.48.9-.16.65-.24,1.33-.22,2"/>
  <path class="cls-1" d="m49.36,15.24c-.76-.02-1.52,0-2.28.04"/>
  <path class="cls-1" d="m46.47,14.93c.25.2.59.25.9.27.54.02,1.09-.03,1.62-.16"/>
  <circle class="cls-1" cx="47.89" cy="22.73" r=".47"/>
  <circle class="cls-1" cx="47.83" cy="31.53" r=".47"/>
  <circle class="cls-1" cx="47.83" cy="48.91" r=".47"/>
  <circle class="cls-1" cx="47.83" cy="57.76" r=".47"/>
  <circle class="cls-1" cx="47.83" cy="66.5" r=".47"/>
  <circle class="cls-1" cx="47.83" cy="66.5" r=".47"/>
  <circle class="cls-1" cx="47.88" cy="40.32" r=".47"/>
</svg>