<?xml version="1.0" encoding="UTF-8"?>
<svg id="Layer_12" data-name="Layer 12" xmlns="http://www.w3.org/2000/svg" viewBox="0 0 96 96">
  <defs>
    <style>
      .cls-1 {
        fill: none;
        stroke: #231f20;
        stroke-miterlimit: 10;
        stroke-width: .5px;
      }
    </style>
  </defs>
  <line class="cls-1" x1="41.49" y1="8.67" x2="54.23" y2="8.76"/>
  <polyline class="cls-1" points="53.96 8.67 56.68 12.01 70.46 18.09"/>
  <polyline class="cls-1" points="70.36 18.18 89.22 64.14 79.26 68.37"/>
  <path class="cls-1" d="m70.24,18.22c-4.61,10.2-4.77,21.78-4.71,32.98.05,10.74.24,21.53,1.98,32.13"/>
  <line class="cls-1" x1="65.7" y1="40.06" x2="79.52" y2="68.32"/>
  <polyline class="cls-1" points="41.56 8.61 39.13 11.91 25.46 18.01"/>
  <polyline class="cls-1" points="25.59 17.88 6.57 64.05 16.29 68.09"/>
  <path class="cls-1" d="m25.63,18.23c3.24,5.11,3.85,11.41,4.34,17.45.79,9.82,1.46,19.72.33,29.5-.7,6.06-2.08,12.05-2.12,18.15"/>
  <line class="cls-1" x1="30.28" y1="37.81" x2="16.23" y2="68.31"/>
  <line class="cls-1" x1="28.19" y1="83.11" x2="67.69" y2="83.22"/>
  <line class="cls-1" x1="28.85" y1="27.19" x2="67.18" y2="27.1"/>
  <line class="cls-1" x1="39.2" y1="12.07" x2="56.47" y2="12.07"/>
</svg>