<?xml version="1.0" encoding="UTF-8"?>
<svg id="Classic_Fit_Lingkar_Leher" data-name="Classic Fit Lingkar Leher" xmlns="http://www.w3.org/2000/svg" viewBox="0 0 96 96">
  <defs>
    <style>
      .cls-1 {
        fill: #231f20;
        font-family: SFPro-Semibold, 'SF Pro';
        font-size: 4.49px;
        font-variation-settings: 'wdth' 100, 'opsz' 28, 'wght' 590;
        font-weight: 600;
      }

      .cls-2 {
        stroke: #ef4136;
        stroke-dasharray: 0 1;
        stroke-width: .5px;
      }

      .cls-2, .cls-3 {
        fill: none;
        stroke-miterlimit: 10;
      }

      .cls-3 {
        stroke: #010101;
        stroke-width: .25px;
      }
    </style>
  </defs>
  <g>
    <path class="cls-3" d="m6.38,38.22l28.68-8.39c2.19,6.15,6.05,10.25,13.74,9.65,8.35-.21,12.66-3.62,13.67-9.65l28.65,8.39c-3.86,5.94-3.89,12.79-1.93,20.11l-80.85-.39c2.03-7.11,1.9-13.79-1.97-19.72Z"/>
    <path class="cls-3" d="m9.01,39.07l25-7.25c2.21,6.22,6.69,9.87,14.75,9.48,7.66.02,13.12-2.56,14.94-9.48l25,7.25c-2.98,4.97-3.2,10.79-1.98,17.07H10.59c1.99-5.47,1.38-11.17-1.58-17.07Z"/>
    <line class="cls-3" x1="9.79" y1="44.34" x2="9" y2="44.58"/>
    <line class="cls-3" x1="11.7" y1="43.74" x2="10.95" y2="43.97"/>
    <line class="cls-3" x1="36.22" y1="36.12" x2="35.62" y2="36.31"/>
    <line class="cls-3" x1="38.16" y1="35.52" x2="37.43" y2="35.74"/>
    <line class="cls-3" x1="87.73" y1="44.34" x2="88.45" y2="44.57"/>
    <line class="cls-3" x1="85.45" y1="43.62" x2="86.66" y2="44"/>
    <line class="cls-3" x1="61.74" y1="36.11" x2="62.33" y2="36.29"/>
    <line class="cls-3" x1="59.88" y1="35.52" x2="60.45" y2="35.7"/>
    <polyline class="cls-2" points="48.76 29.83 48.76 58.13 48.81 39.48"/>
  </g>
  <polyline class="cls-2" points="91.13 58.32 91.13 29.83 6.38 29.83 6.38 58.32"/>
  <text class="cls-1" transform="translate(4.92 28)"><tspan x="0" y="0">A</tspan></text>
  <text class="cls-1" transform="translate(89.78 27.07)"><tspan x="0" y="0">B</tspan></text>
  <text class="cls-1" transform="translate(4.97 61.94)"><tspan x="0" y="0">C</tspan></text>
  <text class="cls-1" transform="translate(89.39 62.49)"><tspan x="0" y="0">D</tspan></text>
  <text class="cls-1" transform="translate(33.77 28)"><tspan x="0" y="0">E</tspan></text>
  <text class="cls-1" transform="translate(2.15 40.38)"><tspan x="0" y="0">F</tspan></text>
  <text class="cls-1" transform="translate(49.7 38.59)"><tspan x="0" y="0">I</tspan></text>
  <text class="cls-1" transform="translate(91.13 39.76)"><tspan x="0" y="0">H</tspan></text>
  <text class="cls-1" transform="translate(60.45 28)"><tspan x="0" y="0">G</tspan></text>
</svg>