<?xml version="1.0" encoding="UTF-8"?>
<svg id="Layer_7" data-name="Layer 7" xmlns="http://www.w3.org/2000/svg" viewBox="0 0 96 96">
  <defs>
    <style>
      .cls-1 {
        fill: none;
        stroke: #010101;
        stroke-dasharray: 0 0 0 0 0 0 0 0 0 0 0 0;
        stroke-miterlimit: 10;
        stroke-width: .5px;
      }
    </style>
  </defs>
  <path class="cls-1" d="m58.51,87.98l.84-35.01c.14-5.88.28-11.76.43-17.63.1-4.11.2-8.23.01-12.34-.22-4.91-.84-9.81-1.93-14.61"/>
  <path class="cls-1" d="m47.61,10.75c-.12,25.82,2.66,51.62,1.9,77.44"/>
  <path class="cls-1" d="m46.31,88.12c-.28-12.31-.55-24.62-.16-36.92.25-8.04.79-16.08,1.62-24.09"/>
  <path class="cls-1" d="m37.51,8.67c-.59,3.72-1.18,7.45-1.53,11.21-.69,7.32-.46,14.7-.23,22.05.48,15.44.96,30.88,1.45,46.32"/>
  <path class="cls-1" d="m46.32,87.96c-2.61,1-5.52,1.22-8.26.62-.4-.09-.87-.27-.93-.67"/>
  <path class="cls-1" d="m58.65,87.86c-.21.21-.52.29-.81.36-1.39.33-2.8.56-4.23.56s-2.86-.23-4.18-.78"/>
  <path class="cls-1" d="m47.81,23.68c.83-.05,1.55-.68,1.9-1.44s.43-1.61.45-2.44c.09-3.01-.3-6.03-.1-9.04"/>
  <path class="cls-1" d="m57.89,8.58c-6.87-.34-13.76.46-20.63.01"/>
  <line class="cls-1" x1="58.38" y1="10.73" x2="37.17" y2="10.71"/>
</svg>