<?xml version="1.0" encoding="UTF-8"?>
<svg xmlns="http://www.w3.org/2000/svg" viewBox="0 0 96 96">
  <defs>
    <style>
      .cls-1 {
        fill: #fff;
      }

      .cls-1, .cls-2 {
        stroke: #231f20;
        stroke-miterlimit: 10;
        stroke-width: .5px;
      }

      .cls-2 {
        fill: none;
      }
    </style>
  </defs>
  <g id="ClassicFit_LongSleeve_ClassicCollar_Depan" data-name="ClassicFit/LongSleeve/ClassicCollar/Depan">
    <circle class="cls-1" cx="48.1" cy="22.67" r=".47"/>
    <circle class="cls-1" cx="48.1" cy="30.82" r=".47"/>
    <circle class="cls-1" cx="48.1" cy="30.82" r=".47"/>
    <circle class="cls-1" cx="47.99" cy="39.02" r=".47"/>
    <circle class="cls-1" cx="48" cy="47.05" r=".47"/>
    <circle class="cls-1" cx="47.99" cy="55.12" r=".47"/>
    <circle class="cls-1" cx="47.99" cy="63.53" r=".47"/>
  </g>
  <g id="Layer_12" data-name="Layer 12">
    <path class="cls-2" d="m67.83,17.11c-2.35,4.55-3.02,9.77-3.44,14.88-1.14,13.94-.73,28,1.23,41.85"/>
    <path class="cls-2" d="m28.37,17.03c2.23,4.22,3.07,9.04,3.49,13.79,1.27,14.45-1.12,28.94-1.41,43.44"/>
    <polyline class="cls-2" points="42.98 8.39 40.18 11.56 28.65 16.44 11.78 56.99 20.4 61.31 32.4 36.63"/>
    <path class="cls-2" d="m30.34,74.38c.74-.61,1.78-.73,2.72-.57s1.81.58,2.69.97c4.49,1.98,9.43,3.17,14.3,2.65,5.32-.57,10.27-3.14,15.58-3.68"/>
    <path class="cls-2" d="m40.03,12.02c.56,2.62,2.01,5.04,4.06,6.77.91-1.27,1.93-2.46,3.04-3.56-2.37-1.08-4.15-3.37-4.6-5.94,0-.01,0-.02-2.5,2.73Z"/>
    <path class="cls-2" d="m65.59,73.86c-1.87.57-2.98,2.42-4.23,3.91-3.79,4.54-10.16,6.53-16,5.61s-11.07-4.54-14.58-9.3"/>
    <line class="cls-2" x1="43.68" y1="12.14" x2="52.77" y2="11.89"/>
    <path class="cls-2" d="m44.85,17.67c1.44.67,3.11.5,4.69.32.57-.07,1.16-.14,1.65-.43"/>
    <line class="cls-2" x1="49.42" y1="18.05" x2="49.47" y2="77.69"/>
    <line class="cls-2" x1="46.9" y1="18.32" x2="46.7" y2="77.44"/>
    <path class="cls-2" d="m49.61,15.24c-.6,0-1.21.03-1.81.08-.12.01-.24.02-.35.06-.3.1-.51.38-.61.68s-.09.61-.08.91c0,.44.02.88.03,1.31"/>
    <line class="cls-2" x1="53.36" y1="8.6" x2="42.81" y2="8.5"/>
    <polyline class="cls-2" points="53.14 8.47 55.77 11.95 69.05 17.66 88.9 58.52"/>
    <line class="cls-2" x1="79.94" y1="64.08" x2="88.82" y2="58.67"/>
    <line class="cls-2" x1="64.34" y1="37.36" x2="80.17" y2="63.92"/>
    <path class="cls-2" d="m56.35,12.2c.04.64-.29,1.23-.63,1.77-.98,1.58-2.15,3.04-3.48,4.34-.1.1-.22.2-.36.19-.62-1.28-1.29-2.62-2.47-3.41,1.04-.61,1.84-1.53,2.63-2.45.81-.94,1.66-1.97,1.79-3.21"/>
  </g>
</svg>