<?xml version="1.0" encoding="UTF-8"?>
<svg xmlns="http://www.w3.org/2000/svg" viewBox="0 0 96 96">
  <defs>
    <style>
      .cls-1 {
        fill: #fff;
        stroke: #231f20;
      }

      .cls-1, .cls-2 {
        stroke-miterlimit: 10;
        stroke-width: .5px;
      }

      .cls-2 {
        fill: none;
        stroke: #020202;
      }
    </style>
  </defs>
  <g id="ClassicFit_LongSleeve_ClassicCollar_Depan" data-name="ClassicFit/LongSleeve/ClassicCollar/Depan">
    <circle class="cls-1" cx="48" cy="24.61" r=".47"/>
    <circle class="cls-1" cx="48" cy="33.41" r=".47"/>
    <circle class="cls-1" cx="48" cy="42.06" r=".47"/>
    <circle class="cls-1" cx="48" cy="50.81" r=".47"/>
    <circle class="cls-1" cx="48" cy="59.32" r=".47"/>
    <circle class="cls-1" cx="48" cy="67.99" r=".47"/>
  </g>
  <g id="Layer_13" data-name="Layer 13">
    <line class="cls-2" x1="43.2" y1="13.5" x2="52.69" y2="13.68"/>
    <line class="cls-2" x1="42" y1="11.18" x2="53.66" y2="11.07"/>
    <line class="cls-2" x1="46.37" y1="20.07" x2="46.74" y2="79.28"/>
    <line class="cls-2" x1="49.17" y1="20.23" x2="49.39" y2="79.65"/>
    <line class="cls-2" x1="41.53" y1="10.05" x2="54.19" y2="10.03"/>
    <line class="cls-2" x1="28.42" y1="79.72" x2="67.32" y2="79.72"/>
    <path class="cls-2" d="m27.22,18.66c2.14,4.65,2.86,9.81,3.33,14.91,1.41,15.48.68,31.15-2.17,46.43"/>
    <line class="cls-2" x1="11.72" y1="79.13" x2="30.96" y2="39.51"/>
    <polyline class="cls-2" points="41.75 10.04 39.14 13.04 27.1 18.44 3.5 75.91 1.7 81.04 9.32 84.24 11.99 79.31 3.7 75.98"/>
    <line class="cls-2" x1="83.94" y1="79.22" x2="64.86" y2="39.73"/>
    <polyline class="cls-2" points="53.98 10.04 57.06 13.07 69.03 18.44 91.77 75.68 94.03 80.54 86.34 84.19 83.9 79.39 91.6 75.8"/>
    <path class="cls-2" d="m68.61,18.45c-3.58,9.68-4.9,20.09-4.82,30.41s1.5,20.59,3.27,30.75"/>
    <path class="cls-2" d="m57.03,13.19c-.18,2.02-.15,4.05.09,6.06-.32-.25-.68-.42-1.05-.58-1.87-.82-3.79-1.52-5.75-2.09"/>
    <path class="cls-2" d="m41.83,17.48c.97,1.59,2.72,2.31,4.4,2.58,1.27.2,2.57.18,3.8-.21,1.23-.39,2.39-1.18,3.16-2.35"/>
    <path class="cls-2" d="m39.23,13.21c.05,2.01-.13,4.02-.53,5.98,1.88-1.58,4.19-2.63,6.62-3.01"/>
    <path class="cls-2" d="m41.83,10.24c.28,1.98,1.49,3.7,2.76,5.26.25.3.5.6.82.83.39.27.85.41,1.31.51.85.19,1.74.26,2.6.1s1.69-.57,2.26-1.23c.47-.54.75-1.21,1.02-1.86.5-1.2,1-2.4,1.5-3.61"/>
    <path class="cls-2" d="m47.61,17.02c-.82.84-1.26,2.04-1.19,3.21"/>
  </g>
</svg>