<?xml version="1.0" encoding="UTF-8"?>
<svg xmlns="http://www.w3.org/2000/svg" viewBox="0 0 96 96">
  <defs>
    <style>
      .cls-1 {
        fill: #fff;
      }

      .cls-1, .cls-2 {
        stroke: #231f20;
        stroke-miterlimit: 10;
        stroke-width: .5px;
      }

      .cls-2 {
        fill: none;
      }
    </style>
  </defs>
  <g id="ClassicFit_LongSleeve_ClassicCollar_Depan" data-name="ClassicFit/LongSleeve/ClassicCollar/Depan">
    <circle class="cls-1" cx="47.93" cy="22.35" r=".47"/>
    <circle class="cls-1" cx="47.93" cy="30.45" r=".47"/>
    <circle class="cls-1" cx="47.93" cy="39.2" r=".47"/>
    <circle class="cls-1" cx="47.93" cy="46.93" r=".47"/>
    <circle class="cls-1" cx="47.93" cy="55.04" r=".47"/>
    <circle class="cls-1" cx="47.93" cy="62.54" r=".47"/>
  </g>
  <g id="Layer_12" data-name="Layer 12">
    <polyline class="cls-1" points="53.34 8.73 56.01 11.66 67.89 17.16 89.18 70.21 90.7 74.91 83.97 77.92 81.78 73.56 89.24 70.02"/>
    <line class="cls-1" x1="81.84" y1="73.79" x2="64.12" y2="36.59"/>
    <polyline class="cls-1" points="41.73 8.88 39.34 11.65 28.31 16.5 6.51 70.32 4.53 75.33 11.32 78.05 14.3 72.86 6.59 70.2"/>
    <line class="cls-1" x1="14.1" y1="73.12" x2="31.73" y2="36.95"/>
    <line class="cls-1" x1="63.55" y1="27.67" x2="65.21" y2="73.57"/>
    <line class="cls-1" x1="31.99" y1="27.45" x2="30.11" y2="73.91"/>
    <path class="cls-1" d="m65.16,73.32c-3.23.45-6.11,2.25-9.26,3.11-2.87.78-5.88.75-8.85.72-1.41-.01-2.82-.03-4.21-.27-1.21-.21-2.38-.58-3.55-.95-1.7-.54-3.41-1.08-5.11-1.62-1.3-.41-2.65-.83-4.01-.67"/>
    <line class="cls-1" x1="49.23" y1="17.97" x2="49.1" y2="77.01"/>
    <line class="cls-1" x1="46.46" y1="17.79" x2="46.76" y2="77.02"/>
    <path class="cls-2" d="m30.2,73.73c2.52,1.57,4.01,4.37,6.32,6.24.89.72,1.88,1.29,2.9,1.79.93.46,1.89.87,2.89,1.17,3.13.92,6.54.64,9.62-.42,3.08-1.06,5.86-2.88,8.34-5,1.72-1.46,3.31-3.08,5.21-4.3"/>
    <line class="cls-2" x1="41.56" y1="8.92" x2="53.48" y2="8.76"/>
    <path class="cls-2" d="m41.84,8.91c.8,2.61,2.43,4.96,4.6,6.61"/>
    <path class="cls-2" d="m40.01,11.01c.09,2.93,1.38,5.81,3.52,7.81-.02-.45.28-.85.58-1.18.71-.78,1.52-1.47,2.42-2.03"/>
    <path class="cls-2" d="m53.52,9.12c-.91,2.31-2.41,4.38-4.32,5.95,1.25.75,2.21,1.96,2.68,3.34,1.82-1.75,3.24-3.93,4.09-6.3.03-.09.1-.2.19-.17s-.05.18-2.64-2.82Z"/>
    <path class="cls-2" d="m46.44,15.74c.96-.68,2.26-.86,3.37-.45"/>
    <path class="cls-2" d="m44.53,17.3c1.03.39,2.12.62,3.22.71.49.04.99.04,1.47-.03.76-.11,1.48-.41,2.1-.85"/>
    <path class="cls-2" d="m46.49,18.31c-.09-.63-.08-1.27.04-1.9.07-.41.22-.86.57-1.08"/>
    <line class="cls-2" x1="42.24" y1="9.64" x2="53.18" y2="9.79"/>
    <line class="cls-2" x1="43.38" y1="12.21" x2="51.97" y2="12.2"/>
  </g>
</svg>