<?xml version="1.0" encoding="UTF-8"?>
<svg xmlns="http://www.w3.org/2000/svg" viewBox="0 0 96 96">
  <defs>
    <style>
      .cls-1 {
        fill: #fff;
      }

      .cls-1, .cls-2 {
        stroke: #231f20;
        stroke-miterlimit: 10;
        stroke-width: .5px;
      }

      .cls-2 {
        fill: none;
      }
    </style>
  </defs>
  <g id="ClassicFit_LongSleeve_ClassicCollar_Depan" data-name="ClassicFit/LongSleeve/ClassicCollar/Depan">
    <circle class="cls-1" cx="48.03" cy="62.95" r=".47"/>
    <circle class="cls-1" cx="47.95" cy="54.76" r=".47"/>
    <circle class="cls-1" cx="48.03" cy="46.51" r=".47"/>
    <circle class="cls-1" cx="48.03" cy="22.29" r=".47"/>
    <circle class="cls-1" cx="48.03" cy="30.29" r=".47"/>
    <circle class="cls-1" cx="48.03" cy="38.29" r=".47"/>
  </g>
  <g id="Layer_12" data-name="Layer 12">
    <polyline class="cls-2" points="42.23 8.48 53.44 8.62 56.17 11.76 67.65 16.75 84.33 56.8 75.65 60.56 64.23 36.23"/>
    <polyline class="cls-2" points="42.41 8.39 39.75 11.4 28.4 16.32 12.07 56.57 20.47 60.19 31.96 36.34"/>
    <path class="cls-2" d="m65.6,73.33c-3.39-.01-6.56,1.52-9.82,2.46-5.62,1.62-11.75,1.45-17.27-.47-2.73-.95-5.47-2.34-8.35-2.06"/>
    <path class="cls-2" d="m65.4,73.33c-1.98.84-3.14,2.86-4.59,4.45-3.4,3.73-8.68,5.25-13.73,5.32-3.14.04-6.4-.45-9.04-2.16-3.1-2.01-5.01-5.48-8.05-7.58"/>
    <path class="cls-2" d="m67.61,17.09c-4.75,12.16-4.26,25.64-3.71,38.68.25,5.92.51,11.87,1.58,17.69"/>
    <path class="cls-2" d="m28.4,16.32c4.23,8.23,4.51,17.89,4.36,27.15-.17,10.11-.76,20.26-2.65,30.19"/>
    <path class="cls-2" d="m42.46,8.62c-.04,2.73,1.7,5.4,4.22,6.46.49.21,1.02.36,1.56.34.84-.03,1.62-.46,2.27-.98,1.68-1.35,2.77-3.43,2.93-5.58"/>
    <path class="cls-2" d="m56.19,11.74c-.08,1.82.03,3.64.32,5.43-1.8-1.41-4.07-2.2-6.35-2.23-.18,0-.37,0-.55,0"/>
    <path class="cls-2" d="m45.92,14.6c-2.2.3-4.34,1.08-6.23,2.28.38-1.79.41-3.66.08-5.46"/>
    <path class="cls-2" d="m42.46,15.49c1.17,1.69,3.29,2.32,5.28,2.43,1.09.06,2.21,0,3.25-.36s2.01-1.02,2.62-1.98"/>
    <line class="cls-2" x1="49.22" y1="18.11" x2="49.09" y2="76.79"/>
    <line class="cls-2" x1="46.71" y1="17.93" x2="46.82" y2="76.63"/>
    <path class="cls-2" d="m46.69,17.81c-.12-.89.16-1.83.76-2.52"/>
    <line class="cls-2" x1="42.46" y1="9.54" x2="53.38" y2="9.56"/>
    <line class="cls-2" x1="43.35" y1="11.99" x2="52.65" y2="12.05"/>
  </g>
</svg>