<?xml version="1.0" encoding="UTF-8"?>
<svg id="Classic_Fit_Short_Sleeves_Cut-Away_Collar_Depan" data-name="Classic Fit, Short Sleeves, Cut-Away Collar, Depan" xmlns="http://www.w3.org/2000/svg" viewBox="0 0 96 96">
  <defs>
    <style>
      .cls-1 {
        fill: none;
        stroke: #010101;
        stroke-miterlimit: 10;
        stroke-width: .5px;
      }
    </style>
  </defs>
  <g id="Awway_Group" data-name="Awway Group">
    <path class="cls-1" d="m41.79,8l-2.75,3.52v5.64c2.69-1.76,5.38-2.29,8.07-1.58-3.41-1.14-5.14-3.7-5.32-7.58Z"/>
    <path class="cls-1" d="m53.75,8l2.75,3.52v5.64c-2.69-1.76-5.38-2.29-8.07-1.58,3.41-1.14,5.14-3.7,5.32-7.58Z"/>
    <path class="cls-1" d="m53.85,15.89c-4.63,3.52-7.96,3.53-12.36.02"/>
    <path class="cls-1" d="m46.23,15.4c1.1.65,2.18.66,3.26,0"/>
    <line class="cls-1" x1="41.75" y1="8.15" x2="53.65" y2="8.15"/>
    <line class="cls-1" x1="52.83" y1="11.85" x2="42.73" y2="11.85"/>
  </g>
  <path id="Baju_Depan" data-name="Baju Depan" class="cls-1" d="m56.26,11.55l13.16,5.72c-4.11,6.14-5.23,13.41-4.59,21.34l2,39.64-2.28.03c-10.37,5.11-21.33,4.5-32.64.39l-2.89.03,2.06-40.4c.68-7.58-.26-14.82-4.5-21.36l12.68-5.53"/>
  <path id="Shilouete_Baju_Belakang" data-name="Shilouete Baju Belakang" class="cls-1" d="m29.85,63.88l-2.68,14.83h1.93c12.83,8.66,25.39,6.98,37.82-.45l1.48-.05-2.09-12.18"/>
  <g id="Kancing_Baju" data-name="Kancing Baju">
    <path class="cls-1" d="m49.3,15.5h0v66.4h-2.73V18.22c0-1.51,1.22-2.73,2.73-2.73Z"/>
    <circle class="cls-1" cx="47.85" cy="23.26" r=".59"/>
    <circle class="cls-1" cx="47.94" cy="31.89" r=".59"/>
    <circle class="cls-1" cx="47.94" cy="40.8" r=".59"/>
    <circle class="cls-1" cx="47.94" cy="49.24" r=".59"/>
    <circle class="cls-1" cx="47.94" cy="58.2" r=".59"/>
    <circle class="cls-1" cx="47.94" cy="67.16" r=".59"/>
  </g>
  <g id="Lengan">
    <path id="Lengan_Kiri" data-name="Lengan Kiri" class="cls-1" d="m26.55,16.43l-10.55,23.7,10.82,5.18,4.23-6.64c1.01-7.86-.49-15.3-4.5-22.24Z"/>
    <path id="Lengan_Kanan" data-name="Lengan Kanan" class="cls-1" d="m69.43,17.36l10.87,23.8-10.82,5.18-4.68-6.68c-.91-8.14-.02-15.65,4.63-22.3Z"/>
  </g>
</svg>