<?xml version="1.0" encoding="UTF-8"?>
<svg xmlns="http://www.w3.org/2000/svg" viewBox="0 0 96 96">
  <defs>
    <style>
      .cls-1 {
        fill: #fff;
      }

      .cls-1, .cls-2 {
        stroke: #231f20;
        stroke-miterlimit: 10;
        stroke-width: .5px;
      }

      .cls-2 {
        fill: none;
      }
    </style>
  </defs>
  <g id="ClassicFit_LongSleeve_ClassicCollar_Depan" data-name="ClassicFit/LongSleeve/ClassicCollar/Depan">
    <circle class="cls-1" cx="47.72" cy="22.39" r=".47"/>
    <circle class="cls-1" cx="47.8" cy="30.74" r=".47"/>
    <circle class="cls-1" cx="47.8" cy="39.09" r=".47"/>
    <circle class="cls-1" cx="47.8" cy="47.44" r=".47"/>
    <circle class="cls-1" cx="47.8" cy="55.69" r=".47"/>
    <circle class="cls-1" cx="47.8" cy="64" r=".47"/>
  </g>
  <g id="Layer_12" data-name="Layer 12">
    <polyline class="cls-2" points="41.74 8.32 53.56 8.24 56.22 11.7 67.91 16.47 76.99 37.63 66.77 42.57 63.82 36.15"/>
    <polyline class="cls-2" points="41.97 8.24 39.5 11.35 27.73 16.61 18.06 37.8 28.54 42.29 31.67 36.06"/>
    <path class="cls-2" d="m67.95,16.35c-4.7,10.85-4.81,23.07-4.16,34.87.44,7.82,1.17,15.62,2.22,23.38"/>
    <path class="cls-2" d="m27.65,16.52c3.53,6.98,4.18,15.04,4.18,22.86,0,11.98-1.35,23.91-2.69,35.81"/>
    <path class="cls-2" d="m65.96,74.27c-3.55-.34-6.93,1.38-10.34,2.44-5.49,1.7-11.47,1.69-16.95-.03-3.09-.97-6.27-2.48-9.42-1.73"/>
    <path class="cls-2" d="m65.88,74.24c-3.72,2.07-6,6.07-9.6,8.33-1.41.89-3,1.49-4.64,1.75-1.27.21-2.57.21-3.86.15-2.8-.14-5.61-.6-8.21-1.64s-5-2.68-6.72-4.9c-.49-.63-.92-1.31-1.49-1.86s-1.31-.99-2.11-.99"/>
    <line class="cls-2" x1="48.92" y1="17.89" x2="49.35" y2="78"/>
    <line class="cls-2" x1="46.39" y1="17.67" x2="46.67" y2="77.96"/>
    <path class="cls-2" d="m41.97,15.36c.4.57,1.04.93,1.67,1.24,1.58.77,3.3,1.34,5.05,1.31s3.56-.75,4.61-2.17"/>
    <path class="cls-2" d="m39.43,11.18c.13,1.92-.02,3.86-.44,5.74,1.48-1.2,3.41-1.7,5.31-1.84s3.8.06,5.7.09c.73.01,1.47,0,2.19.11.51.08,1.02.21,1.51.37.95.3,1.87.69,2.74,1.15-.24-1.75-.4-3.52-.48-5.28"/>
    <path class="cls-2" d="m48.77,15c-.36.03-.72.06-1.05.18-.67.24-1.2.86-1.32,1.56-.04.25-.04.5-.04.75"/>
    <line class="cls-2" x1="42.01" y1="9.19" x2="53.47" y2="9.17"/>
    <line class="cls-2" x1="42.93" y1="11.68" x2="52.81" y2="11.73"/>
    <path class="cls-2" d="m41.74,8.42c.4,1.04.55,2.17,1.08,3.15.61,1.13,1.69,1.95,2.81,2.6.42.24.85.46,1.3.61,1.66.55,3.63.04,4.79-1.24,1.27-1.38,1.51-3.37,1.7-5.22"/>
  </g>
</svg>