<?xml version="1.0" encoding="UTF-8"?>
<svg id="Layer_14" data-name="Layer 14" xmlns="http://www.w3.org/2000/svg" viewBox="0 0 96 96">
  <defs>
    <style>
      .cls-1 {
        fill: none;
        stroke: #231f20;
        stroke-miterlimit: 10;
        stroke-width: .5px;
      }
    </style>
  </defs>
  <line class="cls-1" x1="42.23" y1="7.78" x2="53.78" y2="7.9"/>
  <line class="cls-1" x1="53.56" y1="7.78" x2="55.67" y2="11.07"/>
  <line class="cls-1" x1="55.29" y1="10.91" x2="68.15" y2="16.32"/>
  <line class="cls-1" x1="68.07" y1="16.27" x2="77.34" y2="37.75"/>
  <line class="cls-1" x1="77.09" y1="37.53" x2="67.09" y2="42.31"/>
  <path class="cls-1" d="m68.11,16.91c-1.38,2.51-2.44,5.2-3.16,7.98-1.57,6.08-1.46,12.45-1.25,18.73.36,10.43.99,20.84,1.89,31.23"/>
  <line class="cls-1" x1="42.5" y1="7.67" x2="40.05" y2="11.02"/>
  <line class="cls-1" x1="40.03" y1="10.95" x2="27.67" y2="16.43"/>
  <line class="cls-1" x1="27.54" y1="16.46" x2="18.71" y2="37.69"/>
  <path class="cls-1" d="m27.65,16.56c1.65,1.85,2.39,4.33,2.92,6.75,2.21,9.97,1.76,20.32,1.11,30.52-.45,7.06-.99,14.11-1.62,21.16"/>
  <line class="cls-1" x1="31.89" y1="32.21" x2="28.57" y2="42.21"/>
  <line class="cls-1" x1="18.55" y1="37.46" x2="28.85" y2="42.21"/>
  <line class="cls-1" x1="39.56" y1="11.15" x2="56.06" y2="11.2"/>
  <line class="cls-1" x1="30.96" y1="25" x2="64.71" y2="24.89"/>
  <line class="cls-1" x1="63.79" y1="32" x2="67.27" y2="42.29"/>
  <path class="cls-1" d="m65.48,74.62l-3.96,3.79c-1.98,1.9-4.03,3.84-6.57,4.88-2,.83-4.2,1.05-6.36,1.2-1.36.1-2.74.18-4.09,0-4.06-.53-7.48-3.28-10.34-6.21-1.29-1.32-2.56-2.74-4.27-3.45l.16.1"/>
</svg>