<?xml version="1.0" encoding="UTF-8"?>
<svg xmlns="http://www.w3.org/2000/svg" viewBox="0 0 96 96">
  <defs>
    <style>
      .cls-1 {
        fill: none;
        stroke: #231f20;
        stroke-miterlimit: 10;
        stroke-width: .5px;
      }
    </style>
  </defs>
  <g id="ClassicFit_LongSleeve_ClassicCollar_Depan" data-name="ClassicFit/LongSleeve/ClassicCollar/Depan">
    <circle class="cls-1" cx="48.25" cy="21.87" r=".47"/>
    <circle class="cls-1" cx="48.25" cy="21.87" r=".47"/>
    <circle class="cls-1" cx="48.25" cy="30.17" r=".47"/>
    <circle class="cls-1" cx="48.25" cy="38.65" r=".47"/>
    <circle class="cls-1" cx="48.25" cy="46.8" r=".47"/>
    <circle class="cls-1" cx="48.25" cy="55.3" r=".47"/>
    <circle class="cls-1" cx="48.25" cy="63.6" r=".47"/>
  </g>
  <g id="Layer_14" data-name="Layer 14">
    <line class="cls-1" x1="42.06" y1="7.98" x2="54.22" y2="7.98"/>
    <polyline class="cls-1" points="54.09 7.99 56.49 10.98 68.34 16.41"/>
    <path class="cls-1" d="m68.13,16.41c-3.3,6.73-3.87,14.48-4.01,22-.22,12.06.52,24.14,2.22,36.07"/>
    <polyline class="cls-1" points="42.2 8 39.74 11.02 27.85 16.06"/>
    <polyline class="cls-1" points="27.97 15.99 18.53 37.77 28.79 42.05"/>
    <line class="cls-1" x1="32.29" y1="35.05" x2="28.64" y2="42.25"/>
    <line class="cls-1" x1="64.33" y1="32.88" x2="68.13" y2="42.02"/>
    <line class="cls-1" x1="68.23" y1="16.27" x2="77.71" y2="37.46"/>
    <line class="cls-1" x1="67.88" y1="42.02" x2="77.88" y2="37.3"/>
    <line class="cls-1" x1="49.45" y1="17.23" x2="49.33" y2="77.99"/>
    <line class="cls-1" x1="46.93" y1="17.23" x2="46.93" y2="77.98"/>
    <path class="cls-1" d="m30.05,74.61c-.37-3.07.14-6.17.58-9.24,1.62-11.41,2.16-22.97,1.62-34.48-.25-5.19-.83-10.69-4.05-14.84"/>
    <line class="cls-1" x1="28.74" y1="42.18" x2="32.29" y2="32.29"/>
    <path class="cls-1" d="m30.05,74.36c1.35-.85,2.98-.74,4.44-.23,1.46.51,2.81,1.4,4.22,2.08,2.51,1.23,5.22,1.83,7.92,1.77"/>
    <line class="cls-1" x1="46.57" y1="77.99" x2="49.43" y2="77.91"/>
    <path class="cls-1" d="m66.48,74.51c-1.08-.33-2.25-.2-3.33.11s-2.1.81-3.14,1.24c-3.37,1.38-7.02,2.02-10.67,2.04"/>
    <path class="cls-1" d="m30.02,74.5l1.15,1.12c2.56,2.49,5.15,5,8.13,6.96.77.5,1.56.97,2.4,1.33,3.22,1.36,6.9,1.01,10.29.15"/>
    <path class="cls-1" d="m66.6,74.49c-.97.43-2.02.72-2.9,1.32-.95.65-1.63,1.62-2.35,2.53-1.16,1.46-2.5,2.8-4.12,3.73-.71.4-1.46.72-2.22,1.01-1.03.39-2.09.73-3.16,1.01"/>
    <path class="cls-1" d="m44.61,16.88c1.28.35,2.64.42,3.97.38.92-.03,1.88-.13,2.68-.56"/>
    <path class="cls-1" d="m46.96,17.17c-.23-.58-.13-1.28.27-1.76s1.06-.72,1.67-.6c.64.12,1.16.6,1.62,1.07,1.18,1.22,2.24,2.56,3.14,4,.6-3.1,2.6-5.92,2.57-9.08"/>
    <path class="cls-1" d="m54.02,8.08c0,1.51-.52,3.01-1.44,4.2s-2.24,2.08-3.69,2.47"/>
    <path class="cls-1" d="m42.25,7.98c-.03,1.58.67,3.13,1.72,4.29s2.43,1.98,3.88,2.56"/>
    <path class="cls-1" d="m39.92,10.91c.7,3.11,1.51,6.2,2.45,9.25.67-1.25,1.45-2.43,2.34-3.52.69-.85,1.53-1.7,2.61-1.83l-.07.14"/>
    <line class="cls-1" x1="42.37" y1="8.72" x2="53.94" y2="8.71"/>
    <line class="cls-1" x1="43.15" y1="11.11" x2="53.34" y2="11.04"/>
  </g>
</svg>