<?xml version="1.0" encoding="UTF-8"?>
<svg id="Layer_12" data-name="Layer 12" xmlns="http://www.w3.org/2000/svg" viewBox="0 0 96 96">
  <defs>
    <style>
      .cls-1 {
        fill: none;
        stroke: #231f20;
        stroke-miterlimit: 10;
        stroke-width: .5px;
      }
    </style>
  </defs>
  <line class="cls-1" x1="41.45" y1="8.22" x2="54.47" y2="8.45"/>
  <polyline class="cls-1" points="54.34 8.59 57.05 11.74 70.57 18.02"/>
  <polyline class="cls-1" points="70.5 18.1 80.81 41.42 69.48 46.46 65.97 39.15"/>
  <polyline class="cls-1" points="41.74 8.22 39.01 11.32 25.61 17.37 15.09 41.71"/>
  <polyline class="cls-1" points="15.31 41.56 26.49 46.46 30.15 39.08"/>
  <path class="cls-1" d="m70.39,17.97c-1.16,2.73-2.09,5.55-2.77,8.44-.89,3.8-1.35,7.69-1.66,11.58-1.21,14.99-.32,30.15,2.64,44.89"/>
  <line class="cls-1" x1="69.77" y1="46.53" x2="65.82" y2="39.59"/>
  <path class="cls-1" d="m25.66,17.45c4.08,7.39,4.65,16.17,4.8,24.61.23,13.65-.42,27.38-3.11,40.77"/>
  <line class="cls-1" x1="26.42" y1="46.32" x2="30.51" y2="39.52"/>
  <line class="cls-1" x1="27.15" y1="82.87" x2="68.8" y2="83.01"/>
  <line class="cls-1" x1="38.62" y1="11.49" x2="56.94" y2="11.57"/>
  <line class="cls-1" x1="29.2" y1="27.11" x2="67.13" y2="27.11"/>
</svg>