<?xml version="1.0" encoding="UTF-8"?>
<svg xmlns="http://www.w3.org/2000/svg" viewBox="0 0 96 96">
  <defs>
    <style>
      .cls-1, .cls-2 {
        fill: none;
      }

      .cls-3 {
        fill: #fff;
      }

      .cls-3, .cls-2 {
        stroke: #231f20;
        stroke-miterlimit: 10;
        stroke-width: .5px;
      }
    </style>
  </defs>
  <g id="ClassicFit_LongSleeve_ClassicCollar_Depan" data-name="ClassicFit/LongSleeve/ClassicCollar/Depan">
    <circle class="cls-3" cx="48.49" cy="23.22" r=".47"/>
    <circle class="cls-3" cx="48.25" cy="32" r=".47"/>
    <circle class="cls-3" cx="48.25" cy="40.78" r=".47"/>
    <circle class="cls-3" cx="48.49" cy="49.44" r=".47"/>
    <circle class="cls-3" cx="48.25" cy="58.07" r=".47"/>
    <circle class="cls-3" cx="48.25" cy="66.7" r=".47"/>
  </g>
  <g id="Layer_12" data-name="Layer 12">
    <path class="cls-1" d="m68.89,33.1l.3-1.05"/>
    <path class="cls-2" d="m48.06,15.23c-.35.42-.45.95-.53,1.47-.09.6-.16,1.21-.22,1.81"/>
    <line class="cls-2" x1="47.31" y1="18.57" x2="46.55" y2="78.59"/>
    <line class="cls-2" x1="49.79" y1="18.57" x2="49.67" y2="78.84"/>
    <path class="cls-2" d="m44.55,18.1c.62-.76,1.36-1.43,2.08-2.1.27-.25.55-.5.89-.63.27-.1.56-.13.84-.14.58-.02,1.19.04,1.69.32"/>
    <path class="cls-2" d="m44.83,17.84c1.13.36,2.29.68,3.48.72s2.42-.23,3.36-.96"/>
    <line class="cls-2" x1="43.54" y1="11.96" x2="53.2" y2="11.88"/>
    <line class="cls-2" x1="42.46" y1="9.5" x2="54.19" y2="9.42"/>
    <path class="cls-2" d="m56.94,11.52c-.34,3.38-1.57,6.65-3.48,9.45-.76-2.19-2.1-4.17-3.83-5.71,1.77-.4,3.01-2.02,3.76-3.67.45-.99.8-2.03,1.02-3.09"/>
    <path class="cls-2" d="m39.75,11.52c.34,3.38,1.32,6.69,2.87,9.71.92-2.24,2.48-4.22,4.44-5.64.06-.04.13-.09.16-.16.08-.19-.15-.35-.33-.44-2.44-1.16-4.25-3.54-4.72-6.2"/>
    <line class="cls-2" x1="29.43" y1="78.7" x2="67.1" y2="79"/>
    <path class="cls-2" d="m26.84,17.5c1.44,1.54,2.06,3.68,2.55,5.74,4.31,18.16,2.67,37.21-.16,55.66"/>
    <line class="cls-2" x1="11.66" y1="77.97" x2="31.08" y2="37.86"/>
    <polyline class="cls-2" points="42.1 8.6 39.39 11.65 26.67 17.16 4.11 74.49 1.82 79.5 9.45 82.8 11.66 78.05 4.45 74.66"/>
    <line class="cls-2" x1="84.85" y1="77.96" x2="65.31" y2="38.18"/>
    <polyline class="cls-2" points="54.54 8.22 56.96 11.46 69.59 17.05 92.79 74.57 94.59 79.68 87.06 83 84.72 78.09 92.59 74.71"/>
    <path class="cls-2" d="m69.56,17.4c-2.72,5.35-3.68,11.4-4.25,17.37-1.36,14.32-.6,28.84,2.23,42.94.11.53,0,1.33-.54,1.28"/>
    <line class="cls-2" x1="41.93" y1="8.58" x2="54.81" y2="8.3"/>
  </g>
</svg>