<?xml version="1.0" encoding="UTF-8"?>
<svg id="ShortSleeve-2" data-name="ShortSleeve" xmlns="http://www.w3.org/2000/svg" viewBox="0 0 96 96">
  <defs>
    <style>
      .cls-1 {
        fill: #231f20;
        font-family: SFPro-Semibold, 'SF Pro';
        font-size: 4.49px;
        font-variation-settings: 'wdth' 100, 'opsz' 28, 'wght' 590;
        font-weight: 600;
      }

      .cls-2 {
        stroke: #ed1c24;
        stroke-dasharray: 0 1;
        stroke-width: .5px;
      }

      .cls-2, .cls-3 {
        fill: none;
        stroke-miterlimit: 10;
      }

      .cls-3 {
        stroke: #010101;
        stroke-width: .25px;
      }
    </style>
  </defs>
  <g>
    <path class="cls-3" d="m12.07,46.31c6.29,1.81,13.52-7.68,16.2-15.15,3.21-7.38,8.2-12.64,16.05-15.15,7.08-.19,14.17,3.23,21.28,12.78,6.49,8.33,12.94,16.42,18.33,18.18l-3.93,21.04c-20.13-4.1-41.46-3.6-63.58,0l-4.36-21.69Z"/>
    <path class="cls-3" d="m13.98,48.12c7-.53,13.88-10.56,16.28-17.75,3.5-6.58,8.03-11.11,14.09-12.64,7.27-.55,13.72,3.95,19.64,11.67,6.7,8.26,13.51,16.89,18.18,18.35l-3.29,17.07c-18.34-4.07-39.3-3.27-61.58,0l-3.32-16.7Z"/>
  </g>
  <line class="cls-3" x1="44.04" y1="16" x2="44.04" y2="17.06"/>
  <line class="cls-3" x1="44.06" y1="17.82" x2="44.06" y2="18.5"/>
  <line class="cls-3" x1="22.13" y1="41.1" x2="22.47" y2="41.46"/>
  <line class="cls-3" x1="23.29" y1="42.09" x2="23.89" y2="42.66"/>
  <line class="cls-3" x1="59.4" y1="21.8" x2="58.83" y2="22.51"/>
  <line class="cls-3" x1="58.36" y1="23.21" x2="57.81" y2="23.8"/>
  <line class="cls-3" x1="71.94" y1="36.32" x2="71.32" y2="36.87"/>
  <line class="cls-3" x1="72.98" y1="37.58" x2="72.46" y2="38.04"/>
  <line class="cls-3" x1="70.78" y1="37.47" x2="70.24" y2="38.04"/>
  <line class="cls-3" x1="71.77" y1="38.64" x2="71.32" y2="39.21"/>
  <polyline class="cls-2" points="48 64 48 17.97 13.59 48.07 82.17 47.75 45.72 17.68"/>
  <text class="cls-1" transform="translate(8 48.49)"><tspan x="0" y="0">A</tspan></text>
  <text class="cls-1" transform="translate(83.93 48.49)"><tspan x="0" y="0">B</tspan></text>
  <text class="cls-1" transform="translate(44.06 15.67)"><tspan x="0" y="0">C</tspan></text>
  <text class="cls-1" transform="translate(46.61 69.32)"><tspan x="0" y="0">D</tspan></text>
  <text class="cls-1" transform="translate(13.59 70.45)"><tspan x="0" y="0">E</tspan></text>
  <text class="cls-1" transform="translate(80 69.51)"><tspan x="0" y="0">F</tspan></text>
</svg>