<?xml version="1.0" encoding="UTF-8"?>
<svg id="LooseFitKanan" xmlns="http://www.w3.org/2000/svg" viewBox="0 0 96 96">
  <defs>
    <style>
      .cls-1 {
        font-size: 4.49px;
      }

      .cls-1, .cls-2 {
        fill: #231f20;
        font-family: SFPro-Semibold, 'SF Pro';
        font-variation-settings: 'wdth' 100, 'opsz' 28, 'wght' 590;
        font-weight: 600;
      }

      .cls-3 {
        stroke: #ed1c24;
        stroke-dasharray: 0 1;
        stroke-width: .5px;
      }

      .cls-3, .cls-4, .cls-5 {
        stroke-miterlimit: 10;
      }

      .cls-3, .cls-5 {
        fill: none;
      }

      .cls-4 {
        fill: #fff;
      }

      .cls-4, .cls-5 {
        stroke: #00000b;
        stroke-width: .25px;
      }

      .cls-2 {
        font-size: 4.49px;
      }
    </style>
  </defs>
  <path class="cls-5" d="m62.95,28.27c-3.21-.8-5.09-2.06-5.65-6.13l.72-.02-.73-11.16-19.06-.32-5.17,12.66c1.67,19.21,1.96,42.54,1.65,67.65l26.55.34c-.12-24.67-.13-48.76,1.7-63.01Z"/>
  <path class="cls-5" d="m62.1,28.81c-3.49-.84-5.53-3.2-5.82-7.4h.93s-.82-9.84-.82-9.84l-17.49-.17-5,12.09c1.69,17.51,1.92,41.6,1.76,67.46l24.81.32c-.13-24.94-.44-50.95,1.62-62.46Z"/>
  <line class="cls-5" x1="48" y1="10.63" x2="48" y2="11.14"/>
  <line class="cls-4" x1="48" y1="11.49" x2="48" y2="91.11"/>
  <polygon class="cls-4" points="35.62 90.92 60.43 91.23 60.42 89.66 35.57 89.66 35.62 90.92"/>
  <line class="cls-5" x1="48.24" y1="89.66" x2="47.76" y2="89.66"/>
  <line class="cls-5" x1="47.73" y1="89.66" x2="48.27" y2="89.66"/>
  <polygon class="cls-5" points="47.58 12.38 48.42 12.38 48.42 10.63 48 10.63 47.58 10.63 47.58 12.38"/>
  <line class="cls-5" x1="48" y1="11.08" x2="48" y2="10.63"/>
  <line class="cls-5" x1="48" y1="10.63" x2="48" y2="10.94"/>
  <line class="cls-5" x1="48" y1="10.63" x2="48" y2="10.94"/>
  <polyline class="cls-5" points="48.23 11.45 47.77 18.4 47.77 11.49"/>
  <circle class="cls-5" cx="48" cy="12.09" r=".16"/>
  <circle class="cls-5" cx="48" cy="12.13" r=".16"/>
  <circle class="cls-5" cx="48" cy="18.28" r=".16"/>
  <g>
    <text class="cls-2" transform="translate(29 11.55) scale(.89 1)"><tspan x="0" y="0">A</tspan></text>
    <text class="cls-2" transform="translate(64.5 11.71) scale(.89 1)"><tspan x="0" y="0">B</tspan></text>
    <rect class="cls-3" x="32.71" y="10.45" width="31.13" height="80.4"/>
    <text class="cls-2" transform="translate(36.22 9.44) scale(.89 1)"><tspan x="0" y="0">E</tspan></text>
    <text class="cls-2" transform="translate(30.56 28.25) scale(.89 1)"><tspan x="0" y="0">I</tspan></text>
    <text class="cls-2" transform="translate(57.75 8.55) scale(.89 1)"><tspan x="0" y="0">F</tspan></text>
    <text class="cls-2" transform="translate(64.74 35) scale(.89 1)"><tspan x="0" y="0">J</tspan></text>
  </g>
  <text class="cls-1" transform="translate(28 92.17) scale(.9 1)"><tspan x="0" y="0">C</tspan></text>
  <text class="cls-1" transform="translate(64.74 91.28) scale(.9 1)"><tspan x="0" y="0">D</tspan></text>
</svg>