<?xml version="1.0" encoding="UTF-8"?>
<svg id="Layer_12" data-name="Layer 12" xmlns="http://www.w3.org/2000/svg" viewBox="0 0 96 96">
  <defs>
    <style>
      .cls-1 {
        fill: none;
        stroke: #231f20;
        stroke-miterlimit: 10;
        stroke-width: .5px;
      }
    </style>
  </defs>
  <polyline class="cls-1" points="41.46 7.19 54.48 7.31 56.59 10.69 71.01 16.96 90.19 64.07 80.12 68.35 66 38.74"/>
  <polyline class="cls-1" points="41.69 7.08 39.04 10.56 25.22 16.74 5.39 64.23 15.63 68.63 30.09 38.89"/>
  <path class="cls-1" d="m71.24,17.55c-4.3,5.26-4.53,12.63-4.86,19.42-.24,4.75-.62,9.48-.79,14.23-.38,10.78.34,21.59,2.16,32.22"/>
  <path class="cls-1" d="m25,16.97c1.66,3.1,2.48,6.57,3.15,10.03,3.61,18.58,3.2,37.93-1.2,56.34"/>
  <line class="cls-1" x1="26.72" y1="83.14" x2="67.97" y2="83.42"/>
  <line class="cls-1" x1="28.38" y1="26.52" x2="67.06" y2="26.6"/>
  <line class="cls-1" x1="38.22" y1="10.86" x2="57.23" y2="11.02"/>
</svg>