<?xml version="1.0" encoding="UTF-8"?>
<svg id="Layer_4" data-name="Layer 4" xmlns="http://www.w3.org/2000/svg" viewBox="0 0 96 96">
  <defs>
    <style>
      .cls-1 {
        fill: none;
        stroke: #010101;
        stroke-dasharray: 0 0 0 0 0 0 0 0 0 0 0 0;
        stroke-miterlimit: 10;
        stroke-width: .5px;
      }
    </style>
  </defs>
  <path class="cls-1" d="m32.16,87.95c-.45-16.52-.9-33.04-1.35-49.57-.08-2.99-.16-5.98.03-8.97.44-6.93,2.33-13.71,2.63-20.64"/>
  <path class="cls-1" d="m48.47,12.01c-1.08,10.15-.29,20.39.36,30.57.96,15.02,1.6,30.05,1.93,45.09"/>
  <path class="cls-1" d="m32.12,87.85c1.04.72,2.37.85,3.63.95,1.3.11,2.61.22,3.92.17,1.72-.07,3.42-.41,5.11-.75.48-.1.97-.19,1.44-.33"/>
  <path class="cls-1" d="m63.09,8.63c2.97,14.1,2.75,28.65,2.37,43.05-.32,12.12-.75,24.24-1.29,36.35"/>
  <line class="cls-1" x1="63.16" y1="8.86" x2="33.46" y2="9.03"/>
  <path class="cls-1" d="m64.17,87.78c-2.42.94-5.08,1.06-7.67.99-2.01-.06-4.11-.25-5.81-1.32"/>
  <path class="cls-1" d="m46.08,87.87c-.14-17.69.59-35.39,2.2-53.01"/>
  <path class="cls-1" d="m59.94,11.47c.74,3.47,1.84,6.85,2.98,10.21.3.89.61,1.78,1,2.63.39.85.86,1.66,1.41,2.41"/>
  <path class="cls-1" d="m48.29,30.39c1.14-.28,2.15-1.07,2.7-2.1.74-1.4.64-3.08.54-4.66-.24-3.9-.3-7.81-.18-11.71"/>
  <line class="cls-1" x1="33.35" y1="11.63" x2="63.47" y2="11.63"/>
  <polyline class="cls-1" points="36.59 11.62 38.85 11.64 38.02 18.91"/>
  <line class="cls-1" x1="57.83" y1="11.66" x2="58.53" y2="18.86"/>
  <path class="cls-1" d="m31.12,26.91c.4-.54.68-1.15.94-1.76.49-1.17.9-2.37,1.31-3.58.59-1.74,1.17-3.47,1.76-5.21.53-1.56,1.06-3.13,1.33-4.75"/>
  <line class="cls-1" x1="44.48" y1="9.05" x2="44.48" y2="11.63"/>
  <path class="cls-1" d="m56.29,11.51c-.02-.85-.04-1.7-.05-2.55"/>
  <path class="cls-1" d="m56.98,11.5v.06s-.02-2.52-.02-2.52"/>
  <line class="cls-1" x1="46.02" y1="10.09" x2="46.72" y2="10.1"/>
  <line class="cls-1" x1="39.77" y1="9" x2="39.77" y2="11.66"/>
  <line class="cls-1" x1="40.46" y1="11.57" x2="40.41" y2="9.12"/>
</svg>