<?xml version="1.0" encoding="UTF-8"?>
<svg id="Layer_9" data-name="Layer 9" xmlns="http://www.w3.org/2000/svg" viewBox="0 0 96 96">
  <defs>
    <style>
      .cls-1 {
        fill: none;
        stroke: #020202;
        stroke-miterlimit: 10;
        stroke-width: .5px;
      }
    </style>
  </defs>
  <path class="cls-1" d="m57.94,8.25c2,11.8,2.65,23.79,3.3,35.74.77,14.17,1.53,28.35,2.3,42.52"/>
  <path class="cls-1" d="m48.04,10.37c-.71,25.61-1.42,51.23-.6,76.84"/>
  <path class="cls-1" d="m47.83,28.12c.73,19.68.82,39.39.27,59.07"/>
  <path class="cls-1" d="m37.97,8.35c-3.01,15.99-3.68,32.32-4.34,48.58-.4,9.95-.81,19.89-1.21,29.84"/>
  <path class="cls-1" d="m63.67,86.36c-.55.48-1.28.69-1.99.87-2.33.57-4.73.78-7.13.79-1.11,0-2.23-.03-3.33-.19-1.09-.16-2.16-.43-3.19-.81"/>
  <path class="cls-1" d="m47.46,87.1c-4.85,1.76-10.36,1.62-15.11-.4"/>
  <line class="cls-1" x1="37.59" y1="10" x2="58.21" y2="10.1"/>
  <line class="cls-1" x1="41.38" y1="10.04" x2="40.89" y2="15.01"/>
  <line class="cls-1" x1="54.55" y1="10.15" x2="54.74" y2="15.05"/>
  <path class="cls-1" d="m36.22,19.26c.32-.2.5-.55.66-.89,1.02-2.14,1.82-4.39,2.41-6.69.11-.43.21-.85.31-1.28.03-.12.05-.23.08-.35"/>
  <path class="cls-1" d="m59.49,19.42c-1.13-1.43-1.73-3.19-2.29-4.92-.48-1.48-.95-2.96-1.4-4.45"/>
  <path class="cls-1" d="m49.98,10.11c0,3.23-.02,6.47-.03,9.7,0,.74-.01,1.51-.37,2.16s-1.19,1.09-1.85.77"/>
  <path class="cls-1" d="m58.12,8.27c-6.78.03-13.57.01-20.35-.04"/>
  <line class="cls-1" x1="42" y1="10" x2="42.04" y2="8.24"/>
  <line class="cls-1" x1="42.95" y1="9.99" x2="42.97" y2="8.31"/>
  <line class="cls-1" x1="53.9" y1="9.97" x2="53.92" y2="8.25"/>
  <line class="cls-1" x1="53.12" y1="10.07" x2="53.11" y2="8.32"/>
  <line class="cls-1" x1="45.25" y1="10.03" x2="45.25" y2="8.24"/>
  <path class="cls-1" d="m46.85,9.09h-.55"/>
</svg>