<?xml version="1.0" encoding="UTF-8"?>
<svg id="ModernFit" xmlns="http://www.w3.org/2000/svg" viewBox="0 0 96 96">
  <defs>
    <style>
      .cls-1 {
        fill: #231f20;
        font-family: SFPro-Semibold, 'SF Pro';
        font-size: 4.49px;
        font-variation-settings: 'wdth' 100, 'opsz' 28, 'wght' 590;
        font-weight: 600;
      }

      .cls-2 {
        stroke: #ef4136;
        stroke-dasharray: 0 1;
        stroke-width: .5px;
      }

      .cls-2, .cls-3 {
        fill: none;
        stroke-miterlimit: 10;
      }

      .cls-3 {
        stroke: #010101;
        stroke-width: .25px;
      }
    </style>
  </defs>
  <g>
    <path class="cls-3" d="m11.64,28c8.35-.47,12.49-7.08,13.42-18.36,10.39-2.99,40.24-2.35,45.57,0,1.82,8.09,2.23,17.23,13.38,18.31-.31,3.27-1.33,6.78-2.64,10.38-1.11,4.14-1.24,8.46.1,13.05l2.1,10.98,2.94,16.2c-6.99.96-10.38,9.98-38.51,9.45-26.71,1.54-30.71-8.24-38.66-9.6l4.32-23.22c1.18-6.19,2.34-10.05.37-17.12l-2.39-10.06Z"/>
    <path class="cls-3" d="m12.79,28.99c5.7-.73,11-3.17,13.29-18.39,11.2-2.59,36.44-2.59,43.75,0,1.24,8.58,2.92,16.82,13.37,18.39-2.88,8.72-4.97,15.58-2.83,22.72l4.54,24.94c-4.57-.06-11.38,10.48-37,9.29-26.2,1.38-30.66-8.49-37.16-9.37l2.62-14.29,2.12-10.89c.95-3.39,1.02-7.06.49-10.93l-3.21-11.47Z"/>
  </g>
  <polyline class="cls-2" points="50.62 8.8 50.62 7.32 11.87 7.45 11.57 28.29"/>
  <text class="cls-1" transform="translate(7.41 7.63)"><tspan x="0" y="0">A</tspan></text>
  <text class="cls-1" transform="translate(84.49 8)"><tspan x="0" y="0">B</tspan></text>
  <text class="cls-1" transform="translate(5.33 80.38)"><tspan x="0" y="0">C</tspan></text>
  <text class="cls-1" transform="translate(87.07 80.66)"><tspan x="0" y="0">D</tspan></text>
  <text class="cls-1" transform="translate(8 29.74)"><tspan x="0" y="0">E</tspan></text>
  <text class="cls-1" transform="translate(84.77 30.79)"><tspan x="0" y="0">F</tspan></text>
  <text class="cls-1" transform="translate(69.27 6.53)"><tspan x="0" y="0">H</tspan></text>
  <text class="cls-1" transform="translate(23.59 6.53)"><tspan x="0" y="0">G</tspan></text>
  <polyline class="cls-2" points="50.62 7.8 50.62 7.32 83.85 7.39 84.01 27.95"/>
</svg>