<?xml version="1.0" encoding="UTF-8"?>
<svg xmlns="http://www.w3.org/2000/svg" viewBox="0 0 96 96">
  <defs>
    <style>
      .cls-1 {
        fill: #fff;
      }

      .cls-1, .cls-2 {
        stroke: #231f20;
        stroke-miterlimit: 10;
        stroke-width: .5px;
      }

      .cls-2 {
        fill: none;
      }
    </style>
  </defs>
  <g id="ClassicFit_LongSleeve_ClassicCollar_Depan" data-name="ClassicFit/LongSleeve/ClassicCollar/Depan">
    <circle class="cls-1" cx="47.91" cy="23.91" r=".47"/>
    <circle class="cls-1" cx="47.91" cy="32.48" r=".47"/>
    <circle class="cls-1" cx="47.91" cy="41.73" r=".47"/>
    <circle class="cls-1" cx="47.91" cy="50.73" r=".47"/>
    <circle class="cls-1" cx="47.91" cy="58.79" r=".47"/>
    <circle class="cls-1" cx="47.91" cy="67.99" r=".47"/>
  </g>
  <g id="Layer_12" data-name="Layer 12">
    <line class="cls-2" x1="42.52" y1="12.26" x2="52.75" y2="12.26"/>
    <path class="cls-2" d="m44.39,18.4c.4.35.98.37,1.51.37,1.37.01,2.74.03,4.1-.09.46-.04.96-.11,1.29-.44"/>
    <path class="cls-2" d="m56.43,11.64c-.26,2.43-1.3,4.77-2.92,6.57-.43.48-.91.93-1.2,1.5-.79-1.54-1.97-2.87-3.38-3.82,2.82-1.34,4.85-4.26,5.19-7.43"/>
    <path class="cls-2" d="m38.64,12.08c1.35,2.67,2.73,5.38,4.78,7.55.81-1.61,2.16-2.95,3.79-3.74-1.51-.56-2.91-1.45-3.98-2.65s-1.81-2.72-1.99-4.32"/>
    <line class="cls-2" x1="41.03" y1="8.75" x2="54.38" y2="8.59"/>
    <line class="cls-2" x1="46.77" y1="18.88" x2="46.56" y2="79.94"/>
    <line class="cls-2" x1="28.02" y1="79.93" x2="67.32" y2="80.04"/>
    <path class="cls-2" d="m26.25,17.68c3.98,9.12,4.76,19.29,4.75,29.24-.01,11.03-.94,22.06-2.76,32.93"/>
    <path class="cls-2" d="m67.08,79.87c-.04-7.21-1.99-14.26-2.57-21.44-.38-4.65-.19-9.33,0-13.99.37-9.04.8-18.33,4.47-26.56l.06.24"/>
    <line class="cls-2" x1="11" y1="79.42" x2="30.74" y2="38.16"/>
    <line class="cls-2" x1="84.62" y1="79.41" x2="64.82" y2="38.16"/>
    <polyline class="cls-2" points="54.17 8.46 56.48 11.78 69.34 17.55 92.74 75.75 94.89 80.92 87.17 84.4 84.61 79.41 92.74 75.81"/>
    <polyline class="cls-2" points="41.22 8.75 38.45 12.11 26.11 17.64 3.09 75.53 .62 80.96 7.93 84.22 10.8 79.18 3.39 75.53"/>
    <path class="cls-2" d="m46.78,19.03c-.02-.53,0-1.06.08-1.58.05-.37.13-.75.32-1.07.09-.15.21-.3.38-.35.09-.03.18-.03.27-.03.43,0,.86,0,1.3,0"/>
    <line class="cls-2" x1="49.06" y1="18.97" x2="49.22" y2="79.81"/>
    <line class="cls-2" x1="41.42" y1="9.56" x2="53.83" y2="9.28"/>
  </g>
</svg>