<?xml version="1.0" encoding="UTF-8"?>
<svg id="LongSleeve" xmlns="http://www.w3.org/2000/svg" viewBox="0 0 96 96">
  <defs>
    <style>
      .cls-1 {
        fill: #231f20;
        font-family: SFPro-Semibold, 'SF Pro';
        font-size: 4.49px;
        font-variation-settings: 'wdth' 100, 'opsz' 28, 'wght' 590;
        font-weight: 600;
      }

      .cls-2 {
        stroke: #ed1c24;
        stroke-dasharray: 0 1;
        stroke-width: .5px;
      }

      .cls-2, .cls-3 {
        fill: none;
        stroke-miterlimit: 10;
      }

      .cls-3 {
        stroke: #010101;
        stroke-width: .25px;
      }
    </style>
  </defs>
  <path class="cls-3" d="m14.81,36.38s8.65,34.68,8.53,51.3h49.38c1.46-17.7,4.18-34.72,8.48-50.87-3.21-.87-6.96-4.88-10.73-9l-6.98-8.71c-5.57-7.13-12.42-11.56-19.01-10.75-6.06,1.79-10.4,5.32-13.44,11.31-5.13,11.74-10.56,16.82-16.23,16.72Z"/>
  <path class="cls-3" d="m16.54,37.61c6.49-1.22,11.68-7.81,15.98-18.06,2.48-4.54,6.33-7.98,11.96-9.98,7.25.19,13.09,4.27,18.02,10.86,5.83,7.77,11.63,15.2,16.86,17.18-4.14,15.45-6.65,31.76-7.92,48.72H24.75c-.55-15.11-4.54-33.16-8.21-48.72Z"/>
  <polyline class="cls-2" points="48 88 48 9.99 16.54 37.61 79.35 37.61 48.53 10.11"/>
  <text class="cls-1" transform="translate(11.6 38.57)"><tspan x="0" y="0">A</tspan></text>
  <text class="cls-1" transform="translate(82.06 39.34)"><tspan x="0" y="0">B</tspan></text>
  <text class="cls-1" transform="translate(46.88 7.42)"><tspan x="0" y="0">C</tspan></text>
  <text class="cls-1" transform="translate(46.62 92)"><tspan x="0" y="0">D</tspan></text>
  <text class="cls-1" transform="translate(21.79 92)"><tspan x="0" y="0">E</tspan></text>
  <text class="cls-1" transform="translate(73.79 92)"><tspan x="0" y="0">F</tspan></text>
</svg>