<?xml version="1.0" encoding="UTF-8"?>
<svg id="Layer_8" data-name="Layer 8" xmlns="http://www.w3.org/2000/svg" viewBox="0 0 96 96">
  <defs>
    <style>
      .cls-1 {
        fill: none;
        stroke: #020202;
        stroke-miterlimit: 10;
        stroke-width: .5px;
      }
    </style>
  </defs>
  <line class="cls-1" x1="54.03" y1="31.27" x2="39.9" y2="26.08"/>
  <line class="cls-1" x1="37.17" y1="10.16" x2="58.32" y2="10.18"/>
  <path class="cls-1" d="m58.19,8.14c3.33,26.41-.58,53.19.54,79.79"/>
  <path class="cls-1" d="m47.2,10.41c.31,7.84.63,15.69.94,23.53.72,17.88,1.43,35.77,1.23,53.67"/>
  <path class="cls-1" d="m47.76,26.34c-1.83,20.41-2.43,40.92-1.81,61.4"/>
  <path class="cls-1" d="m37.57,8.17c-2.41,9.1-2.2,18.67-1.96,28.08.44,17.2.96,34.4,1.55,51.6"/>
  <path class="cls-1" d="m45.98,87.59c-2.42.6-4.95.76-7.42.47-.56-.07-1.15-.17-1.55-.57"/>
  <path class="cls-1" d="m58.81,87.75c-.51.29-1.12.34-1.7.38-2.05.14-4.11.28-6.14-.03-.62-.09-1.27-.25-1.7-.71"/>
  <path class="cls-1" d="m58.37,8.08c-6.99.18-13.99.25-20.99.2"/>
</svg>