<?xml version="1.0" encoding="UTF-8"?>
<svg id="Layer_12" data-name="Layer 12" xmlns="http://www.w3.org/2000/svg" viewBox="0 0 96 96">
  <defs>
    <style>
      .cls-1 {
        fill: none;
        stroke: #231f20;
        stroke-miterlimit: 10;
        stroke-width: .5px;
      }
    </style>
  </defs>
  <polyline class="cls-1" points="41.95 7.95 53.94 8.07 55.59 10.93 68 16.1 77.07 37.59 67.03 41.98 63.62 35.1"/>
  <polyline class="cls-1" points="42.01 8.01 39.76 10.81 27.77 16.1 18.51 37.53 28.74 41.67 31.72 35.58"/>
  <path class="cls-1" d="m68.01,16.05c-1.94,4.03-3.26,8.37-3.89,12.8-.53,3.71-.57,7.47-.54,11.22.1,11.54.95,23.06,2.55,34.49"/>
  <path class="cls-1" d="m27.81,16.15c1.57,3.26,2.66,6.76,3.22,10.34.47,3.03.57,6.11.66,9.18.14,4.43.27,8.87.19,13.3-.15,8.64-1.13,17.27-2.91,25.72"/>
  <path class="cls-1" d="m66.25,74.04c-2.42,1.25-3.98,3.64-5.99,5.48-4.39,4.02-10.85,5.2-16.72,4.2-1.33-.23-2.65-.56-3.87-1.15-4.07-1.97-6.45-6.54-10.62-8.3"/>
  <line class="cls-1" x1="39.99" y1="10.87" x2="55.43" y2="11.08"/>
  <line class="cls-1" x1="30.84" y1="24.71" x2="64.71" y2="24.75"/>
</svg>