<?xml version="1.0" encoding="UTF-8"?>
<svg id="CutAwayCollar" xmlns="http://www.w3.org/2000/svg" viewBox="0 0 96 96">
  <defs>
    <style>
      .cls-1 {
        fill: none;
        stroke: #010101;
        stroke-miterlimit: 10;
        stroke-width: .5px;
      }
    </style>
  </defs>
  <g id="Awway_Group" data-name="Awway Group">
    <path class="cls-1" d="m36.61,33.47l-5.09,6.51v10.44c4.98-3.26,9.97-4.23,14.95-2.92-6.32-2.1-9.52-6.85-9.85-14.03Z"/>
    <path class="cls-1" d="m58.77,33.47l5.09,6.51v10.44c-4.98-3.26-9.97-4.23-14.95-2.92,6.32-2.1,9.52-6.85,9.85-14.03Z"/>
    <path class="cls-1" d="m58.95,48.08c-8.57,6.52-14.74,6.53-22.89.03"/>
    <path class="cls-1" d="m44.85,47.17c2.03,1.2,4.04,1.23,6.03,0"/>
    <line class="cls-1" x1="36.54" y1="33.75" x2="58.58" y2="33.75"/>
    <line class="cls-1" x1="57.06" y1="40.6" x2="38.36" y2="40.6"/>
  </g>
  <path id="Baju_Depan" data-name="Baju Depan" class="cls-1" d="m8.45,50.04l23.47-10.24"/>
  <path id="Baju_Depan-2" data-name="Baju Depan" class="cls-1" d="m63.42,40.05l24.37,10.59"/>
  <g id="Kancing_Baju" data-name="Kancing Baju">
    <path class="cls-1" d="m50.2,52.59c-2.1.55-3.74.49-5.05,0v-.58c0-2.79,2.26-5.05,5.05-5.05h0v5.63Z"/>
  </g>
</svg>