<?xml version="1.0" encoding="UTF-8"?>
<svg id="Layer_12" data-name="Layer 12" xmlns="http://www.w3.org/2000/svg" viewBox="0 0 96 96">
  <defs>
    <style>
      .cls-1 {
        fill: none;
        stroke: #231f20;
        stroke-miterlimit: 10;
        stroke-width: .5px;
      }
    </style>
  </defs>
  <line class="cls-1" x1="42.4" y1="8.42" x2="54.49" y2="8.54"/>
  <polyline class="cls-1" points="54.26 8.52 57.2 11.75 69.16 17.05"/>
  <polyline class="cls-1" points="68.91 17.14 78.78 38.95 68.55 43.78"/>
  <path class="cls-1" d="m69.14,17.5c-4.3,7.94-4.25,17.44-3.87,26.46.34,8.32.87,16.63,1.58,24.92.24,2.86.51,5.72,1.2,8.51"/>
  <line class="cls-1" x1="68.85" y1="43.94" x2="65.05" y2="35.09"/>
  <path class="cls-1" d="m27.15,17.28c3.48,4.85,4.03,11.15,4.2,17.11.41,14.34-.69,28.72-3.27,42.83"/>
  <polyline class="cls-1" points="42.64 8.36 39.84 11.58 26.95 17.38"/>
  <polyline class="cls-1" points="27.07 17.31 17.81 39.46 27.45 43.46"/>
  <line class="cls-1" x1="31.45" y1="33.2" x2="27.32" y2="43.71"/>
  <line class="cls-1" x1="30.71" y1="25.77" x2="66.19" y2="25.98"/>
  <line class="cls-1" x1="39.27" y1="11.88" x2="57.67" y2="11.99"/>
  <path class="cls-1" d="m68.2,77.17c-3.24,1.97-6.56,3.96-10.24,4.82-1.74.41-3.53.55-5.31.68-3.3.24-6.64.42-9.9-.17-5.11-.93-9.68-3.7-14.56-5.5"/>
  <line class="cls-1" x1="66.56" y1="64.44" x2="66.74" y2="77.93"/>
  <line class="cls-1" x1="30.02" y1="63.69" x2="29.76" y2="77.65"/>
</svg>