<?xml version="1.0" encoding="UTF-8"?>
<svg id="Classic_fit_Baju_Kanan" data-name="Classic fit, Baju Kanan" xmlns="http://www.w3.org/2000/svg" viewBox="0 0 96 96">
  <defs>
    <style>
      .cls-1 {
        fill: #231f20;
        font-family: SFPro-Semibold, 'SF Pro';
        font-size: 4.49px;
        font-variation-settings: 'wdth' 100, 'opsz' 28, 'wght' 590;
        font-weight: 600;
      }

      .cls-2 {
        stroke: #ed1c24;
        stroke-dasharray: 0 1;
        stroke-width: .5px;
      }

      .cls-2, .cls-3 {
        fill: none;
        stroke-miterlimit: 10;
      }

      .cls-3 {
        stroke: #010101;
        stroke-width: .25px;
      }
    </style>
  </defs>
  <g>
    <path class="cls-3" d="m47.43,8l-16.16,5.15s2.25,11.5-5.26,19.95c0,0-3.03,4.34-7.86,4.16l-.76,37.09-.99.1v10.65h1.76s.85-.11,2.99.33c0,0,12.27,2.89,17.66,3.04,5.39.15,21.41.25,21.41.25V15.49s-.86-.58-2.52-.29c0,0-4.15.37-5.53-.12,0,0-2.58-.28-4.73-7.08Z"/>
    <path class="cls-3" d="m60.21,16.65s-1.16-.62-3.28-.46c0,0-1.79.38-4.65-.03,0,0-3.26-.25-5.56-6.92l-14.3,4.57s.92,8.26-2.2,14.35c0,0-3.27,8.93-10.93,10.16l-.96,44.82,2.8.21,10.23,2.24s5.11,1.02,10.4.93l18.44.23"/>
    <path class="cls-3" d="m55.13,86.69h-2.74V15.19c.4.08.86.14,1.38.17.51.03.96,0,1.36-.03,0,23.78,0,47.57,0,71.35Z"/>
    <circle class="cls-3" cx="53.76" cy="21.49" r=".47"/>
    <circle class="cls-3" cx="53.74" cy="30.68" r=".47"/>
    <circle class="cls-3" cx="53.68" cy="39.7" r=".47"/>
    <circle class="cls-3" cx="53.76" cy="48.72" r=".47"/>
    <circle class="cls-3" cx="53.68" cy="58.01" r=".47"/>
    <circle class="cls-3" cx="53.76" cy="67.02" r=".47"/>
    <circle class="cls-3" cx="53.76" cy="76.04" r=".47"/>
    <polygon class="cls-3" points="57.75 86.71 55.13 86.71 55.13 15.34 57.69 15.2 57.75 86.71"/>
  </g>
  <polygon class="cls-2" points="18.13 38.32 32.31 38.32 32.5 8.1 18.35 8.1 18.13 38.32"/>
  <polyline class="cls-2" points="60.21 15.49 60.21 8 32.5 8"/>
  <text class="cls-1" transform="translate(13.68 9.15)"><tspan x="0" y="0">A</tspan></text>
  <text class="cls-1" transform="translate(61.2 9.42)"><tspan x="0" y="0">B</tspan></text>
  <text class="cls-1" transform="translate(11.56 84.44)"><tspan x="0" y="0">C</tspan></text>
  <text class="cls-1" transform="translate(61.48 89.94)"><tspan x="0" y="0">D</tspan></text>
  <text class="cls-1" transform="translate(46.36 5.29)"><tspan x="0" y="0">E</tspan></text>
  <text class="cls-1" transform="translate(96 32.32)"><tspan x="0" y="0">F</tspan></text>
  <text class="cls-1" transform="translate(34.15 38.75)"><tspan x="0" y="0">H</tspan></text>
  <text class="cls-1" transform="translate(14.03 39.23)"><tspan x="0" y="0">G</tspan></text>
  <text class="cls-1" transform="translate(31.14 6.25)"><tspan x="0" y="0">C</tspan></text>
  <text class="cls-1" transform="translate(27.2 15.19)"><tspan x="0" y="0">D</tspan></text>
  <text class="cls-1" transform="translate(61.48 17.47)"><tspan x="0" y="0">F</tspan></text>
</svg>