<?xml version="1.0" encoding="UTF-8"?>
<svg id="Layer_6" data-name="Layer 6" xmlns="http://www.w3.org/2000/svg" viewBox="0 0 96 96">
  <defs>
    <style>
      .cls-1 {
        fill: none;
        stroke: #010101;
        stroke-dasharray: 0 0 0 0 0 0 0 0 0 0 0 0;
        stroke-miterlimit: 10;
        stroke-width: .5px;
      }
    </style>
  </defs>
  <path class="cls-1" d="m63.92,90.17c.47-16.64.84-33.28,1.1-49.93.08-4.93.14-9.87-.28-14.78-.44-5.08-1.41-10.1-2.38-15.1"/>
  <path class="cls-1" d="m50.01,90.22c-.93-7.78-.26-15.66-.46-23.5-.12-4.49-.52-8.96-.87-13.43-1.02-13.27-1.5-26.58-1.55-39.89"/>
  <path class="cls-1" d="m45.45,90.41c-.44-18.4.33-36.82,2.32-55.12"/>
  <path class="cls-1" d="m33.26,10.38c-2.85,9.14-3.11,18.85-3.18,28.42-.12,17.17.34,34.34,1.37,51.49"/>
  <path class="cls-1" d="m64.04,90c-1.8.94-3.92.98-5.95.99-2.74,0-5.56-.02-8.09-1.06"/>
  <path class="cls-1" d="m31.32,90.18c.73.41,1.54.63,2.36.8,3.36.71,6.89.64,10.22-.2.57-.15,1.15-.32,1.66-.63"/>
  <line class="cls-1" x1="33.01" y1="10.53" x2="62.62" y2="10.4"/>
  <line class="cls-1" x1="32.73" y1="13.12" x2="62.75" y2="13.17"/>
  <line class="cls-1" x1="57.26" y1="43.75" x2="36.12" y2="36.37"/>
  <line class="cls-1" x1="55.14" y1="13.42" x2="56.05" y2="22.6"/>
  <line class="cls-1" x1="39.92" y1="13.37" x2="39.29" y2="22.33"/>
  <line class="cls-1" x1="58.64" y1="13.15" x2="59.22" y2="18.73"/>
  <line class="cls-1" x1="36.78" y1="13.18" x2="36.16" y2="18.89"/>
  <line class="cls-1" x1="46.49" y1="10.52" x2="46.47" y2="13.15"/>
  <line class="cls-1" x1="48.27" y1="10.48" x2="48.23" y2="13.15"/>
  <line class="cls-1" x1="35.12" y1="10.52" x2="35.08" y2="13.07"/>
  <line class="cls-1" x1="35.83" y1="10.57" x2="35.75" y2="13.01"/>
  <line class="cls-1" x1="60.22" y1="10.46" x2="60.31" y2="13.2"/>
  <line class="cls-1" x1="59.34" y1="10.5" x2="59.48" y2="13.1"/>
</svg>